<?xml version="1.0" encoding="UTF-8" standalone="no"?>
<!DOCTYPE svg PUBLIC "-//W3C//DTD SVG 1.0//EN" "http://www.w3.org/TR/2001/PR-SVG-20010719/DTD/svg10.dtd">
<svg width="48cm" height="43cm" viewBox="218 199 944 857" xmlns="http://www.w3.org/2000/svg" xmlns:xlink="http://www.w3.org/1999/xlink">
  <g>
    <line style="fill: none; fill-opacity:0; stroke-width: 2; stroke-dasharray: 20 8 4 8; stroke: #000000" x1="272.344" y1="200.344" x2="605.001" y2="200.344"/>
    <line style="fill: none; fill-opacity:0; stroke-width: 2; stroke-dasharray: 20 8 4 8; stroke: #000000" x1="272.344" y1="407.001" x2="605.001" y2="407.001"/>
    <path style="fill: none; fill-opacity:0; stroke-width: 2; stroke-dasharray: 20 8 4 8; stroke: #000000" d="M 272.344,200.344 A 8,8 0 0 0 264.344,208.344"/>
    <path style="fill: none; fill-opacity:0; stroke-width: 2; stroke-dasharray: 20 8 4 8; stroke: #000000" d="M 613.001,208.344 A 8,8 0 0 0 605.001,200.344"/>
    <line style="fill: none; fill-opacity:0; stroke-width: 2; stroke-dasharray: 20 8 4 8; stroke: #000000" x1="264.344" y1="208.344" x2="264.344" y2="399.001"/>
    <line style="fill: none; fill-opacity:0; stroke-width: 2; stroke-dasharray: 20 8 4 8; stroke: #000000" x1="613.001" y1="208.344" x2="613.001" y2="399.001"/>
    <path style="fill: none; fill-opacity:0; stroke-width: 2; stroke-dasharray: 20 8 4 8; stroke: #000000" d="M 264.344,399.001 A 8,8 0 0 0 272.344,407.001"/>
    <path style="fill: none; fill-opacity:0; stroke-width: 2; stroke-dasharray: 20 8 4 8; stroke: #000000" d="M 605.001,407.001 A 8,8 0 0 0 613.001,399.001"/>
    <text style="fill: #000000;text-anchor:start;font-size:12.8;font-family:sanserif;font-style:normal;font-weight:700" x="273.344" y="307.572">
      <tspan x="273.344" y="307.572">Preempting</tspan>
    </text>
  </g>
  <g>
    <rect style="fill: #ffffff" x="301" y="217" width="122" height="38"/>
    <rect style="fill: none; fill-opacity:0; stroke-width: 2; stroke: #000000" x="301" y="217" width="122" height="38"/>
    <text style="fill: #000000;text-anchor:middle;font-size:12.8;font-family:sanserif;font-style:normal;font-weight:normal" x="362" y="239.9">
      <tspan x="362" y="239.9">Vacating</tspan>
    </text>
  </g>
  <g>
    <rect style="fill: #ffffff" x="303" y="349" width="115" height="38"/>
    <rect style="fill: none; fill-opacity:0; stroke-width: 2; stroke: #000000" x="303" y="349" width="115" height="38"/>
    <text style="fill: #000000;text-anchor:middle;font-size:12.8;font-family:sanserif;font-style:normal;font-weight:normal" x="360.5" y="371.9">
      <tspan x="360.5" y="371.9">Killing</tspan>
    </text>
  </g>
  <g>
    <polygon style="fill: #ffffff" points="519.264,254.21 592.393,306.657 519.264,359.105 446.134,306.657 "/>
    <polygon style="fill: none; fill-opacity:0; stroke-width: 2; stroke: #000000" points="519.264,254.21 592.393,306.657 519.264,359.105 446.134,306.657 "/>
    <text style="fill: #000000;text-anchor:middle;font-size:12.8;font-family:sanserif;font-style:normal;font-weight:normal" x="519.264" y="310.557">
      <tspan x="519.264" y="310.557">Want vacate?</tspan>
    </text>
  </g>
  <g>
    <line style="fill: none; fill-opacity:0; stroke-width: 2; stroke: #000000" x1="482.7" y1="280.434" x2="431.957" y2="258.816"/>
    <polygon style="fill: #000000" points="425.057,255.876 436.217,255.196 431.957,258.816 432.297,264.396 "/>
    <polygon style="fill: none; fill-opacity:0; stroke-width: 2; stroke: #000000" points="425.057,255.876 436.217,255.196 431.957,258.816 432.297,264.396 "/>
  </g>
  <g>
    <line style="fill: none; fill-opacity:0; stroke-width: 2; stroke: #000000" x1="362" y1="255" x2="360.655" y2="339.265"/>
    <polygon style="fill: #000000" points="360.536,346.764 355.696,336.686 360.655,339.265 365.695,336.845 "/>
    <polygon style="fill: none; fill-opacity:0; stroke-width: 2; stroke: #000000" points="360.536,346.764 355.696,336.686 360.655,339.265 365.695,336.845 "/>
  </g>
  <g>
    <line style="fill: none; fill-opacity:0; stroke-width: 2; stroke: #000000" x1="482.7" y1="332.88" x2="427.447" y2="346.646"/>
    <polygon style="fill: #000000" points="420.17,348.459 428.664,341.19 427.447,346.646 431.082,350.893 "/>
    <polygon style="fill: none; fill-opacity:0; stroke-width: 2; stroke: #000000" points="420.17,348.459 428.664,341.19 427.447,346.646 431.082,350.893 "/>
  </g>
  <g>
    <line style="fill: none; fill-opacity:0; stroke-width: 2; stroke-dasharray: 20 8 4 8; stroke: #000000" x1="706.416" y1="200.5" x2="1153.24" y2="200.5"/>
    <line style="fill: none; fill-opacity:0; stroke-width: 2; stroke-dasharray: 20 8 4 8; stroke: #000000" x1="706.416" y1="613.672" x2="1153.24" y2="613.672"/>
    <path style="fill: none; fill-opacity:0; stroke-width: 2; stroke-dasharray: 20 8 4 8; stroke: #000000" d="M 706.416,200.5 A 8,8 0 0 0 698.416,208.5"/>
    <path style="fill: none; fill-opacity:0; stroke-width: 2; stroke-dasharray: 20 8 4 8; stroke: #000000" d="M 1161.24,208.5 A 8,8 0 0 0 1153.24,200.5"/>
    <line style="fill: none; fill-opacity:0; stroke-width: 2; stroke-dasharray: 20 8 4 8; stroke: #000000" x1="698.416" y1="208.5" x2="698.416" y2="605.672"/>
    <line style="fill: none; fill-opacity:0; stroke-width: 2; stroke-dasharray: 20 8 4 8; stroke: #000000" x1="1161.24" y1="208.5" x2="1161.24" y2="605.672"/>
    <path style="fill: none; fill-opacity:0; stroke-width: 2; stroke-dasharray: 20 8 4 8; stroke: #000000" d="M 698.416,605.672 A 8,8 0 0 0 706.416,613.672"/>
    <path style="fill: none; fill-opacity:0; stroke-width: 2; stroke-dasharray: 20 8 4 8; stroke: #000000" d="M 1153.24,613.672 A 8,8 0 0 0 1161.24,605.672"/>
    <text style="fill: #000000;text-anchor:start;font-size:12.8;font-family:sanserif;font-style:normal;font-weight:700" x="707.416" y="410.986">
      <tspan x="707.416" y="410.986">Claimed</tspan>
    </text>
  </g>
  <g>
    <rect style="fill: #ffffff" x="929.208" y="232.6" width="140.119" height="38"/>
    <rect style="fill: none; fill-opacity:0; stroke-width: 2; stroke: #000000" x="929.208" y="232.6" width="140.119" height="38"/>
    <text style="fill: #000000;text-anchor:middle;font-size:12.8;font-family:sanserif;font-style:normal;font-weight:normal" x="999.267" y="255.5">
      <tspan x="999.267" y="255.5">Suspended</tspan>
    </text>
  </g>
  <g>
    <rect style="fill: #ffffff" x="940.026" y="543.91" width="93.8368" height="38"/>
    <rect style="fill: none; fill-opacity:0; stroke-width: 2; stroke: #000000" x="940.026" y="543.91" width="93.8368" height="38"/>
    <text style="fill: #000000;text-anchor:middle;font-size:12.8;font-family:sanserif;font-style:normal;font-weight:normal" x="986.944" y="566.81">
      <tspan x="986.944" y="566.81">Idle</tspan>
    </text>
  </g>
  <g>
    <rect style="fill: #ffffff" x="716.86" y="436.652" width="107.858" height="38"/>
    <rect style="fill: none; fill-opacity:0; stroke-width: 2; stroke: #000000" x="716.86" y="436.652" width="107.858" height="38"/>
    <text style="fill: #000000;text-anchor:middle;font-size:12.8;font-family:sanserif;font-style:normal;font-weight:normal" x="770.789" y="459.552">
      <tspan x="770.789" y="459.552">Retiring</tspan>
    </text>
  </g>
  <g>
    <rect style="fill: #ffffff" x="865.01" y="328.12" width="267.489" height="166.102"/>
    <rect style="fill: none; fill-opacity:0; stroke-width: 2; stroke: #000000" x="865.01" y="328.12" width="267.489" height="166.102"/>
    <text style="fill: #000000;text-anchor:end;font-size:12.8;font-family:sanserif;font-style:normal;font-weight:normal" x="1123.5" y="415.071">
      <tspan x="1123.5" y="415.071">Busy</tspan>
    </text>
  </g>
  <g>
    <polygon style="fill: #ffffff" points="1002.67,352.634 1071.95,408.136 1002.67,463.637 933.388,408.136 "/>
    <polygon style="fill: none; fill-opacity:0; stroke-width: 2; stroke: #000000" points="1002.67,352.634 1071.95,408.136 1002.67,463.637 933.388,408.136 "/>
    <text style="fill: #000000;text-anchor:middle;font-size:12.8;font-family:sanserif;font-style:normal;font-weight:normal" x="1002.67" y="404.036">
      <tspan x="1002.67" y="404.036">Want</tspan>
      <tspan x="1002.67" y="420.036">Suspend?</tspan>
    </text>
  </g>
  <g>
    <line style="fill: none; fill-opacity:0; stroke-width: 2; stroke: #000000" x1="963.486" y1="543.91" x2="993.119" y2="502.161"/>
    <polygon style="fill: #000000" points="997.46,496.045 995.749,507.094 993.119,502.161 987.594,501.306 "/>
    <polygon style="fill: none; fill-opacity:0; stroke-width: 2; stroke: #000000" points="997.46,496.045 995.749,507.094 993.119,502.161 987.594,501.306 "/>
  </g>
  <g>
    <line style="fill: none; fill-opacity:0; stroke-width: 2; stroke: #000000" x1="1065.63" y1="494.222" x2="1017.64" y2="537.398"/>
    <polygon style="fill: #000000" points="1012.07,542.414 1016.16,532.009 1017.64,537.398 1022.84,539.443 "/>
    <polygon style="fill: none; fill-opacity:0; stroke-width: 2; stroke: #000000" points="1012.07,542.414 1016.16,532.009 1017.64,537.398 1022.84,539.443 "/>
  </g>
  <text style="fill: #000000;text-anchor:start;font-size:12.8;font-family:sanserif;font-style:normal;font-weight:normal" x="929.826" y="407.086">
    <tspan x="929.826" y="407.086"></tspan>
  </text>
  <text style="fill: #000000;text-anchor:start;font-size:12.8;font-family:sanserif;font-style:normal;font-weight:normal" x="1006.48" y="723.182">
    <tspan x="1006.48" y="723.182"></tspan>
  </text>
  <text style="fill: #000000;text-anchor:start;font-size:12.8;font-family:sanserif;font-style:normal;font-weight:normal" x="929.826" y="407.086">
    <tspan x="929.826" y="407.086"></tspan>
  </text>
  <text style="fill: #000000;text-anchor:start;font-size:12.8;font-family:sanserif;font-style:normal;font-weight:normal" x="1044.06" y="529.816">
    <tspan x="1044.06" y="529.816">12</tspan>
  </text>
  <text style="fill: #000000;text-anchor:start;font-size:12.8;font-family:sanserif;font-style:normal;font-weight:normal" x="929.826" y="407.086">
    <tspan x="929.826" y="407.086"></tspan>
  </text>
  <text style="fill: #000000;text-anchor:start;font-size:12.8;font-family:sanserif;font-style:normal;font-weight:normal" x="979.34" y="529.816">
    <tspan x="979.34" y="529.816">11</tspan>
  </text>
  <g>
    <path style="fill: none; fill-opacity:0; stroke-width: 2; stroke: #000000" d="M 933.388,408.136 A 73.5113,73.5113 0 0 0 799.664,427.17"/>
    <polygon style="fill: #000000" points="798.05,434.436 794.42,423.861 799.044,427.002 804.332,425.186 "/>
    <polygon style="fill: none; fill-opacity:0; stroke-width: 2; stroke: #000000" points="798.05,434.436 794.42,423.861 799.044,427.002 804.332,425.186 "/>
  </g>
  <text style="fill: #000000;text-anchor:start;font-size:12.8;font-family:sanserif;font-style:normal;font-weight:normal" x="897.368" y="399.308">
    <tspan x="897.368" y="399.308">no</tspan>
  </text>
  <text style="fill: #000000;text-anchor:start;font-size:12.8;font-family:sanserif;font-style:normal;font-weight:normal" x="836.374" y="375.008">
    <tspan x="836.374" y="375.008">13</tspan>
  </text>
  <g>
    <line style="fill: none; fill-opacity:0; stroke-width: 2; stroke: #000000" x1="1002.67" y1="352.634" x2="999.671" y2="280.328"/>
    <polygon style="fill: #000000" points="999.361,272.834 1004.77,282.618 999.671,280.328 994.779,283.033 "/>
    <polygon style="fill: none; fill-opacity:0; stroke-width: 2; stroke: #000000" points="999.361,272.834 1004.77,282.618 999.671,280.328 994.779,283.033 "/>
  </g>
  <text style="fill: #000000;text-anchor:start;font-size:12.8;font-family:sanserif;font-style:normal;font-weight:normal" x="972.868" y="347.536">
    <tspan x="972.868" y="347.536">yes</tspan>
  </text>
  <text style="fill: #000000;text-anchor:start;font-size:12.8;font-family:sanserif;font-style:normal;font-weight:normal" x="976.99" y="310.178">
    <tspan x="976.99" y="310.178">14</tspan>
  </text>
  <g>
    <path style="fill: none; fill-opacity:0; stroke-width: 2; stroke: #000000" d="M 929.208,232.6 A 895.629,895.629 0 0 0 565.027,277.245"/>
    <polygon style="fill: #000000" points="557.937,279.69 565.704,271.648 565.009,277.195 569.03,281.079 "/>
    <polygon style="fill: none; fill-opacity:0; stroke-width: 2; stroke: #000000" points="557.937,279.69 565.704,271.648 565.009,277.195 569.03,281.079 "/>
  </g>
  <text style="fill: #000000;text-anchor:start;font-size:12.8;font-family:sanserif;font-style:normal;font-weight:normal" x="807.846" y="222.744">
    <tspan x="807.846" y="222.744">17</tspan>
  </text>
  <g>
    <line style="fill: none; fill-opacity:0; stroke-width: 2; stroke-dasharray: 20 8 4 8; stroke: #000000" x1="883.916" y1="711.172" x2="1084.17" y2="711.172"/>
    <line style="fill: none; fill-opacity:0; stroke-width: 2; stroke-dasharray: 20 8 4 8; stroke: #000000" x1="883.916" y1="798.922" x2="1084.17" y2="798.922"/>
    <path style="fill: none; fill-opacity:0; stroke-width: 2; stroke-dasharray: 20 8 4 8; stroke: #000000" d="M 883.916,711.172 A 8,8 0 0 0 875.916,719.172"/>
    <path style="fill: none; fill-opacity:0; stroke-width: 2; stroke-dasharray: 20 8 4 8; stroke: #000000" d="M 1092.17,719.172 A 8,8 0 0 0 1084.17,711.172"/>
    <line style="fill: none; fill-opacity:0; stroke-width: 2; stroke-dasharray: 20 8 4 8; stroke: #000000" x1="875.916" y1="719.172" x2="875.916" y2="790.922"/>
    <line style="fill: none; fill-opacity:0; stroke-width: 2; stroke-dasharray: 20 8 4 8; stroke: #000000" x1="1092.17" y1="719.172" x2="1092.17" y2="790.922"/>
    <path style="fill: none; fill-opacity:0; stroke-width: 2; stroke-dasharray: 20 8 4 8; stroke: #000000" d="M 875.916,790.922 A 8,8 0 0 0 883.916,798.922"/>
    <path style="fill: none; fill-opacity:0; stroke-width: 2; stroke-dasharray: 20 8 4 8; stroke: #000000" d="M 1084.17,798.922 A 8,8 0 0 0 1092.17,790.922"/>
    <text style="fill: #000000;text-anchor:end;font-size:12.8;font-family:sanserif;font-style:normal;font-weight:700" x="1083.17" y="758.947">
      <tspan x="1083.17" y="758.947">Matched</tspan>
    </text>
  </g>
  <g>
    <rect style="fill: #ffffff" x="919.666" y="734.672" width="67.5" height="38"/>
    <rect style="fill: none; fill-opacity:0; stroke-width: 2; stroke: #000000" x="919.666" y="734.672" width="67.5" height="38"/>
    <text style="fill: #000000;text-anchor:middle;font-size:12.8;font-family:sanserif;font-style:normal;font-weight:normal" x="953.416" y="757.572">
      <tspan x="953.416" y="757.572">Idle</tspan>
    </text>
  </g>
  <g>
    <line style="fill: none; fill-opacity:0; stroke-width: 2; stroke-dasharray: 20 8 4 8; stroke: #000000" x1="745.166" y1="848.672" x2="990.416" y2="848.672"/>
    <line style="fill: none; fill-opacity:0; stroke-width: 2; stroke-dasharray: 20 8 4 8; stroke: #000000" x1="745.166" y1="1055.17" x2="990.416" y2="1055.17"/>
    <path style="fill: none; fill-opacity:0; stroke-width: 2; stroke-dasharray: 20 8 4 8; stroke: #000000" d="M 745.166,848.672 A 8,8 0 0 0 737.166,856.672"/>
    <path style="fill: none; fill-opacity:0; stroke-width: 2; stroke-dasharray: 20 8 4 8; stroke: #000000" d="M 998.416,856.672 A 8,8 0 0 0 990.416,848.672"/>
    <line style="fill: none; fill-opacity:0; stroke-width: 2; stroke-dasharray: 20 8 4 8; stroke: #000000" x1="737.166" y1="856.672" x2="737.166" y2="1047.17"/>
    <line style="fill: none; fill-opacity:0; stroke-width: 2; stroke-dasharray: 20 8 4 8; stroke: #000000" x1="998.416" y1="856.672" x2="998.416" y2="1047.17"/>
    <path style="fill: none; fill-opacity:0; stroke-width: 2; stroke-dasharray: 20 8 4 8; stroke: #000000" d="M 737.166,1047.17 A 8,8 0 0 0 745.166,1055.17"/>
    <path style="fill: none; fill-opacity:0; stroke-width: 2; stroke-dasharray: 20 8 4 8; stroke: #000000" d="M 990.416,1055.17 A 8,8 0 0 0 998.416,1047.17"/>
    <text style="fill: #000000;text-anchor:end;font-size:12.8;font-family:sanserif;font-style:normal;font-weight:700" x="989.416" y="955.822">
      <tspan x="989.416" y="955.822">Backfill</tspan>
    </text>
  </g>
  <g>
    <rect style="fill: #ffffff" x="900.916" y="982.172" width="80" height="38"/>
    <rect style="fill: none; fill-opacity:0; stroke-width: 2; stroke: #000000" x="900.916" y="982.172" width="80" height="38"/>
    <text style="fill: #000000;text-anchor:middle;font-size:12.8;font-family:sanserif;font-style:normal;font-weight:normal" x="940.916" y="1005.07">
      <tspan x="940.916" y="1005.07">Killing</tspan>
    </text>
  </g>
  <g>
    <rect style="fill: #ffffff" x="783.416" y="879.672" width="75" height="38"/>
    <rect style="fill: none; fill-opacity:0; stroke-width: 2; stroke: #000000" x="783.416" y="879.672" width="75" height="38"/>
    <text style="fill: #000000;text-anchor:middle;font-size:12.8;font-family:sanserif;font-style:normal;font-weight:normal" x="820.916" y="902.572">
      <tspan x="820.916" y="902.572">Idle</tspan>
    </text>
  </g>
  <g>
    <rect style="fill: #ffffff" x="785.916" y="982.172" width="67.5" height="38"/>
    <rect style="fill: none; fill-opacity:0; stroke-width: 2; stroke: #000000" x="785.916" y="982.172" width="67.5" height="38"/>
    <text style="fill: #000000;text-anchor:middle;font-size:12.8;font-family:sanserif;font-style:normal;font-weight:normal" x="819.666" y="1005.07">
      <tspan x="819.666" y="1005.07">Busy</tspan>
    </text>
  </g>
  <g>
    <line style="fill: none; fill-opacity:0; stroke-width: 2; stroke-dasharray: 20 8 4 8; stroke: #000000" x1="468.916" y1="592.422" x2="666.666" y2="592.422"/>
    <line style="fill: none; fill-opacity:0; stroke-width: 2; stroke-dasharray: 20 8 4 8; stroke: #000000" x1="468.916" y1="676.172" x2="666.666" y2="676.172"/>
    <path style="fill: none; fill-opacity:0; stroke-width: 2; stroke-dasharray: 20 8 4 8; stroke: #000000" d="M 468.916,592.422 A 8,8 0 0 0 460.916,600.422"/>
    <path style="fill: none; fill-opacity:0; stroke-width: 2; stroke-dasharray: 20 8 4 8; stroke: #000000" d="M 674.666,600.422 A 8,8 0 0 0 666.666,592.422"/>
    <line style="fill: none; fill-opacity:0; stroke-width: 2; stroke-dasharray: 20 8 4 8; stroke: #000000" x1="460.916" y1="600.422" x2="460.916" y2="668.172"/>
    <line style="fill: none; fill-opacity:0; stroke-width: 2; stroke-dasharray: 20 8 4 8; stroke: #000000" x1="674.666" y1="600.422" x2="674.666" y2="668.172"/>
    <path style="fill: none; fill-opacity:0; stroke-width: 2; stroke-dasharray: 20 8 4 8; stroke: #000000" d="M 460.916,668.172 A 8,8 0 0 0 468.916,676.172"/>
    <path style="fill: none; fill-opacity:0; stroke-width: 2; stroke-dasharray: 20 8 4 8; stroke: #000000" d="M 666.666,676.172 A 8,8 0 0 0 674.666,668.172"/>
    <text style="fill: #000000;text-anchor:end;font-size:12.8;font-family:sanserif;font-style:normal;font-weight:700" x="665.666" y="638.197">
      <tspan x="665.666" y="638.197">Owner</tspan>
    </text>
  </g>
  <g>
    <rect style="fill: #ffffff" x="514.666" y="614.672" width="63.75" height="38"/>
    <rect style="fill: none; fill-opacity:0; stroke-width: 2; stroke: #000000" x="514.666" y="614.672" width="63.75" height="38"/>
    <text style="fill: #000000;text-anchor:middle;font-size:12.8;font-family:sanserif;font-style:normal;font-weight:normal" x="546.541" y="637.572">
      <tspan x="546.541" y="637.572">Idle</tspan>
    </text>
  </g>
  <g>
    <line style="fill: none; fill-opacity:0; stroke-width: 2; stroke-dasharray: 20 8 4 8; stroke: #000000" x1="441.416" y1="748.672" x2="637.916" y2="748.672"/>
    <line style="fill: none; fill-opacity:0; stroke-width: 2; stroke-dasharray: 20 8 4 8; stroke: #000000" x1="441.416" y1="902.672" x2="637.916" y2="902.672"/>
    <path style="fill: none; fill-opacity:0; stroke-width: 2; stroke-dasharray: 20 8 4 8; stroke: #000000" d="M 441.416,748.672 A 8,8 0 0 0 433.416,756.672"/>
    <path style="fill: none; fill-opacity:0; stroke-width: 2; stroke-dasharray: 20 8 4 8; stroke: #000000" d="M 645.916,756.672 A 8,8 0 0 0 637.916,748.672"/>
    <line style="fill: none; fill-opacity:0; stroke-width: 2; stroke-dasharray: 20 8 4 8; stroke: #000000" x1="433.416" y1="756.672" x2="433.416" y2="894.672"/>
    <line style="fill: none; fill-opacity:0; stroke-width: 2; stroke-dasharray: 20 8 4 8; stroke: #000000" x1="645.916" y1="756.672" x2="645.916" y2="894.672"/>
    <path style="fill: none; fill-opacity:0; stroke-width: 2; stroke-dasharray: 20 8 4 8; stroke: #000000" d="M 433.416,894.672 A 8,8 0 0 0 441.416,902.672"/>
    <path style="fill: none; fill-opacity:0; stroke-width: 2; stroke-dasharray: 20 8 4 8; stroke: #000000" d="M 637.916,902.672 A 8,8 0 0 0 645.916,894.672"/>
    <text style="fill: #000000;text-anchor:start;font-size:12.8;font-family:sanserif;font-style:normal;font-weight:700" x="442.416" y="829.572">
      <tspan x="442.416" y="829.572">Unclaimed</tspan>
    </text>
  </g>
  <g>
    <rect style="fill: #ffffff" x="542.166" y="769.672" width="60" height="38"/>
    <rect style="fill: none; fill-opacity:0; stroke-width: 2; stroke: #000000" x="542.166" y="769.672" width="60" height="38"/>
    <text style="fill: #000000;text-anchor:middle;font-size:12.8;font-family:sanserif;font-style:normal;font-weight:normal" x="572.166" y="792.572">
      <tspan x="572.166" y="792.572">Idle</tspan>
    </text>
  </g>
  <g>
    <rect style="fill: #ffffff" x="484.34" y="847.172" width="127.825" height="38"/>
    <rect style="fill: none; fill-opacity:0; stroke-width: 2; stroke: #000000" x="484.34" y="847.172" width="127.825" height="38"/>
    <text style="fill: #000000;text-anchor:middle;font-size:12.8;font-family:sanserif;font-style:normal;font-weight:normal" x="548.253" y="870.072">
      <tspan x="548.253" y="870.072">Benchmarking</tspan>
    </text>
  </g>
  <g>
    <line style="fill: none; fill-opacity:0; stroke-width: 2; stroke: #000000" x1="602.166" y1="788.672" x2="775.093" y2="893.621"/>
    <polygon style="fill: #000000" points="781.504,897.512 770.361,896.598 775.093,893.621 775.55,888.049 "/>
    <polygon style="fill: none; fill-opacity:0; stroke-width: 2; stroke: #000000" points="781.504,897.512 770.361,896.598 775.093,893.621 775.55,888.049 "/>
  </g>
  <g>
    <line style="fill: none; fill-opacity:0; stroke-width: 2; stroke: #000000" x1="557.166" y1="807.672" x2="550.395" y2="837.675"/>
    <polygon style="fill: #000000" points="548.744,844.991 546.068,834.135 550.395,837.675 555.823,836.337 "/>
    <polygon style="fill: none; fill-opacity:0; stroke-width: 2; stroke: #000000" points="548.744,844.991 546.068,834.135 550.395,837.675 555.823,836.337 "/>
  </g>
  <g>
    <line style="fill: none; fill-opacity:0; stroke-width: 2; stroke: #000000" x1="580.21" y1="847.172" x2="585.477" y2="817.261"/>
    <polygon style="fill: #000000" points="586.778,809.874 589.968,820.59 585.477,817.261 580.12,818.855 "/>
    <polygon style="fill: none; fill-opacity:0; stroke-width: 2; stroke: #000000" points="586.778,809.874 589.968,820.59 585.477,817.261 580.12,818.855 "/>
  </g>
  <g>
    <line style="fill: none; fill-opacity:0; stroke-width: 2; stroke: #000000" x1="557.166" y1="769.672" x2="547.421" y2="662.368"/>
    <polygon style="fill: #000000" points="546.742,654.899 552.626,664.406 547.421,662.368 542.667,665.31 "/>
    <polygon style="fill: none; fill-opacity:0; stroke-width: 2; stroke: #000000" points="546.742,654.899 552.626,664.406 547.421,662.368 542.667,665.31 "/>
  </g>
  <g>
    <line style="fill: none; fill-opacity:0; stroke-width: 2; stroke: #000000" x1="562.478" y1="652.672" x2="571.363" y2="759.969"/>
    <polygon style="fill: #000000" points="571.981,767.444 566.173,757.89 571.363,759.969 576.139,757.065 "/>
    <polygon style="fill: none; fill-opacity:0; stroke-width: 2; stroke: #000000" points="571.981,767.444 566.173,757.89 571.363,759.969 576.139,757.065 "/>
  </g>
  <g>
    <line style="fill: none; fill-opacity:0; stroke-width: 2; stroke-dasharray: 20 8 4 8; stroke: #000000" x1="227.666" y1="601.172" x2="367.916" y2="601.172"/>
    <line style="fill: none; fill-opacity:0; stroke-width: 2; stroke-dasharray: 20 8 4 8; stroke: #000000" x1="227.666" y1="767.422" x2="367.916" y2="767.422"/>
    <path style="fill: none; fill-opacity:0; stroke-width: 2; stroke-dasharray: 20 8 4 8; stroke: #000000" d="M 227.666,601.172 A 8,8 0 0 0 219.666,609.172"/>
    <path style="fill: none; fill-opacity:0; stroke-width: 2; stroke-dasharray: 20 8 4 8; stroke: #000000" d="M 375.916,609.172 A 8,8 0 0 0 367.916,601.172"/>
    <line style="fill: none; fill-opacity:0; stroke-width: 2; stroke-dasharray: 20 8 4 8; stroke: #000000" x1="219.666" y1="609.172" x2="219.666" y2="759.422"/>
    <line style="fill: none; fill-opacity:0; stroke-width: 2; stroke-dasharray: 20 8 4 8; stroke: #000000" x1="375.916" y1="609.172" x2="375.916" y2="759.422"/>
    <path style="fill: none; fill-opacity:0; stroke-width: 2; stroke-dasharray: 20 8 4 8; stroke: #000000" d="M 219.666,759.422 A 8,8 0 0 0 227.666,767.422"/>
    <path style="fill: none; fill-opacity:0; stroke-width: 2; stroke-dasharray: 20 8 4 8; stroke: #000000" d="M 367.916,767.422 A 8,8 0 0 0 375.916,759.422"/>
    <text style="fill: #000000;text-anchor:start;font-size:12.8;font-family:sanserif;font-style:normal;font-weight:700" x="228.666" y="688.197">
      <tspan x="228.666" y="688.197">Drained</tspan>
    </text>
  </g>
  <g>
    <rect style="fill: #ffffff" x="279.416" y="619.672" width="67.75" height="38"/>
    <rect style="fill: none; fill-opacity:0; stroke-width: 2; stroke: #000000" x="279.416" y="619.672" width="67.75" height="38"/>
    <text style="fill: #000000;text-anchor:middle;font-size:12.8;font-family:sanserif;font-style:normal;font-weight:normal" x="313.291" y="642.572">
      <tspan x="313.291" y="642.572">Idle</tspan>
    </text>
  </g>
  <g>
    <rect style="fill: #ffffff" x="250.916" y="705.922" width="95.55" height="38"/>
    <rect style="fill: none; fill-opacity:0; stroke-width: 2; stroke: #000000" x="250.916" y="705.922" width="95.55" height="38"/>
    <text style="fill: #000000;text-anchor:middle;font-size:12.8;font-family:sanserif;font-style:normal;font-weight:normal" x="298.691" y="728.822">
      <tspan x="298.691" y="728.822">Retiring</tspan>
    </text>
  </g>
  <g>
    <line style="fill: none; fill-opacity:0; stroke-width: 2; stroke: #000000" x1="347.166" y1="638.672" x2="504.933" y2="642.911"/>
    <polygon style="fill: #000000" points="512.431,643.112 502.3,647.842 504.933,642.911 502.569,637.845 "/>
    <polygon style="fill: none; fill-opacity:0; stroke-width: 2; stroke: #000000" points="512.431,643.112 502.3,647.842 504.933,642.911 502.569,637.845 "/>
  </g>
  <g>
    <line style="fill: none; fill-opacity:0; stroke-width: 2; stroke: #000000" x1="347.471" y1="708.604" x2="505.433" y2="655.761"/>
    <polygon style="fill: #000000" points="512.545,653.381 504.648,661.296 505.433,655.761 501.476,651.812 "/>
    <polygon style="fill: none; fill-opacity:0; stroke-width: 2; stroke: #000000" points="512.545,653.381 504.648,661.296 505.433,655.761 501.476,651.812 "/>
  </g>
  <g>
    <line style="fill: none; fill-opacity:0; stroke-width: 2; stroke: #000000" x1="530.602" y1="652.672" x2="355.19" y2="739.599"/>
    <polygon style="fill: #000000" points="348.47,742.929 355.21,734.009 355.19,739.599 359.65,742.969 "/>
    <polygon style="fill: none; fill-opacity:0; stroke-width: 2; stroke: #000000" points="348.47,742.929 355.21,734.009 355.19,739.599 359.65,742.969 "/>
  </g>
  <g>
    <line style="fill: none; fill-opacity:0; stroke-width: 2; stroke: #000000" x1="542.166" y1="788.672" x2="332.118" y2="745.866"/>
    <polygon style="fill: #000000" points="324.769,744.369 335.566,741.466 332.118,745.866 333.569,751.265 "/>
    <polygon style="fill: none; fill-opacity:0; stroke-width: 2; stroke: #000000" points="324.769,744.369 335.566,741.466 332.118,745.866 333.569,751.265 "/>
  </g>
  <g>
    <path style="fill: none; fill-opacity:0; stroke-width: 2; stroke: #000000" d="M 301,236 A 239.726,239.726 0 0 0 504.976,625.056"/>
    <polygon style="fill: #000000" points="512.444,624.42 503.061,630.499 504.99,625.253 501.951,620.561 "/>
    <polygon style="fill: none; fill-opacity:0; stroke-width: 2; stroke: #000000" points="512.444,624.42 503.061,630.499 504.99,625.253 501.951,620.561 "/>
  </g>
  <g>
    <line style="fill: none; fill-opacity:0; stroke-width: 2; stroke-dasharray: 20 8 4 8; stroke: #000000" x1="248.866" y1="940.922" x2="292.966" y2="940.922"/>
    <line style="fill: none; fill-opacity:0; stroke-width: 2; stroke-dasharray: 20 8 4 8; stroke: #000000" x1="248.866" y1="978.922" x2="292.966" y2="978.922"/>
    <path style="fill: none; fill-opacity:0; stroke-width: 2; stroke-dasharray: 20 8 4 8; stroke: #000000" d="M 248.866,940.922 A 8,8 0 0 0 240.866,948.922"/>
    <path style="fill: none; fill-opacity:0; stroke-width: 2; stroke-dasharray: 20 8 4 8; stroke: #000000" d="M 300.966,948.922 A 8,8 0 0 0 292.966,940.922"/>
    <line style="fill: none; fill-opacity:0; stroke-width: 2; stroke-dasharray: 20 8 4 8; stroke: #000000" x1="240.866" y1="948.922" x2="240.866" y2="970.922"/>
    <line style="fill: none; fill-opacity:0; stroke-width: 2; stroke-dasharray: 20 8 4 8; stroke: #000000" x1="300.966" y1="948.922" x2="300.966" y2="970.922"/>
    <path style="fill: none; fill-opacity:0; stroke-width: 2; stroke-dasharray: 20 8 4 8; stroke: #000000" d="M 240.866,970.922 A 8,8 0 0 0 248.866,978.922"/>
    <path style="fill: none; fill-opacity:0; stroke-width: 2; stroke-dasharray: 20 8 4 8; stroke: #000000" d="M 292.966,978.922 A 8,8 0 0 0 300.966,970.922"/>
    <text style="fill: #000000;text-anchor:middle;font-size:12.8;font-family:sanserif;font-style:normal;font-weight:700" x="270.916" y="963.822">
      <tspan x="270.916" y="963.822">State</tspan>
    </text>
  </g>
  <g>
    <rect style="fill: #ffffff" x="241.34" y="994.672" width="69.15" height="38"/>
    <rect style="fill: none; fill-opacity:0; stroke-width: 2; stroke: #000000" x="241.34" y="994.672" width="69.15" height="38"/>
    <text style="fill: #000000;text-anchor:middle;font-size:12.8;font-family:sanserif;font-style:normal;font-weight:normal" x="275.915" y="1017.57">
      <tspan x="275.915" y="1017.57">Activity</tspan>
    </text>
  </g>
  <g>
    <polygon style="fill: #ffffff" points="388.415,964.814 428.628,984.921 388.415,1005.03 348.202,984.921 "/>
    <polygon style="fill: none; fill-opacity:0; stroke-width: 2; stroke: #000000" points="388.415,964.814 428.628,984.921 388.415,1005.03 348.202,984.921 "/>
    <text style="fill: #000000;text-anchor:middle;font-size:12.8;font-family:sanserif;font-style:normal;font-weight:normal" x="388.415" y="988.821">
      <tspan x="388.415" y="988.821"></tspan>
    </text>
  </g>
  <text style="fill: #000000;text-anchor:start;font-size:12.8;font-family:sanserif;font-style:normal;font-weight:normal" x="438.416" y="972.422">
    <tspan x="438.416" y="972.422">Policy</tspan>
    <tspan x="438.416" y="988.422">expression</tspan>
    <tspan x="438.416" y="1004.42">evaluation</tspan>
  </text>
  <g>
    <line style="fill: none; fill-opacity:0; stroke-width: 2; stroke: #000000" x1="298.69" y1="705.922" x2="310.47" y2="666.991"/>
    <polygon style="fill: #000000" points="312.642,659.812 314.532,670.832 310.47,666.991 304.96,667.936 "/>
    <polygon style="fill: none; fill-opacity:0; stroke-width: 2; stroke: #000000" points="312.642,659.812 314.532,670.832 310.47,666.991 304.96,667.936 "/>
  </g>
  <g>
    <line style="fill: none; fill-opacity:0; stroke-width: 2; stroke: #000000" x1="919.666" y1="734.672" x2="587.752" y2="636.435"/>
    <polygon style="fill: #000000" points="580.56,634.307 591.568,632.35 587.752,636.435 588.73,641.939 "/>
    <polygon style="fill: none; fill-opacity:0; stroke-width: 2; stroke: #000000" points="580.56,634.307 591.568,632.35 587.752,636.435 588.73,641.939 "/>
  </g>
  <g>
    <line style="fill: none; fill-opacity:0; stroke-width: 2; stroke: #000000" x1="839.666" y1="879.672" x2="930.006" y2="779.889"/>
    <polygon style="fill: #000000" points="935.039,774.33 932.034,785.099 930.006,779.889 924.621,778.387 "/>
    <polygon style="fill: none; fill-opacity:0; stroke-width: 2; stroke: #000000" points="935.039,774.33 932.034,785.099 930.006,779.889 924.621,778.387 "/>
  </g>
  <g>
    <line style="fill: none; fill-opacity:0; stroke-width: 2; stroke: #000000" x1="970.29" y1="734.672" x2="1007.93" y2="591.327"/>
    <polygon style="fill: #000000" points="1009.84,584.073 1012.13,595.015 1007.93,591.327 1002.46,592.475 "/>
    <polygon style="fill: none; fill-opacity:0; stroke-width: 2; stroke: #000000" points="1009.84,584.073 1012.13,595.015 1007.93,591.327 1002.46,592.475 "/>
  </g>
  <g>
    <line style="fill: none; fill-opacity:0; stroke-width: 2; stroke: #000000" x1="602.166" y1="788.672" x2="909.989" y2="754.739"/>
    <polygon style="fill: #000000" points="917.443,753.917 908.051,759.983 909.989,754.739 906.956,750.043 "/>
    <polygon style="fill: none; fill-opacity:0; stroke-width: 2; stroke: #000000" points="917.443,753.917 908.051,759.983 909.989,754.739 906.956,750.043 "/>
  </g>
  <g>
    <line style="fill: none; fill-opacity:0; stroke-width: 2; stroke: #000000" x1="1034.3" y1="270.6" x2="1060.97" y2="319.57"/>
    <polygon style="fill: #000000" points="1064.56,326.156 1055.38,319.766 1060.97,319.57 1064.17,314.983 "/>
    <polygon style="fill: none; fill-opacity:0; stroke-width: 2; stroke: #000000" points="1064.56,326.156 1055.38,319.766 1060.97,319.57 1064.17,314.983 "/>
  </g>
  <g>
    <line style="fill: none; fill-opacity:0; stroke-width: 2; stroke: #000000" x1="716.86" y1="436.652" x2="581.645" y2="325.936"/>
    <polygon style="fill: #000000" points="575.842,321.185 586.747,323.651 581.645,325.936 580.412,331.389 "/>
    <polygon style="fill: none; fill-opacity:0; stroke-width: 2; stroke: #000000" points="575.842,321.185 586.747,323.651 581.645,325.936 580.412,331.389 "/>
  </g>
  <g>
    <line style="fill: none; fill-opacity:0; stroke-width: 2; stroke: #000000" x1="853.416" y1="1001.17" x2="891.18" y2="1001.17"/>
    <polygon style="fill: #000000" points="898.68,1001.17 888.68,1006.17 891.18,1001.17 888.68,996.172 "/>
    <polygon style="fill: none; fill-opacity:0; stroke-width: 2; stroke: #000000" points="898.68,1001.17 888.68,1006.17 891.18,1001.17 888.68,996.172 "/>
  </g>
  <g>
    <line style="fill: none; fill-opacity:0; stroke-width: 2; stroke: #000000" x1="920.916" y1="982.172" x2="865.191" y2="924.664"/>
    <polygon style="fill: #000000" points="859.972,919.278 870.522,922.98 865.191,924.664 863.34,929.939 "/>
    <polygon style="fill: none; fill-opacity:0; stroke-width: 2; stroke: #000000" points="859.972,919.278 870.522,922.98 865.191,924.664 863.34,929.939 "/>
  </g>
  <g>
    <line style="fill: none; fill-opacity:0; stroke-width: 2; stroke: #000000" x1="836.54" y1="982.172" x2="839.195" y2="927.397"/>
    <polygon style="fill: #000000" points="839.558,919.905 844.068,930.136 839.195,927.397 834.08,929.652 "/>
    <polygon style="fill: none; fill-opacity:0; stroke-width: 2; stroke: #000000" points="839.558,919.905 844.068,930.136 839.195,927.397 834.08,929.652 "/>
  </g>
  <g>
    <line style="fill: none; fill-opacity:0; stroke-width: 2; stroke: #000000" x1="802.166" y1="917.672" x2="802.696" y2="972.436"/>
    <polygon style="fill: #000000" points="802.768,979.936 797.672,969.985 802.696,972.436 807.671,969.888 "/>
    <polygon style="fill: none; fill-opacity:0; stroke-width: 2; stroke: #000000" points="802.768,979.936 797.672,969.985 802.696,972.436 807.671,969.888 "/>
  </g>
  <g>
    <line style="fill: none; fill-opacity:0; stroke-width: 2; stroke: #000000" x1="802.166" y1="879.672" x2="585.251" y2="659.606"/>
    <polygon style="fill: #000000" points="579.986,654.264 590.567,657.876 585.251,659.606 583.445,664.896 "/>
    <polygon style="fill: none; fill-opacity:0; stroke-width: 2; stroke: #000000" points="579.986,654.264 590.567,657.876 585.251,659.606 583.445,664.896 "/>
  </g>
  <g>
    <path style="fill: none; fill-opacity:0; stroke-width: 2; stroke: #000000" d="M 919.542,271.668 A 172.647,172.647 0 0 0 770.788,436.652"/>
    <polygon style="fill: #000000" points="926.979,270.783 917.422,276.584 919.505,271.396 916.604,266.618 "/>
    <polygon style="fill: none; fill-opacity:0; stroke-width: 2; stroke: #000000" points="926.979,270.783 917.422,276.584 919.505,271.396 916.604,266.618 "/>
  </g>
  <g>
    <path style="fill: none; fill-opacity:0; stroke-width: 2; stroke: #000000" d="M 929.208,251.6 A 168.942,168.942 0 0 0 743.124,426.953"/>
    <polygon style="fill: #000000" points="743.599,434.427 737.618,424.981 742.844,426.965 747.568,423.975 "/>
    <polygon style="fill: none; fill-opacity:0; stroke-width: 2; stroke: #000000" points="743.599,434.427 737.618,424.981 742.844,426.965 747.568,423.975 "/>
  </g>
  <g>
    <path style="fill: none; fill-opacity:0; stroke-width: 2; stroke: #000000" d="M 560.15,341.602 A 376.487,376.487 0 0 0 940.026,543.91"/>
    <polygon style="fill: #000000" points="556.795,334.896 565.627,341.751 560.038,341.659 556.61,346.075 "/>
    <polygon style="fill: none; fill-opacity:0; stroke-width: 2; stroke: #000000" points="556.795,334.896 565.627,341.751 560.038,341.659 556.61,346.075 "/>
  </g>
  <g>
    <path style="fill: none; fill-opacity:0; stroke-width: 2; stroke: #000000" d="M 389.25,387 A 802.82,802.82 0 0 0 930.294,582.165"/>
    <polygon style="fill: #000000" points="937.791,581.982 927.958,587.302 930.295,582.224 927.635,577.308 "/>
    <polygon style="fill: none; fill-opacity:0; stroke-width: 2; stroke: #000000" points="937.791,581.982 927.958,587.302 930.295,582.224 927.635,577.308 "/>
  </g>
  <g>
    <path style="fill: none; fill-opacity:0; stroke-width: 2; stroke: #000000" d="M 858.416,898.672 A 181.691,181.691 0 0 0 1041.8,587.533"/>
    <polygon style="fill: #000000" points="1035.72,583.154 1046.81,584.559 1041.95,587.325 1041.25,592.87 "/>
    <polygon style="fill: none; fill-opacity:0; stroke-width: 2; stroke: #000000" points="1035.72,583.154 1046.81,584.559 1041.95,587.325 1041.25,592.87 "/>
  </g>
  <g>
    <line style="fill: none; fill-opacity:0; stroke-width: 2; stroke: #000000" x1="602.166" y1="788.672" x2="955.036" y2="586.746"/>
    <polygon style="fill: #000000" points="961.545,583.021 955.349,592.327 955.036,586.746 950.382,583.648 "/>
    <polygon style="fill: none; fill-opacity:0; stroke-width: 2; stroke: #000000" points="961.545,583.021 955.349,592.327 955.036,586.746 950.382,583.648 "/>
  </g>
  <g>
    <path style="fill: none; fill-opacity:0; stroke-width: 2; stroke: #000000" d="M 392.5,255 A 626.459,626.459 0 0 0 930.291,562.96"/>
    <polygon style="fill: #000000" points="937.79,562.939 927.855,568.067 930.291,563.035 927.727,558.068 "/>
    <polygon style="fill: none; fill-opacity:0; stroke-width: 2; stroke: #000000" points="937.79,562.939 927.855,568.067 930.291,563.035 927.727,558.068 "/>
  </g>
  <g>
    <path style="fill: none; fill-opacity:0; stroke-width: 2; stroke: #000000" d="M 797.754,474.652 A 40.6647,40.6647 0 0 0 857.346,499.893"/>
    <polygon style="fill: #000000" points="863.381,495.754 859.52,506.246 857.917,500.891 852.67,498.961 "/>
    <polygon style="fill: none; fill-opacity:0; stroke-width: 2; stroke: #000000" points="863.381,495.754 859.52,506.246 857.917,500.891 852.67,498.961 "/>
  </g>
  <g>
    <path style="fill: none; fill-opacity:0; stroke-width: 2; stroke: #000000" d="M 331.75,387 A 200.275,200.275 0 0 0 504.988,613.689"/>
    <polygon style="fill: #000000" points="512.437,614.5 502.082,618.717 504.959,613.924 502.85,608.746 "/>
    <polygon style="fill: none; fill-opacity:0; stroke-width: 2; stroke: #000000" points="512.437,614.5 502.082,618.717 504.959,613.924 502.85,608.746 "/>
  </g>
  <text style="fill: #000000;text-anchor:start;font-size:12.8;font-family:sanserif;font-style:normal;font-weight:normal" x="929.828" y="407.086">
    <tspan x="929.828" y="407.086"></tspan>
  </text>
  <text style="fill: #000000;text-anchor:start;font-size:12.8;font-family:sanserif;font-style:normal;font-weight:normal" x="929.828" y="407.086">
    <tspan x="929.828" y="407.086"></tspan>
  </text>
  <text style="fill: #000000;text-anchor:start;font-size:12.8;font-family:sanserif;font-style:normal;font-weight:normal" x="785.088" y="495.9">
    <tspan x="785.088" y="495.9">19</tspan>
  </text>
  <text style="fill: #000000;text-anchor:start;font-size:12.8;font-family:sanserif;font-style:normal;font-weight:normal" x="634.932" y="435.332">
    <tspan x="634.932" y="435.332">10</tspan>
  </text>
  <text style="fill: #000000;text-anchor:start;font-size:12.8;font-family:sanserif;font-style:normal;font-weight:normal" x="525.156" y="439.118">
    <tspan x="525.156" y="439.118">23</tspan>
  </text>
  <text style="fill: #000000;text-anchor:start;font-size:12.8;font-family:sanserif;font-style:normal;font-weight:normal" x="1219.15" y="555.204">
    <tspan x="1219.15" y="555.204"></tspan>
  </text>
  <text style="fill: #000000;text-anchor:start;font-size:12.8;font-family:sanserif;font-style:normal;font-weight:normal" x="642.504" y="372.242">
    <tspan x="642.504" y="372.242">18</tspan>
  </text>
  <text style="fill: #000000;text-anchor:start;font-size:12.8;font-family:sanserif;font-style:normal;font-weight:normal" x="816.632" y="344.482">
    <tspan x="816.632" y="344.482">20</tspan>
  </text>
  <text style="fill: #000000;text-anchor:start;font-size:12.8;font-family:sanserif;font-style:normal;font-weight:normal" x="777.516" y="296.534">
    <tspan x="777.516" y="296.534">16</tspan>
  </text>
  <text style="fill: #000000;text-anchor:start;font-size:12.8;font-family:sanserif;font-style:normal;font-weight:normal" x="1057.64" y="297.796">
    <tspan x="1057.64" y="297.796">15</tspan>
  </text>
  <text style="fill: #000000;text-anchor:start;font-size:12.8;font-family:sanserif;font-style:normal;font-weight:normal" x="542.82" y="484.542">
    <tspan x="542.82" y="484.542">24</tspan>
  </text>
  <ellipse style="fill: none; fill-opacity:0; stroke-width: 2; stroke-dasharray: 8; stroke: #000000" cx="479.1" cy="536.182" rx="48.5796" ry="25.1417"/>
  <g>
    <line style="fill: none; fill-opacity:0; stroke-width: 2; stroke: #000000" x1="479.1" y1="561.324" x2="507.053" y2="585.981"/>
    <polygon style="fill: #000000" points="512.677,590.943 501.87,588.077 507.053,585.981 508.485,580.578 "/>
    <polygon style="fill: none; fill-opacity:0; stroke-width: 2; stroke: #000000" points="512.677,590.943 501.87,588.077 507.053,585.981 508.485,580.578 "/>
  </g>
  <text style="fill: #000000;text-anchor:start;font-size:12.8;font-family:sanserif;font-style:normal;font-weight:normal" x="460.802" y="540.062">
    <tspan x="460.802" y="540.062">Start</tspan>
  </text>
  <text style="fill: #000000;text-anchor:start;font-size:12.8;font-family:sanserif;font-style:normal;font-weight:normal" x="338.408" y="465.616">
    <tspan x="338.408" y="465.616">25</tspan>
  </text>
  <text style="fill: #000000;text-anchor:start;font-size:12.8;font-family:sanserif;font-style:normal;font-weight:normal" x="266.484" y="464.354">
    <tspan x="266.484" y="464.354">22</tspan>
  </text>
  <text style="fill: #000000;text-anchor:start;font-size:12.8;font-family:sanserif;font-style:normal;font-weight:normal" x="448.184" y="261.202">
    <tspan x="448.184" y="261.202">yes</tspan>
  </text>
  <text style="fill: #000000;text-anchor:start;font-size:12.8;font-family:sanserif;font-style:normal;font-weight:normal" x="433.044" y="357.1">
    <tspan x="433.044" y="357.1">no</tspan>
  </text>
  <text style="fill: #000000;text-anchor:start;font-size:12.8;font-family:sanserif;font-style:normal;font-weight:normal" x="367.43" y="287.7">
    <tspan x="367.43" y="287.7">21</tspan>
  </text>
  <text style="fill: #000000;text-anchor:start;font-size:12.8;font-family:sanserif;font-style:normal;font-weight:normal" x="783.116" y="949.738">
    <tspan x="783.116" y="949.738">26</tspan>
  </text>
  <text style="fill: #000000;text-anchor:start;font-size:12.8;font-family:sanserif;font-style:normal;font-weight:normal" x="845.284" y="961.468">
    <tspan x="845.284" y="961.468">27</tspan>
  </text>
  <text style="fill: #000000;text-anchor:start;font-size:12.8;font-family:sanserif;font-style:normal;font-weight:normal" x="894.55" y="947.392">
    <tspan x="894.55" y="947.392">29</tspan>
  </text>
  <text style="fill: #000000;text-anchor:start;font-size:12.8;font-family:sanserif;font-style:normal;font-weight:normal" x="867.57" y="1017.77">
    <tspan x="867.57" y="1017.77">28</tspan>
  </text>
  <text style="fill: #000000;text-anchor:start;font-size:12.8;font-family:sanserif;font-style:normal;font-weight:normal" x="932.084" y="906.338">
    <tspan x="932.084" y="906.338">31</tspan>
  </text>
  <text style="fill: #000000;text-anchor:start;font-size:12.8;font-family:sanserif;font-style:normal;font-weight:normal" x="866.398" y="825.404">
    <tspan x="866.398" y="825.404">32</tspan>
  </text>
  <text style="fill: #000000;text-anchor:start;font-size:12.8;font-family:sanserif;font-style:normal;font-weight:normal" x="749.1" y="814.848">
    <tspan x="749.1" y="814.848">30</tspan>
  </text>
  <text style="fill: #000000;text-anchor:start;font-size:12.8;font-family:sanserif;font-style:normal;font-weight:normal" x="677.55" y="826.576">
    <tspan x="677.55" y="826.576">7</tspan>
  </text>
  <text style="fill: #000000;text-anchor:start;font-size:12.8;font-family:sanserif;font-style:normal;font-weight:normal" x="751.446" y="763.236">
    <tspan x="751.446" y="763.236">6</tspan>
  </text>
  <text style="fill: #000000;text-anchor:start;font-size:12.8;font-family:sanserif;font-style:normal;font-weight:normal" x="704.528" y="721.01">
    <tspan x="704.528" y="721.01">5</tspan>
  </text>
  <text style="fill: #000000;text-anchor:start;font-size:12.7998;font-family:sanserif;font-style:normal;font-weight:normal" x="538.912" y="719.214">
    <tspan x="538.912" y="719.214">2</tspan>
  </text>
  <text style="fill: #000000;text-anchor:start;font-size:12.7998;font-family:sanserif;font-style:normal;font-weight:normal" x="538.912" y="830.875">
    <tspan x="538.912" y="830.875">3</tspan>
  </text>
  <text style="fill: #000000;text-anchor:start;font-size:12.7998;font-family:sanserif;font-style:normal;font-weight:normal" x="578.259" y="718.15">
    <tspan x="578.259" y="718.15">1</tspan>
  </text>
  <text style="fill: #000000;text-anchor:start;font-size:12.7998;font-family:sanserif;font-style:normal;font-weight:normal" x="593.147" y="833.002">
    <tspan x="593.147" y="833.002">4</tspan>
  </text>
  <text style="fill: #000000;text-anchor:start;font-size:12.7998;font-family:sanserif;font-style:normal;font-weight:normal" x="841.992" y="704.326">
    <tspan x="841.992" y="704.326">8</tspan>
  </text>
  <text style="fill: #000000;text-anchor:start;font-size:12.7998;font-family:sanserif;font-style:normal;font-weight:normal" x="978.112" y="659.661">
    <tspan x="978.112" y="659.661">9</tspan>
  </text>
  <text style="fill: #000000;text-anchor:start;font-size:12.7998;font-family:sanserif;font-style:normal;font-weight:normal" x="391.094" y="633.075">
    <tspan x="391.094" y="633.075">34</tspan>
  </text>
  <text style="fill: #000000;text-anchor:start;font-size:12.7998;font-family:sanserif;font-style:normal;font-weight:normal" x="394.284" y="685.184">
    <tspan x="394.284" y="685.184">35</tspan>
  </text>
  <text style="fill: #000000;text-anchor:start;font-size:12.7998;font-family:sanserif;font-style:normal;font-weight:normal" x="427.251" y="716.023">
    <tspan x="427.251" y="716.023">36</tspan>
  </text>
  <text style="fill: #000000;text-anchor:start;font-size:12.7998;font-family:sanserif;font-style:normal;font-weight:normal" x="397.475" y="756.434">
    <tspan x="397.475" y="756.434">37</tspan>
  </text>
  <text style="fill: #000000;text-anchor:start;font-size:12.7998;font-family:sanserif;font-style:normal;font-weight:normal" x="312.399" y="688.374">
    <tspan x="312.399" y="688.374">33</tspan>
  </text>
</svg>
