<?xml version="1.0" encoding="UTF-8" standalone="no"?>
<!DOCTYPE svg PUBLIC "-//W3C//DTD SVG 1.0//EN" "http://www.w3.org/TR/2001/PR-SVG-20010719/DTD/svg10.dtd">
<svg width="32cm" height="17cm" viewBox="469 -111 632 322" xmlns="http://www.w3.org/2000/svg" xmlns:xlink="http://www.w3.org/1999/xlink">
  <g>
    <rect style="fill: #ffffff" x="622.6" y="-109.3" width="111" height="38"/>
    <path style="fill: #ffffff" d="M 622.6,-109.3 A 8,8 0 0 0 614.6,-101.3 L 622.6,-101.3 z"/>
    <path style="fill: #ffffff" d="M 741.6,-101.3 A 8,8 0 0 0 733.6,-109.3 L 733.6,-101.3 z"/>
    <rect style="fill: #ffffff" x="614.6" y="-101.3" width="127" height="22"/>
    <path style="fill: #ffffff" d="M 614.6,-79.3 A 8,8 0 0 0 622.6,-71.3 L 622.6,-79.3 z"/>
    <path style="fill: #ffffff" d="M 733.6,-71.3 A 8,8 0 0 0 741.6,-79.3 L 733.6,-79.3 z"/>
    <line style="fill: none; fill-opacity:0; stroke-width: 2; stroke: #000000" x1="622.6" y1="-109.3" x2="733.6" y2="-109.3"/>
    <line style="fill: none; fill-opacity:0; stroke-width: 2; stroke: #000000" x1="622.6" y1="-71.3" x2="733.6" y2="-71.3"/>
    <path style="fill: none; fill-opacity:0; stroke-width: 2; stroke: #000000" d="M 622.6,-109.3 A 8,8 0 0 0 614.6,-101.3"/>
    <path style="fill: none; fill-opacity:0; stroke-width: 2; stroke: #000000" d="M 741.6,-101.3 A 8,8 0 0 0 733.6,-109.3"/>
    <line style="fill: none; fill-opacity:0; stroke-width: 2; stroke: #000000" x1="614.6" y1="-101.3" x2="614.6" y2="-79.3"/>
    <line style="fill: none; fill-opacity:0; stroke-width: 2; stroke: #000000" x1="741.6" y1="-101.3" x2="741.6" y2="-79.3"/>
    <path style="fill: none; fill-opacity:0; stroke-width: 2; stroke: #000000" d="M 614.6,-79.3 A 8,8 0 0 0 622.6,-71.3"/>
    <path style="fill: none; fill-opacity:0; stroke-width: 2; stroke: #000000" d="M 733.6,-71.3 A 8,8 0 0 0 741.6,-79.3"/>
    <text style="fill: #000000;text-anchor:middle;font-size:12.8;font-family:sanserif;font-style:normal;font-weight:normal" x="678.1" y="-86.4">
      <tspan x="678.1" y="-86.4">Preempting</tspan>
    </text>
  </g>
  <g>
    <rect style="fill: #ffffff" x="886.7" y="-53.6" width="106.9" height="38"/>
    <path style="fill: #ffffff" d="M 886.7,-53.6 A 8,8 0 0 0 878.7,-45.6 L 886.7,-45.6 z"/>
    <path style="fill: #ffffff" d="M 1001.6,-45.6 A 8,8 0 0 0 993.6,-53.6 L 993.6,-45.6 z"/>
    <rect style="fill: #ffffff" x="878.7" y="-45.6" width="122.9" height="22"/>
    <path style="fill: #ffffff" d="M 878.7,-23.6 A 8,8 0 0 0 886.7,-15.6 L 886.7,-23.6 z"/>
    <path style="fill: #ffffff" d="M 993.6,-15.6 A 8,8 0 0 0 1001.6,-23.6 L 993.6,-23.6 z"/>
    <line style="fill: none; fill-opacity:0; stroke-width: 2; stroke: #000000" x1="886.7" y1="-53.6" x2="993.6" y2="-53.6"/>
    <line style="fill: none; fill-opacity:0; stroke-width: 2; stroke: #000000" x1="886.7" y1="-15.6" x2="993.6" y2="-15.6"/>
    <path style="fill: none; fill-opacity:0; stroke-width: 2; stroke: #000000" d="M 886.7,-53.6 A 8,8 0 0 0 878.7,-45.6"/>
    <path style="fill: none; fill-opacity:0; stroke-width: 2; stroke: #000000" d="M 1001.6,-45.6 A 8,8 0 0 0 993.6,-53.6"/>
    <line style="fill: none; fill-opacity:0; stroke-width: 2; stroke: #000000" x1="878.7" y1="-45.6" x2="878.7" y2="-23.6"/>
    <line style="fill: none; fill-opacity:0; stroke-width: 2; stroke: #000000" x1="1001.6" y1="-45.6" x2="1001.6" y2="-23.6"/>
    <path style="fill: none; fill-opacity:0; stroke-width: 2; stroke: #000000" d="M 878.7,-23.6 A 8,8 0 0 0 886.7,-15.6"/>
    <path style="fill: none; fill-opacity:0; stroke-width: 2; stroke: #000000" d="M 993.6,-15.6 A 8,8 0 0 0 1001.6,-23.6"/>
    <text style="fill: #000000;text-anchor:middle;font-size:12.8;font-family:sanserif;font-style:normal;font-weight:normal" x="940.15" y="-30.7">
      <tspan x="940.15" y="-30.7">Claimed</tspan>
    </text>
  </g>
  <g>
    <rect style="fill: #ffffff" x="976.8" y="59.1" width="114.8" height="38"/>
    <path style="fill: #ffffff" d="M 976.8,59.1 A 8,8 0 0 0 968.8,67.1 L 976.8,67.1 z"/>
    <path style="fill: #ffffff" d="M 1099.6,67.1 A 8,8 0 0 0 1091.6,59.1 L 1091.6,67.1 z"/>
    <rect style="fill: #ffffff" x="968.8" y="67.1" width="130.8" height="22"/>
    <path style="fill: #ffffff" d="M 968.8,89.1 A 8,8 0 0 0 976.8,97.1 L 976.8,89.1 z"/>
    <path style="fill: #ffffff" d="M 1091.6,97.1 A 8,8 0 0 0 1099.6,89.1 L 1091.6,89.1 z"/>
    <line style="fill: none; fill-opacity:0; stroke-width: 2; stroke: #000000" x1="976.8" y1="59.1" x2="1091.6" y2="59.1"/>
    <line style="fill: none; fill-opacity:0; stroke-width: 2; stroke: #000000" x1="976.8" y1="97.1" x2="1091.6" y2="97.1"/>
    <path style="fill: none; fill-opacity:0; stroke-width: 2; stroke: #000000" d="M 976.8,59.1 A 8,8 0 0 0 968.8,67.1"/>
    <path style="fill: none; fill-opacity:0; stroke-width: 2; stroke: #000000" d="M 1099.6,67.1 A 8,8 0 0 0 1091.6,59.1"/>
    <line style="fill: none; fill-opacity:0; stroke-width: 2; stroke: #000000" x1="968.8" y1="67.1" x2="968.8" y2="89.1"/>
    <line style="fill: none; fill-opacity:0; stroke-width: 2; stroke: #000000" x1="1099.6" y1="67.1" x2="1099.6" y2="89.1"/>
    <path style="fill: none; fill-opacity:0; stroke-width: 2; stroke: #000000" d="M 968.8,89.1 A 8,8 0 0 0 976.8,97.1"/>
    <path style="fill: none; fill-opacity:0; stroke-width: 2; stroke: #000000" d="M 1091.6,97.1 A 8,8 0 0 0 1099.6,89.1"/>
    <text style="fill: #000000;text-anchor:middle;font-size:12.8;font-family:sanserif;font-style:normal;font-weight:normal" x="1034.2" y="82">
      <tspan x="1034.2" y="82">Matched</tspan>
    </text>
  </g>
  <g>
    <rect style="fill: #ffffff" x="564.9" y="10.8" width="106.7" height="38"/>
    <path style="fill: #ffffff" d="M 564.9,10.8 A 8,8 0 0 0 556.9,18.8 L 564.9,18.8 z"/>
    <path style="fill: #ffffff" d="M 679.6,18.8 A 8,8 0 0 0 671.6,10.8 L 671.6,18.8 z"/>
    <rect style="fill: #ffffff" x="556.9" y="18.8" width="122.7" height="22"/>
    <path style="fill: #ffffff" d="M 556.9,40.8 A 8,8 0 0 0 564.9,48.8 L 564.9,40.8 z"/>
    <path style="fill: #ffffff" d="M 671.6,48.8 A 8,8 0 0 0 679.6,40.8 L 671.6,40.8 z"/>
    <line style="fill: none; fill-opacity:0; stroke-width: 2; stroke: #000000" x1="564.9" y1="10.8" x2="671.6" y2="10.8"/>
    <line style="fill: none; fill-opacity:0; stroke-width: 2; stroke: #000000" x1="564.9" y1="48.8" x2="671.6" y2="48.8"/>
    <path style="fill: none; fill-opacity:0; stroke-width: 2; stroke: #000000" d="M 564.9,10.8 A 8,8 0 0 0 556.9,18.8"/>
    <path style="fill: none; fill-opacity:0; stroke-width: 2; stroke: #000000" d="M 679.6,18.8 A 8,8 0 0 0 671.6,10.8"/>
    <line style="fill: none; fill-opacity:0; stroke-width: 2; stroke: #000000" x1="556.9" y1="18.8" x2="556.9" y2="40.8"/>
    <line style="fill: none; fill-opacity:0; stroke-width: 2; stroke: #000000" x1="679.6" y1="18.8" x2="679.6" y2="40.8"/>
    <path style="fill: none; fill-opacity:0; stroke-width: 2; stroke: #000000" d="M 556.9,40.8 A 8,8 0 0 0 564.9,48.8"/>
    <path style="fill: none; fill-opacity:0; stroke-width: 2; stroke: #000000" d="M 671.6,48.8 A 8,8 0 0 0 679.6,40.8"/>
    <text style="fill: #000000;text-anchor:middle;font-size:12.8;font-family:sanserif;font-style:normal;font-weight:normal" x="618.25" y="33.7">
      <tspan x="618.25" y="33.7">Owner</tspan>
    </text>
  </g>
  <g>
    <rect style="fill: #ffffff" x="636.992" y="92.376" width="106.257" height="38"/>
    <path style="fill: #ffffff" d="M 636.992,92.376 A 8,8 0 0 0 628.992,100.376 L 636.992,100.376 z"/>
    <path style="fill: #ffffff" d="M 751.249,100.376 A 8,8 0 0 0 743.249,92.376 L 743.249,100.376 z"/>
    <rect style="fill: #ffffff" x="628.992" y="100.376" width="122.257" height="22"/>
    <path style="fill: #ffffff" d="M 628.992,122.376 A 8,8 0 0 0 636.992,130.376 L 636.992,122.376 z"/>
    <path style="fill: #ffffff" d="M 743.249,130.376 A 8,8 0 0 0 751.249,122.376 L 743.249,122.376 z"/>
    <line style="fill: none; fill-opacity:0; stroke-width: 2; stroke: #000000" x1="636.992" y1="92.376" x2="743.249" y2="92.376"/>
    <line style="fill: none; fill-opacity:0; stroke-width: 2; stroke: #000000" x1="636.992" y1="130.376" x2="743.249" y2="130.376"/>
    <path style="fill: none; fill-opacity:0; stroke-width: 2; stroke: #000000" d="M 636.992,92.376 A 8,8 0 0 0 628.992,100.376"/>
    <path style="fill: none; fill-opacity:0; stroke-width: 2; stroke: #000000" d="M 751.249,100.376 A 8,8 0 0 0 743.249,92.376"/>
    <line style="fill: none; fill-opacity:0; stroke-width: 2; stroke: #000000" x1="628.992" y1="100.376" x2="628.992" y2="122.376"/>
    <line style="fill: none; fill-opacity:0; stroke-width: 2; stroke: #000000" x1="751.249" y1="100.376" x2="751.249" y2="122.376"/>
    <path style="fill: none; fill-opacity:0; stroke-width: 2; stroke: #000000" d="M 628.992,122.376 A 8,8 0 0 0 636.992,130.376"/>
    <path style="fill: none; fill-opacity:0; stroke-width: 2; stroke: #000000" d="M 743.249,130.376 A 8,8 0 0 0 751.249,122.376"/>
    <text style="fill: #000000;text-anchor:middle;font-size:12.8;font-family:sanserif;font-style:normal;font-weight:normal" x="690.12" y="115.276">
      <tspan x="690.12" y="115.276">Unclaimed</tspan>
    </text>
  </g>
  <g>
    <rect style="fill: #ffffff" x="830.1" y="172.2" width="103.5" height="38"/>
    <path style="fill: #ffffff" d="M 830.1,172.2 A 8,8 0 0 0 822.1,180.2 L 830.1,180.2 z"/>
    <path style="fill: #ffffff" d="M 941.6,180.2 A 8,8 0 0 0 933.6,172.2 L 933.6,180.2 z"/>
    <rect style="fill: #ffffff" x="822.1" y="180.2" width="119.5" height="22"/>
    <path style="fill: #ffffff" d="M 822.1,202.2 A 8,8 0 0 0 830.1,210.2 L 830.1,202.2 z"/>
    <path style="fill: #ffffff" d="M 933.6,210.2 A 8,8 0 0 0 941.6,202.2 L 933.6,202.2 z"/>
    <line style="fill: none; fill-opacity:0; stroke-width: 2; stroke: #000000" x1="830.1" y1="172.2" x2="933.6" y2="172.2"/>
    <line style="fill: none; fill-opacity:0; stroke-width: 2; stroke: #000000" x1="830.1" y1="210.2" x2="933.6" y2="210.2"/>
    <path style="fill: none; fill-opacity:0; stroke-width: 2; stroke: #000000" d="M 830.1,172.2 A 8,8 0 0 0 822.1,180.2"/>
    <path style="fill: none; fill-opacity:0; stroke-width: 2; stroke: #000000" d="M 941.6,180.2 A 8,8 0 0 0 933.6,172.2"/>
    <line style="fill: none; fill-opacity:0; stroke-width: 2; stroke: #000000" x1="822.1" y1="180.2" x2="822.1" y2="202.2"/>
    <line style="fill: none; fill-opacity:0; stroke-width: 2; stroke: #000000" x1="941.6" y1="180.2" x2="941.6" y2="202.2"/>
    <path style="fill: none; fill-opacity:0; stroke-width: 2; stroke: #000000" d="M 822.1,202.2 A 8,8 0 0 0 830.1,210.2"/>
    <path style="fill: none; fill-opacity:0; stroke-width: 2; stroke: #000000" d="M 933.6,210.2 A 8,8 0 0 0 941.6,202.2"/>
    <text style="fill: #000000;text-anchor:middle;font-size:12.8;font-family:sanserif;font-style:normal;font-weight:normal" x="881.85" y="195.1">
      <tspan x="881.85" y="195.1">Backfill</tspan>
    </text>
  </g>
  <g>
    <rect style="fill: #ffffff" x="478.2" y="159.9" width="93.4" height="38"/>
    <path style="fill: #ffffff" d="M 478.2,159.9 A 8,8 0 0 0 470.2,167.9 L 478.2,167.9 z"/>
    <path style="fill: #ffffff" d="M 579.6,167.9 A 8,8 0 0 0 571.6,159.9 L 571.6,167.9 z"/>
    <rect style="fill: #ffffff" x="470.2" y="167.9" width="109.4" height="22"/>
    <path style="fill: #ffffff" d="M 470.2,189.9 A 8,8 0 0 0 478.2,197.9 L 478.2,189.9 z"/>
    <path style="fill: #ffffff" d="M 571.6,197.9 A 8,8 0 0 0 579.6,189.9 L 571.6,189.9 z"/>
    <line style="fill: none; fill-opacity:0; stroke-width: 2; stroke: #000000" x1="478.2" y1="159.9" x2="571.6" y2="159.9"/>
    <line style="fill: none; fill-opacity:0; stroke-width: 2; stroke: #000000" x1="478.2" y1="197.9" x2="571.6" y2="197.9"/>
    <path style="fill: none; fill-opacity:0; stroke-width: 2; stroke: #000000" d="M 478.2,159.9 A 8,8 0 0 0 470.2,167.9"/>
    <path style="fill: none; fill-opacity:0; stroke-width: 2; stroke: #000000" d="M 579.6,167.9 A 8,8 0 0 0 571.6,159.9"/>
    <line style="fill: none; fill-opacity:0; stroke-width: 2; stroke: #000000" x1="470.2" y1="167.9" x2="470.2" y2="189.9"/>
    <line style="fill: none; fill-opacity:0; stroke-width: 2; stroke: #000000" x1="579.6" y1="167.9" x2="579.6" y2="189.9"/>
    <path style="fill: none; fill-opacity:0; stroke-width: 2; stroke: #000000" d="M 470.2,189.9 A 8,8 0 0 0 478.2,197.9"/>
    <path style="fill: none; fill-opacity:0; stroke-width: 2; stroke: #000000" d="M 571.6,197.9 A 8,8 0 0 0 579.6,189.9"/>
    <text style="fill: #000000;text-anchor:middle;font-size:12.8;font-family:sanserif;font-style:normal;font-weight:normal" x="524.9" y="182.8">
      <tspan x="524.9" y="182.8">Drained</tspan>
    </text>
  </g>
  <g>
    <line style="fill: none; fill-opacity:0; stroke-width: 2; stroke: #000000" x1="618.25" y1="48.8" x2="652.858" y2="85.31"/>
    <polygon style="fill: #000000" points="658.018,90.7532 647.509,86.9353 652.858,85.31 654.767,80.0558 "/>
    <polygon style="fill: none; fill-opacity:0; stroke-width: 2; stroke: #000000" points="658.018,90.7532 647.509,86.9353 652.858,85.31 654.767,80.0558 "/>
  </g>
  <g>
    <line style="fill: none; fill-opacity:0; stroke-width: 2; stroke: #000000" x1="690.12" y1="92.376" x2="655.614" y2="55.8751"/>
    <polygon style="fill: #000000" points="650.462,50.4249 660.965,54.257 655.614,55.8751 653.698,61.1267 "/>
    <polygon style="fill: none; fill-opacity:0; stroke-width: 2; stroke: #000000" points="650.462,50.4249 660.965,54.257 655.614,55.8751 653.698,61.1267 "/>
  </g>
  <g>
    <line style="fill: none; fill-opacity:0; stroke-width: 2; stroke: #000000" x1="748.906" y1="94.7192" x2="873.635" y2="-11.6264"/>
    <polygon style="fill: #000000" points="879.342,-16.4924 874.977,-6.19957 873.635,-11.6264 868.489,-13.8092 "/>
    <polygon style="fill: none; fill-opacity:0; stroke-width: 2; stroke: #000000" points="879.342,-16.4924 874.977,-6.19957 873.635,-11.6264 868.489,-13.8092 "/>
  </g>
  <g>
    <line style="fill: none; fill-opacity:0; stroke-width: 2; stroke: #000000" x1="748.906" y1="94.7192" x2="959.092" y2="78.8337"/>
    <polygon style="fill: #000000" points="966.57,78.2685 956.976,84.0079 959.092,78.8337 956.222,74.0364 "/>
    <polygon style="fill: none; fill-opacity:0; stroke-width: 2; stroke: #000000" points="966.57,78.2685 956.976,84.0079 959.092,78.8337 956.222,74.0364 "/>
  </g>
  <g>
    <line style="fill: none; fill-opacity:0; stroke-width: 2; stroke: #000000" x1="748.906" y1="128.033" x2="816.153" y2="169.439"/>
    <polygon style="fill: #000000" points="822.54,173.371 811.403,172.385 816.153,169.439 816.646,163.87 "/>
    <polygon style="fill: none; fill-opacity:0; stroke-width: 2; stroke: #000000" points="822.54,173.371 811.403,172.385 816.153,169.439 816.646,163.87 "/>
  </g>
  <g>
    <path style="fill: #ffffff" d="M 505.021 -58.036 L 551.731,-58.036 C 558.18,-58.036 563.408,-53.1111 563.408,-47.036 C 563.408,-40.9609 558.18,-36.036 551.731,-36.036 L 505.021,-36.036 C 498.572,-36.036 493.344,-40.9609 493.344,-47.036 C 493.344,-53.1111 498.572,-58.036 505.021,-58.036z"/>
    <path style="fill: none; fill-opacity:0; stroke-width: 2; stroke-dasharray: 4; stroke: #000000" d="M 505.021 -58.036 L 551.731,-58.036 C 558.18,-58.036 563.408,-53.1111 563.408,-47.036 C 563.408,-40.9609 558.18,-36.036 551.731,-36.036 L 505.021,-36.036 C 498.572,-36.036 493.344,-40.9609 493.344,-47.036 C 493.344,-53.1111 498.572,-58.036 505.021,-58.036"/>
    <text style="fill: #000000;text-anchor:middle;font-size:12.8;font-family:sanserif;font-style:normal;font-weight:normal" x="528.376" y="-43.036">
      <tspan x="528.376" y="-43.036">start</tspan>
    </text>
  </g>
  <g>
    <line style="fill: none; fill-opacity:0; stroke-width: 2; stroke: #000000" x1="528.376" y1="-36.036" x2="579.941" y2="4.75923"/>
    <polygon style="fill: #000000" points="585.822,9.41262 574.878,7.12931 579.941,4.75923 581.082,-0.713125 "/>
    <polygon style="fill: none; fill-opacity:0; stroke-width: 2; stroke: #000000" points="585.822,9.41262 574.878,7.12931 579.941,4.75923 581.082,-0.713125 "/>
  </g>
  <g>
    <line style="fill: none; fill-opacity:0; stroke-width: 2; stroke: #000000" x1="678.1" y1="-71.3" x2="652.186" y2="1.62593"/>
    <polygon style="fill: #000000" points="649.675,8.69301 648.312,-2.40394 652.186,1.62593 657.734,0.944415 "/>
    <polygon style="fill: none; fill-opacity:0; stroke-width: 2; stroke: #000000" points="649.675,8.69301 648.312,-2.40394 652.186,1.62593 657.734,0.944415 "/>
  </g>
  <g>
    <line style="fill: none; fill-opacity:0; stroke-width: 2; stroke: #000000" x1="881.85" y1="172.2" x2="908.012" y2="-5.96722"/>
    <polygon style="fill: #000000" points="909.101,-13.3877 912.595,-2.76735 908.012,-5.96722 902.701,-4.22014 "/>
    <polygon style="fill: none; fill-opacity:0; stroke-width: 2; stroke: #000000" points="909.101,-13.3877 912.595,-2.76735 908.012,-5.96722 902.701,-4.22014 "/>
  </g>
  <g>
    <line style="fill: none; fill-opacity:0; stroke-width: 2; stroke: #000000" x1="881.85" y1="172.2" x2="963.789" y2="101.136"/>
    <polygon style="fill: #000000" points="969.455,96.2219 965.176,106.551 963.789,101.136 958.624,98.9965 "/>
    <polygon style="fill: none; fill-opacity:0; stroke-width: 2; stroke: #000000" points="969.455,96.2219 965.176,106.551 963.789,101.136 958.624,98.9965 "/>
  </g>
  <g>
    <line style="fill: none; fill-opacity:0; stroke-width: 2; stroke: #000000" x1="971.144" y1="61.4432" x2="689.279" y2="30.8506"/>
    <polygon style="fill: #000000" points="681.823,30.0413 692.304,26.1495 689.279,30.8506 691.225,36.0911 "/>
    <polygon style="fill: none; fill-opacity:0; stroke-width: 2; stroke: #000000" points="681.823,30.0413 692.304,26.1495 689.279,30.8506 691.225,36.0911 "/>
  </g>
  <g>
    <line style="fill: none; fill-opacity:0; stroke-width: 2; stroke: #000000" x1="1001.5" y1="59.1" x2="946.329" y2="-8.07616"/>
    <polygon style="fill: #000000" points="941.569,-13.872 951.78,-9.31757 946.329,-8.07616 944.052,-2.97084 "/>
    <polygon style="fill: none; fill-opacity:0; stroke-width: 2; stroke: #000000" points="941.569,-13.872 951.78,-9.31757 946.329,-8.07616 944.052,-2.97084 "/>
  </g>
  <g>
    <line style="fill: none; fill-opacity:0; stroke-width: 2; stroke: #000000" x1="739.256" y1="-73.6432" x2="869.324" y2="-37.2251"/>
    <polygon style="fill: #000000" points="876.547,-35.2029 865.569,-33.0843 869.324,-37.2251 868.265,-42.714 "/>
    <polygon style="fill: none; fill-opacity:0; stroke-width: 2; stroke: #000000" points="876.547,-35.2029 865.569,-33.0843 869.324,-37.2251 868.265,-42.714 "/>
  </g>
  <g>
    <line style="fill: none; fill-opacity:0; stroke-width: 2; stroke: #000000" x1="881.044" y1="-51.2568" x2="750.976" y2="-87.6749"/>
    <polygon style="fill: #000000" points="743.753,-89.6971 754.731,-91.8157 750.976,-87.6749 752.035,-82.186 "/>
    <polygon style="fill: none; fill-opacity:0; stroke-width: 2; stroke: #000000" points="743.753,-89.6971 754.731,-91.8157 750.976,-87.6749 752.035,-82.186 "/>
  </g>
  <g>
    <line style="fill: none; fill-opacity:0; stroke-width: 2; stroke: #000000" x1="552.25" y1="159.9" x2="584.626" y2="58.0783"/>
    <polygon style="fill: #000000" points="586.898,50.9309 588.633,61.9759 584.626,58.0783 579.103,58.9457 "/>
    <polygon style="fill: none; fill-opacity:0; stroke-width: 2; stroke: #000000" points="586.898,50.9309 588.633,61.9759 584.626,58.0783 579.103,58.9457 "/>
  </g>
  <g>
    <line style="fill: none; fill-opacity:0; stroke-width: 2; stroke: #000000" x1="559.244" y1="46.4568" x2="527.721" y2="150.582"/>
    <polygon style="fill: #000000" points="525.548,157.76 523.66,146.74 527.721,150.582 533.231,149.638 "/>
    <polygon style="fill: none; fill-opacity:0; stroke-width: 2; stroke: #000000" points="525.548,157.76 523.66,146.74 527.721,150.582 533.231,149.638 "/>
  </g>
  <g>
    <line style="fill: none; fill-opacity:0; stroke-width: 2; stroke: #000000" x1="631.336" y1="128.033" x2="585.484" y2="157.038"/>
    <polygon style="fill: #000000" points="579.146,161.048 584.924,151.476 585.484,157.038 590.27,159.927 "/>
    <polygon style="fill: none; fill-opacity:0; stroke-width: 2; stroke: #000000" points="579.146,161.048 584.924,151.476 585.484,157.038 590.27,159.927 "/>
  </g>
  <g>
    <path style="fill: none; fill-opacity:0; stroke-width: 2; stroke: #000000" d="M 851.976,172.2 A 299.615,299.615 0 0 0 686.629,49.0772"/>
    <polygon style="fill: #000000" points="679.419,47.0238 690.36,44.7229 686.674,48.9256 687.824,54.3961 "/>
    <polygon style="fill: none; fill-opacity:0; stroke-width: 2; stroke: #000000" points="679.419,47.0238 690.36,44.7229 686.674,48.9256 687.824,54.3961 "/>
  </g>
  <text style="fill: #000000;text-anchor:start;font-size:12.8;font-family:sanserif;font-style:normal;font-weight:normal" x="812.774" y="-76.117">
    <tspan x="812.774" y="-76.117">H</tspan>
  </text>
  <text style="fill: #000000;text-anchor:start;font-size:12.8;font-family:sanserif;font-style:normal;font-weight:normal" x="791.68" y="-42.2152">
    <tspan x="791.68" y="-42.2152">I</tspan>
  </text>
  <text style="fill: #000000;text-anchor:start;font-size:12.8;font-family:sanserif;font-style:normal;font-weight:normal" x="979.27" y="24.0818">
    <tspan x="979.27" y="24.0818">G</tspan>
  </text>
  <text style="fill: #000000;text-anchor:start;font-size:12.8;font-family:sanserif;font-style:normal;font-weight:normal" x="873.798" y="139.348">
    <tspan x="873.798" y="139.348">M</tspan>
  </text>
  <text style="fill: #000000;text-anchor:start;font-size:12.8;font-family:sanserif;font-style:normal;font-weight:normal" x="929.548" y="143.869">
    <tspan x="929.548" y="143.869">L</tspan>
  </text>
  <text style="fill: #000000;text-anchor:start;font-size:12.8;font-family:sanserif;font-style:normal;font-weight:normal" x="770.586" y="161.95">
    <tspan x="770.586" y="161.95">E</tspan>
  </text>
  <text style="fill: #000000;text-anchor:start;font-size:12.8;font-family:sanserif;font-style:normal;font-weight:normal" x="827.842" y="131.815">
    <tspan x="827.842" y="131.815">K</tspan>
  </text>
  <text style="fill: #000000;text-anchor:start;font-size:12.8;font-family:sanserif;font-style:normal;font-weight:normal" x="746.478" y="33.8758">
    <tspan x="746.478" y="33.8758">F</tspan>
  </text>
  <text style="fill: #000000;text-anchor:start;font-size:12.8;font-family:sanserif;font-style:normal;font-weight:normal" x="673.4" y="-33.1746">
    <tspan x="673.4" y="-33.1746">J</tspan>
  </text>
  <text style="fill: #000000;text-anchor:start;font-size:12.8;font-family:sanserif;font-style:normal;font-weight:normal" x="622.172" y="76.8182">
    <tspan x="622.172" y="76.8182">A</tspan>
  </text>
  <text style="fill: #000000;text-anchor:start;font-size:12.8;font-family:sanserif;font-style:normal;font-weight:normal" x="683.194" y="79.8316">
    <tspan x="683.194" y="79.8316">B</tspan>
  </text>
  <text style="fill: #000000;text-anchor:start;font-size:12.8;font-family:sanserif;font-style:normal;font-weight:normal" x="834.622" y="84.3518">
    <tspan x="834.622" y="84.3518">C</tspan>
  </text>
  <text style="fill: #000000;text-anchor:start;font-size:12.8;font-family:sanserif;font-style:normal;font-weight:normal" x="831.61" y="14.288">
    <tspan x="831.61" y="14.288">D</tspan>
  </text>
  <text style="fill: #000000;text-anchor:start;font-size:12.8;font-family:sanserif;font-style:normal;font-weight:normal" x="529.506" y="99.4194">
    <tspan x="529.506" y="99.4194">N</tspan>
  </text>
  <text style="fill: #000000;text-anchor:start;font-size:12.8;font-family:sanserif;font-style:normal;font-weight:normal" x="580.736" y="99.4194">
    <tspan x="580.736" y="99.4194">O</tspan>
  </text>
  <text style="fill: #000000;text-anchor:start;font-size:12.7998;font-family:sanserif;font-style:normal;font-weight:normal" x="611.639" y="153.753">
    <tspan x="611.639" y="153.753">P</tspan>
  </text>
</svg>
