<?xml version="1.0" encoding="iso-8859-1" standalone="no"?> 
<?xml-stylesheet href="ref.css" type="text/css"?> 
<svg xmlns="http://www.w3.org/2000/svg" xmlns:xlink="http://www.w3.org/1999/xlink" width="190.9982pt" height="158.50888pt" viewBox="-26.62703 -148.12651 190.9982 158.50888 "> 
<g transform="translate(0, 10.38237 ) scale(1,-1) translate(0,148.12651 )"> 
     <g>
 <g stroke="rgb(0.0%,0.0%,0.0%)">
 <g fill="rgb(0.0%,0.0%,0.0%)">
 <g stroke-width="0.4pt">
 <g>
 <g>
 <g stroke-width="1.6pt">
 <g>
 <g stroke-width="1.6pt">
 <path d=" M  25.82703 0.0 C  25.82703 5.29225 14.26405 9.58237 0.0 9.58237 C  -14.26405 9.58237 -25.82703 5.29225 -25.82703 0.0 C  -25.82703 -5.29225 -14.26405 -9.58237 0.0 -9.58237 C  14.26405 -9.58237 25.82703 -5.29225 25.82703 0.0 Z M  0.0 0.0  " style="fill:none"/>
 </g>
 </g>
 <g>
 <g transform="matrix(1.0,0.0,0.0,1.0,-3.74908,-3.4436)">
 <g fill="rgb(0.0%,0.0%,0.0%)">
 <text style="stroke:none" transform="scale(1,-1) translate(3.74908,0)" text-anchor="middle"  font-size="10"> 
A</text> 
</g>
 </g>
 </g>
 </g>
 </g>
 <g>
 <g stroke-width="1.6pt">
 <g>
 <g stroke-width="1.6pt">
 <path d=" M  94.6991 0.0 C  94.6991 5.29225 83.13612 9.58237 68.87207 9.58237 C  54.60802 9.58237 43.04504 5.29225 43.04504 0.0 C  43.04504 -5.29225 54.60802 -9.58237 68.87207 -9.58237 C  83.13612 -9.58237 94.6991 -5.29225 94.6991 0.0 Z M  68.87207 0.0  " style="fill:none"/>
 </g>
 </g>
 <g>
 <g transform="matrix(1.0,0.0,0.0,1.0,65.33127,-3.4436)">
 <g fill="rgb(0.0%,0.0%,0.0%)">
 <text style="stroke:none" transform="scale(1,-1) translate(3.5408,0)" text-anchor="middle"  font-size="10"> 
B</text> 
</g>
 </g>
 </g>
 </g>
 </g>
 <g>
 <g stroke-width="1.6pt">
 <g>
 <g stroke-width="1.6pt">
 <path d=" M  163.57117 0.0 C  163.57117 5.29225 152.0082 9.58237 137.74414 9.58237 C  123.48009 9.58237 111.91711 5.29225 111.91711 0.0 C  111.91711 -5.29225 123.48009 -9.58237 137.74414 -9.58237 C  152.0082 -9.58237 163.57117 -5.29225 163.57117 0.0 Z M  137.74414 0.0  " style="fill:none"/>
 </g>
 </g>
 <g>
 <g transform="matrix(1.0,0.0,0.0,1.0,134.13391,-3.4436)">
 <g fill="rgb(0.0%,0.0%,0.0%)">
 <text style="stroke:none" transform="scale(1,-1) translate(3.61023,0)" text-anchor="middle"  font-size="10"> 
C</text> 
</g>
 </g>
 </g>
 </g>
 </g>
 <g>
 <g stroke-width="1.6pt">
 <g>
 <g stroke-width="1.6pt">
 <path d=" M  94.6991 -68.87207 C  94.6991 -63.57982 83.13612 -59.2897 68.87207 -59.2897 C  54.60802 -59.2897 43.04504 -63.57982 43.04504 -68.87207 C  43.04504 -74.16432 54.60802 -78.45444 68.87207 -78.45444 C  83.13612 -78.45444 94.6991 -74.16432 94.6991 -68.87207 Z M  68.87207 -68.87207  " style="fill:none"/>
 </g>
 </g>
 <g>
 <g transform="matrix(1.0,0.0,0.0,1.0,65.05356,-72.31567)">
 <g fill="rgb(0.0%,0.0%,0.0%)">
 <text style="stroke:none" transform="scale(1,-1) translate(3.81851,0)" text-anchor="middle"  font-size="10"> 
D</text> 
</g>
 </g>
 </g>
 </g>
 </g>
 <g>
 <g stroke-width="1.6pt">
 <g>
 <g stroke-width="1.6pt">
 <path d=" M  94.6991 -137.74414 C  94.6991 -132.45189 83.13612 -128.16177 68.87207 -128.16177 C  54.60802 -128.16177 43.04504 -132.45189 43.04504 -137.74414 C  43.04504 -143.03639 54.60802 -147.3265 68.87207 -147.3265 C  83.13612 -147.3265 94.6991 -143.03639 94.6991 -137.74414 Z M  68.87207 -137.74414  " style="fill:none"/>
 </g>
 </g>
 <g>
 <g transform="matrix(1.0,0.0,0.0,1.0,65.60898,-141.18774)">
 <g fill="rgb(0.0%,0.0%,0.0%)">
 <text style="stroke:none" transform="scale(1,-1) translate(3.26309,0)" text-anchor="middle"  font-size="10"> 
F</text> 
</g>
 </g>
 </g>
 </g>
 </g>
 <g>
 <g stroke-width="1.6pt">
 <g>
 <g stroke-width="1.6pt">
 <path d=" M  25.82703 -137.74414 C  25.82703 -132.45189 14.26405 -128.16177 0.0 -128.16177 C  -14.26405 -128.16177 -25.82703 -132.45189 -25.82703 -137.74414 C  -25.82703 -143.03639 -14.26405 -147.3265 0.0 -147.3265 C  14.26405 -147.3265 25.82703 -143.03639 25.82703 -137.74414 Z M  0.0 -137.74414  " style="fill:none"/>
 </g>
 </g>
 <g>
 <g transform="matrix(1.0,0.0,0.0,1.0,-3.40195,-141.18774)">
 <g fill="rgb(0.0%,0.0%,0.0%)">
 <text style="stroke:none" transform="scale(1,-1) translate(3.40195,0)" text-anchor="middle"  font-size="10"> 
E</text> 
</g>
 </g>
 </g>
 </g>
 </g>
 <g>
 <g stroke-width="1.6pt">
 <g>
 <g stroke-width="1.6pt">
 <path d=" M  163.57117 -137.74414 C  163.57117 -132.45189 152.0082 -128.16177 137.74414 -128.16177 C  123.48009 -128.16177 111.91711 -132.45189 111.91711 -137.74414 C  111.91711 -143.03639 123.48009 -147.3265 137.74414 -147.3265 C  152.0082 -147.3265 163.57117 -143.03639 163.57117 -137.74414 Z M  137.74414 -137.74414  " style="fill:none"/>
 </g>
 </g>
 <g>
 <g transform="matrix(1.0,0.0,0.0,1.0,133.82149,-141.18774)">
 <g fill="rgb(0.0%,0.0%,0.0%)">
 <text style="stroke:none" transform="scale(1,-1) translate(3.92265,0)" text-anchor="middle"  font-size="10"> 
G</text> 
</g>
 </g>
 </g>
 </g>
 </g>
 <g>
 <g stroke-width="1.6pt">
 <g>
 <path d=" M  9.70518 -9.70526 L  54.3303 -54.33023  " style="fill:none"/>
 <g>
 <g transform="matrix(0.7071,-0.7071,0.7071,0.7071,54.33029,-54.33022)">
 <g>
 <path d=" M  6.83995 0.0 C  4.81326 0.37999 1.51999 1.51999 -0.76 2.84998 L  -0.76 -2.84998 C  1.51999 -1.51999 4.81326 -0.37999 6.83995 0.0  " style="stroke:none"/>
 </g>
  </g>
 </g>
 </g>
 </g>
 </g>
 <g>
 <g stroke-width="1.6pt">
 <g>
 <path d=" M  68.87207 -10.38237 L  68.87207 -51.64975  " style="fill:none"/>
 <g>
 <g transform="matrix(0.0,-1.0,1.0,0.0,68.87207,-51.64975)">
 <g>
 <path d=" M  6.83995 0.0 C  4.81326 0.37999 1.51999 1.51999 -0.76 2.84998 L  -0.76 -2.84998 C  1.51999 -1.51999 4.81326 -0.37999 6.83995 0.0  " style="stroke:none"/>
 </g>
  </g>
 </g>
 </g>
 </g>
 </g>
 <g>
 <g stroke-width="1.6pt">
 <g>
 <path d=" M  128.03896 -9.70526 L  83.41383 -54.33023  " style="fill:none"/>
 <g>
 <g transform="matrix(-0.7071,-0.7071,0.7071,-0.7071,83.41385,-54.33022)">
 <g>
 <path d=" M  6.83995 0.0 C  4.81326 0.37999 1.51999 1.51999 -0.76 2.84998 L  -0.76 -2.84998 C  1.51999 -1.51999 4.81326 -0.37999 6.83995 0.0  " style="stroke:none"/>
 </g>
  </g>
 </g>
 </g>
 </g>
 </g>
 <g>
 <g stroke-width="1.6pt">
 <g>
 <path d=" M  59.16689 -78.57733 L  14.54176 -123.2023  " style="fill:none"/>
 <g>
 <g transform="matrix(-0.7071,-0.7071,0.7071,-0.7071,14.54178,-123.20229)">
 <g>
 <path d=" M  6.83995 0.0 C  4.81326 0.37999 1.51999 1.51999 -0.76 2.84998 L  -0.76 -2.84998 C  1.51999 -1.51999 4.81326 -0.37999 6.83995 0.0  " style="stroke:none"/>
 </g>
  </g>
 </g>
 </g>
 </g>
 </g>
 <g>
 <g stroke-width="1.6pt">
 <g>
 <path d=" M  68.87207 -79.25444 L  68.87207 -120.52182  " style="fill:none"/>
 <g>
 <g transform="matrix(0.0,-1.0,1.0,0.0,68.87207,-120.52182)">
 <g>
 <path d=" M  6.83995 0.0 C  4.81326 0.37999 1.51999 1.51999 -0.76 2.84998 L  -0.76 -2.84998 C  1.51999 -1.51999 4.81326 -0.37999 6.83995 0.0  " style="stroke:none"/>
 </g>
  </g>
 </g>
 </g>
 </g>
 </g>
 <g>
 <g stroke-width="1.6pt">
 <g>
 <path d=" M  78.57726 -78.57733 L  123.20238 -123.2023  " style="fill:none"/>
 <g>
 <g transform="matrix(0.7071,-0.7071,0.7071,0.7071,123.20236,-123.20229)">
 <g>
 <path d=" M  6.83995 0.0 C  4.81326 0.37999 1.51999 1.51999 -0.76 2.84998 L  -0.76 -2.84998 C  1.51999 -1.51999 4.81326 -0.37999 6.83995 0.0  " style="stroke:none"/>
 </g>
  </g>
 </g>
 </g>
 </g>
 </g>
 </g>
 </g>
 </g>
 </g>
 </g>
 
                                                         </g> 
</svg> 
