<?xml version="1.0" encoding="iso-8859-1" standalone="no"?> 
<?xml-stylesheet href="ref.css" type="text/css"?> 
<svg xmlns="http://www.w3.org/2000/svg" xmlns:xlink="http://www.w3.org/1999/xlink" width="187.48851pt" height="502.06921pt" viewBox="-93.62152 -492.08685 187.48851 502.06921 "> 
<g transform="translate(0, 9.98236 ) scale(1,-1) translate(0,492.08685 )"> 
                  <g>
 <g stroke="rgb(0.0%,0.0%,0.0%)">
 <g fill="rgb(0.0%,0.0%,0.0%)">
 <g stroke-width="0.4pt">
 <g>
 <g>
 <g stroke-width="0.8pt">
 <g>
 <g stroke-width="0.8pt">
 <path d=" M  17.21802 0.0 C  17.21802 5.29225 9.50937 9.58237 0.0 9.58237 C  -9.50937 9.58237 -17.21802 5.29225 -17.21802 0.0 C  -17.21802 -5.29225 -9.50937 -9.58237 0.0 -9.58237 C  9.50937 -9.58237 17.21802 -5.29225 17.21802 0.0 Z M  0.0 0.0  " style="fill:none"/>
 </g>
 </g>
 <g>
 <g transform="matrix(1.0,0.0,0.0,1.0,-3.74908,-3.4436)">
 <g fill="rgb(0.0%,0.0%,0.0%)">
 <text style="stroke:none" transform="scale(1,-1) translate(3.74908,0)" text-anchor="middle"  font-size="10"> 
A</text> 
</g>
 </g>
 </g>
 </g>
 </g>
 <g>
 <g stroke-width="0.8pt">
 <g>
 <g stroke-width="0.8pt">
 <path d=" M  24.0549 -68.87207 C  24.0549 -63.25446 13.28532 -58.70059 0.0 -58.70059 C  -13.28532 -58.70059 -24.0549 -63.25446 -24.0549 -68.87207 C  -24.0549 -74.48969 -13.28532 -79.04355 0.0 -79.04355 C  13.28532 -79.04355 24.0549 -74.48969 24.0549 -68.87207 Z M  0.0 -68.87207  " style="fill:none"/>
 </g>
 </g>
 <g>
 <g transform="matrix(1.0,0.0,0.0,1.0,-13.67722,-71.89911)">
 <g fill="rgb(0.0%,0.0%,0.0%)">
 <text style="stroke:none" transform="scale(1,-1) translate(13.67722,0)" text-anchor="middle"  font-size="10"> 
X1+B</text> 
</g>
 </g>
 </g>
 </g>
 </g>
 <g>
 <g stroke-width="0.8pt">
 <g>
 <g stroke-width="0.8pt">
 <path d=" M  -44.52261 -68.87207 C  -44.52261 -63.25446 -55.42407 -58.70059 -68.87207 -58.70059 C  -82.32007 -58.70059 -93.22153 -63.25446 -93.22153 -68.87207 C  -93.22153 -74.48969 -82.32007 -79.04355 -68.87207 -79.04355 C  -55.42407 -79.04355 -44.52261 -74.48969 -44.52261 -68.87207 Z M  -68.87207 -68.87207  " style="fill:none"/>
 </g>
 </g>
 <g>
 <g transform="matrix(1.0,0.0,0.0,1.0,-82.75757,-71.89911)">
 <g fill="rgb(0.0%,0.0%,0.0%)">
 <text style="stroke:none" transform="scale(1,-1) translate(13.8855,0)" text-anchor="middle"  font-size="10"> 
X1+A</text> 
</g>
 </g>
 </g>
 </g>
 </g>
 <g>
 <g stroke-width="0.8pt">
 <g>
 <g stroke-width="0.8pt">
 <path d=" M  93.02516 -68.87207 C  93.02516 -63.25446 82.21162 -58.70059 68.87207 -58.70059 C  55.53252 -58.70059 44.71898 -63.25446 44.71898 -68.87207 C  44.71898 -74.48969 55.53252 -79.04355 68.87207 -79.04355 C  82.21162 -79.04355 93.02516 -74.48969 93.02516 -68.87207 Z M  68.87207 -68.87207  " style="fill:none"/>
 </g>
 </g>
 <g>
 <g transform="matrix(1.0,0.0,0.0,1.0,55.12543,-71.89911)">
 <g fill="rgb(0.0%,0.0%,0.0%)">
 <text style="stroke:none" transform="scale(1,-1) translate(13.74664,0)" text-anchor="middle"  font-size="10"> 
X1+C</text> 
</g>
 </g>
 </g>
 </g>
 </g>
 <g>
 <g stroke-width="0.8pt">
 <g>
 <g stroke-width="0.8pt">
 <path d=" M  24.44765 -137.74414 C  24.44765 -132.12653 13.50223 -127.57266 0.0 -127.57266 C  -13.50223 -127.57266 -24.44765 -132.12653 -24.44765 -137.74414 C  -24.44765 -143.36176 -13.50223 -147.91562 0.0 -147.91562 C  13.50223 -147.91562 24.44765 -143.36176 24.44765 -137.74414 Z M  0.0 -137.74414  " style="fill:none"/>
 </g>
 </g>
 <g>
 <g transform="matrix(1.0,0.0,0.0,1.0,-13.95493,-140.77118)">
 <g fill="rgb(0.0%,0.0%,0.0%)">
 <text style="stroke:none" transform="scale(1,-1) translate(13.95493,0)" text-anchor="middle"  font-size="10"> 
X1+D</text> 
</g>
 </g>
 </g>
 </g>
 </g>
 <g>
 <g stroke-width="0.8pt">
 <g>
 <g stroke-width="0.8pt">
 <path d=" M  23.66216 -206.61621 C  23.66216 -200.9986 13.0684 -196.44473 0.0 -196.44473 C  -13.0684 -196.44473 -23.66216 -200.9986 -23.66216 -206.61621 C  -23.66216 -212.23383 -13.0684 -216.78769 0.0 -216.78769 C  13.0684 -216.78769 23.66216 -212.23383 23.66216 -206.61621 Z M  0.0 -206.61621  " style="fill:none"/>
 </g>
 </g>
 <g>
 <g transform="matrix(1.0,0.0,0.0,1.0,-13.3995,-209.64325)">
 <g fill="rgb(0.0%,0.0%,0.0%)">
 <text style="stroke:none" transform="scale(1,-1) translate(13.3995,0)" text-anchor="middle"  font-size="10"> 
X1+F</text> 
</g>
 </g>
 </g>
 </g>
 </g>
 <g>
 <g stroke-width="0.8pt">
 <g>
 <g stroke-width="0.8pt">
 <path d=" M  -45.01355 -206.61621 C  -45.01355 -200.9986 -55.6952 -196.44473 -68.87207 -196.44473 C  -82.04893 -196.44473 -92.73059 -200.9986 -92.73059 -206.61621 C  -92.73059 -212.23383 -82.04893 -216.78769 -68.87207 -216.78769 C  -55.6952 -216.78769 -45.01355 -212.23383 -45.01355 -206.61621 Z M  -68.87207 -206.61621  " style="fill:none"/>
 </g>
 </g>
 <g>
 <g transform="matrix(1.0,0.0,0.0,1.0,-82.41043,-209.64325)">
 <g fill="rgb(0.0%,0.0%,0.0%)">
 <text style="stroke:none" transform="scale(1,-1) translate(13.53836,0)" text-anchor="middle"  font-size="10"> 
X1+E</text> 
</g>
 </g>
 </g>
 </g>
 </g>
 <g>
 <g stroke-width="0.8pt">
 <g>
 <g stroke-width="0.8pt">
 <path d=" M  93.467 -206.61621 C  93.467 -200.9986 82.45564 -196.44473 68.87207 -196.44473 C  55.2885 -196.44473 44.27715 -200.9986 44.27715 -206.61621 C  44.27715 -212.23383 55.2885 -216.78769 68.87207 -216.78769 C  82.45564 -216.78769 93.467 -212.23383 93.467 -206.61621 Z M  68.87207 -206.61621  " style="fill:none"/>
 </g>
 </g>
 <g>
 <g transform="matrix(1.0,0.0,0.0,1.0,54.813,-209.64325)">
 <g fill="rgb(0.0%,0.0%,0.0%)">
 <text style="stroke:none" transform="scale(1,-1) translate(14.05907,0)" text-anchor="middle"  font-size="10"> 
X1+G</text> 
</g>
 </g>
 </g>
 </g>
 </g>
 <g>
 <g stroke-width="0.8pt">
 <g>
 <g stroke-width="0.8pt">
 <path d=" M  -44.52261 -275.48828 C  -44.52261 -269.87067 -55.42407 -265.3168 -68.87207 -265.3168 C  -82.32007 -265.3168 -93.22153 -269.87067 -93.22153 -275.48828 C  -93.22153 -281.1059 -82.32007 -285.65976 -68.87207 -285.65976 C  -55.42407 -285.65976 -44.52261 -281.1059 -44.52261 -275.48828 Z M  -68.87207 -275.48828  " style="fill:none"/>
 </g>
 </g>
 <g>
 <g transform="matrix(1.0,0.0,0.0,1.0,-82.75757,-278.51532)">
 <g fill="rgb(0.0%,0.0%,0.0%)">
 <text style="stroke:none" transform="scale(1,-1) translate(13.8855,0)" text-anchor="middle"  font-size="10"> 
X2+A</text> 
</g>
 </g>
 </g>
 </g>
 </g>
 <g>
 <g stroke-width="0.8pt">
 <g>
 <g stroke-width="0.8pt">
 <path d=" M  24.0549 -275.48828 C  24.0549 -269.87067 13.28532 -265.3168 0.0 -265.3168 C  -13.28532 -265.3168 -24.0549 -269.87067 -24.0549 -275.48828 C  -24.0549 -281.1059 -13.28532 -285.65976 0.0 -285.65976 C  13.28532 -285.65976 24.0549 -281.1059 24.0549 -275.48828 Z M  0.0 -275.48828  " style="fill:none"/>
 </g>
 </g>
 <g>
 <g transform="matrix(1.0,0.0,0.0,1.0,-13.67722,-278.51532)">
 <g fill="rgb(0.0%,0.0%,0.0%)">
 <text style="stroke:none" transform="scale(1,-1) translate(13.67722,0)" text-anchor="middle"  font-size="10"> 
X2+B</text> 
</g>
 </g>
 </g>
 </g>
 </g>
 <g>
 <g stroke-width="0.8pt">
 <g>
 <g stroke-width="0.8pt">
 <path d=" M  93.02516 -275.48828 C  93.02516 -269.87067 82.21162 -265.3168 68.87207 -265.3168 C  55.53252 -265.3168 44.71898 -269.87067 44.71898 -275.48828 C  44.71898 -281.1059 55.53252 -285.65976 68.87207 -285.65976 C  82.21162 -285.65976 93.02516 -281.1059 93.02516 -275.48828 Z M  68.87207 -275.48828  " style="fill:none"/>
 </g>
 </g>
 <g>
 <g transform="matrix(1.0,0.0,0.0,1.0,55.12543,-278.51532)">
 <g fill="rgb(0.0%,0.0%,0.0%)">
 <text style="stroke:none" transform="scale(1,-1) translate(13.74664,0)" text-anchor="middle"  font-size="10"> 
X2+C</text> 
</g>
 </g>
 </g>
 </g>
 </g>
 <g>
 <g stroke-width="0.8pt">
 <g>
 <g stroke-width="0.8pt">
 <path d=" M  24.44765 -344.36035 C  24.44765 -338.74274 13.50223 -334.18887 0.0 -334.18887 C  -13.50223 -334.18887 -24.44765 -338.74274 -24.44765 -344.36035 C  -24.44765 -349.97797 -13.50223 -354.53183 0.0 -354.53183 C  13.50223 -354.53183 24.44765 -349.97797 24.44765 -344.36035 Z M  0.0 -344.36035  " style="fill:none"/>
 </g>
 </g>
 <g>
 <g transform="matrix(1.0,0.0,0.0,1.0,-13.95493,-347.38739)">
 <g fill="rgb(0.0%,0.0%,0.0%)">
 <text style="stroke:none" transform="scale(1,-1) translate(13.95493,0)" text-anchor="middle"  font-size="10"> 
X2+D</text> 
</g>
 </g>
 </g>
 </g>
 </g>
 <g>
 <g stroke-width="0.8pt">
 <g>
 <g stroke-width="0.8pt">
 <path d=" M  23.66216 -413.23242 C  23.66216 -407.6148 13.0684 -403.06094 0.0 -403.06094 C  -13.0684 -403.06094 -23.66216 -407.6148 -23.66216 -413.23242 C  -23.66216 -418.85004 -13.0684 -423.4039 0.0 -423.4039 C  13.0684 -423.4039 23.66216 -418.85004 23.66216 -413.23242 Z M  0.0 -413.23242  " style="fill:none"/>
 </g>
 </g>
 <g>
 <g transform="matrix(1.0,0.0,0.0,1.0,-13.3995,-416.25946)">
 <g fill="rgb(0.0%,0.0%,0.0%)">
 <text style="stroke:none" transform="scale(1,-1) translate(13.3995,0)" text-anchor="middle"  font-size="10"> 
X2+F</text> 
</g>
 </g>
 </g>
 </g>
 </g>
 <g>
 <g stroke-width="0.8pt">
 <g>
 <g stroke-width="0.8pt">
 <path d=" M  -45.01355 -413.23242 C  -45.01355 -407.6148 -55.6952 -403.06094 -68.87207 -403.06094 C  -82.04893 -403.06094 -92.73059 -407.6148 -92.73059 -413.23242 C  -92.73059 -418.85004 -82.04893 -423.4039 -68.87207 -423.4039 C  -55.6952 -423.4039 -45.01355 -418.85004 -45.01355 -413.23242 Z M  -68.87207 -413.23242  " style="fill:none"/>
 </g>
 </g>
 <g>
 <g transform="matrix(1.0,0.0,0.0,1.0,-82.41043,-416.25946)">
 <g fill="rgb(0.0%,0.0%,0.0%)">
 <text style="stroke:none" transform="scale(1,-1) translate(13.53836,0)" text-anchor="middle"  font-size="10"> 
X2+E</text> 
</g>
 </g>
 </g>
 </g>
 </g>
 <g>
 <g stroke-width="0.8pt">
 <g>
 <g stroke-width="0.8pt">
 <path d=" M  93.467 -413.23242 C  93.467 -407.6148 82.45564 -403.06094 68.87207 -403.06094 C  55.2885 -403.06094 44.27715 -407.6148 44.27715 -413.23242 C  44.27715 -418.85004 55.2885 -423.4039 68.87207 -423.4039 C  82.45564 -423.4039 93.467 -418.85004 93.467 -413.23242 Z M  68.87207 -413.23242  " style="fill:none"/>
 </g>
 </g>
 <g>
 <g transform="matrix(1.0,0.0,0.0,1.0,54.813,-416.25946)">
 <g fill="rgb(0.0%,0.0%,0.0%)">
 <text style="stroke:none" transform="scale(1,-1) translate(14.05907,0)" text-anchor="middle"  font-size="10"> 
X2+G</text> 
</g>
 </g>
 </g>
 </g>
 </g>
 <g>
 <g stroke-width="0.8pt">
 <g>
 <g stroke-width="0.8pt">
 <path d=" M  17.21802 -482.10449 C  17.21802 -476.81224 9.50937 -472.52213 0.0 -472.52213 C  -9.50937 -472.52213 -17.21802 -476.81224 -17.21802 -482.10449 C  -17.21802 -487.39674 -9.50937 -491.68686 0.0 -491.68686 C  9.50937 -491.68686 17.21802 -487.39674 17.21802 -482.10449 Z M  0.0 -482.10449  " style="fill:none"/>
 </g>
 </g>
 <g>
 <g transform="matrix(1.0,0.0,0.0,1.0,-3.5408,-485.5481)">
 <g fill="rgb(0.0%,0.0%,0.0%)">
 <text style="stroke:none" transform="scale(1,-1) translate(3.5408,0)" text-anchor="middle"  font-size="10"> 
B</text> 
</g>
 </g>
 </g>
 </g>
 </g>
 <g>
 <g stroke-width="0.8pt">
 <g>
 <path d=" M  -8.71034 -8.70958 L  -55.81628 -55.81618  " style="fill:none"/>
 <g>
 <g transform="matrix(-0.70709,-0.7071,0.7071,-0.70709,-55.81628,-55.81616)">
 <g>
 <path d=" M  4.6799 0.0 C  3.29324 0.26 1.03998 1.03998 -0.51999 1.94995 L  -0.51999 -1.94995 C  1.03998 -1.03998 3.29324 -0.26 4.6799 0.0  " style="stroke:none"/>
 </g>
  </g>
 </g>
 </g>
 </g>
 </g>
 <g>
 <g stroke-width="0.8pt">
 <g>
 <path d=" M  -59.12502 -78.61877 L  -13.05548 -124.68825  " style="fill:none"/>
 <g>
 <g transform="matrix(0.7071,-0.7071,0.7071,0.7071,-13.0555,-124.68823)">
 <g>
 <path d=" M  4.6799 0.0 C  3.29324 0.26 1.03998 1.03998 -0.51999 1.94995 L  -0.51999 -1.94995 C  1.03998 -1.03998 3.29324 -0.26 4.6799 0.0  " style="stroke:none"/>
 </g>
  </g>
 </g>
 </g>
 </g>
 </g>
 <g>
 <g stroke-width="0.8pt">
 <g>
 <path d=" M  0.0 -9.98236 L  0.0 -53.6207  " style="fill:none"/>
 <g>
 <g transform="matrix(0.0,-1.0,1.0,0.0,0.0,-53.6207)">
 <g>
 <path d=" M  4.6799 0.0 C  3.29324 0.26 1.03998 1.03998 -0.51999 1.94995 L  -0.51999 -1.94995 C  1.03998 -1.03998 3.29324 -0.26 4.6799 0.0  " style="stroke:none"/>
 </g>
  </g>
 </g>
 </g>
 </g>
 </g>
 <g>
 <g stroke-width="0.8pt">
 <g>
 <path d=" M  0.0 -79.44354 L  0.0 -122.49277  " style="fill:none"/>
 <g>
 <g transform="matrix(0.0,-1.0,1.0,0.0,0.0,-122.49277)">
 <g>
 <path d=" M  4.6799 0.0 C  3.29324 0.26 1.03998 1.03998 -0.51999 1.94995 L  -0.51999 -1.94995 C  1.03998 -1.03998 3.29324 -0.26 4.6799 0.0  " style="stroke:none"/>
 </g>
  </g>
 </g>
 </g>
 </g>
 </g>
 <g>
 <g stroke-width="0.8pt">
 <g>
 <path d=" M  8.71034 -8.70958 L  55.85106 -55.85135  " style="fill:none"/>
 <g>
 <g transform="matrix(0.70714,-0.7071,0.7071,0.70714,55.85104,-55.85133)">
 <g>
 <path d=" M  4.6799 0.0 C  3.29324 0.26 1.03998 1.03998 -0.51999 1.94995 L  -0.51999 -1.94995 C  1.03998 -1.03998 3.29324 -0.26 4.6799 0.0  " style="stroke:none"/>
 </g>
  </g>
 </g>
 </g>
 </g>
 </g>
 <g>
 <g stroke-width="0.8pt">
 <g>
 <path d=" M  59.15964 -78.5836 L  13.0554 -124.68825  " style="fill:none"/>
 <g>
 <g transform="matrix(-0.70709,-0.7071,0.7071,-0.70709,13.0554,-124.68823)">
 <g>
 <path d=" M  4.6799 0.0 C  3.29324 0.26 1.03998 1.03998 -0.51999 1.94995 L  -0.51999 -1.94995 C  1.03998 -1.03998 3.29324 -0.26 4.6799 0.0  " style="stroke:none"/>
 </g>
  </g>
 </g>
 </g>
 </g>
 </g>
 <g>
 <g stroke-width="0.8pt">
 <g>
 <path d=" M  -9.74667 -147.49084 L  -55.85185 -193.59549  " style="fill:none"/>
 <g>
 <g transform="matrix(-0.7071,-0.7071,0.7071,-0.7071,-55.85184,-193.59547)">
 <g>
 <path d=" M  4.6799 0.0 C  3.29324 0.26 1.03998 1.03998 -0.51999 1.94995 L  -0.51999 -1.94995 C  1.03998 -1.03998 3.29324 -0.26 4.6799 0.0  " style="stroke:none"/>
 </g>
  </g>
 </g>
 </g>
 </g>
 </g>
 <g>
 <g stroke-width="0.8pt">
 <g>
 <path d=" M  0.0 -148.31561 L  0.0 -191.36484  " style="fill:none"/>
 <g>
 <g transform="matrix(0.0,-1.0,1.0,0.0,0.0,-191.36484)">
 <g>
 <path d=" M  4.6799 0.0 C  3.29324 0.26 1.03998 1.03998 -0.51999 1.94995 L  -0.51999 -1.94995 C  1.03998 -1.03998 3.29324 -0.26 4.6799 0.0  " style="stroke:none"/>
 </g>
  </g>
 </g>
 </g>
 </g>
 </g>
 <g>
 <g stroke-width="0.8pt">
 <g>
 <path d=" M  9.74706 -147.49084 L  55.81602 -193.56032  " style="fill:none"/>
 <g>
 <g transform="matrix(0.7071,-0.7071,0.7071,0.7071,55.81601,-193.5603)">
 <g>
 <path d=" M  4.6799 0.0 C  3.29324 0.26 1.03998 1.03998 -0.51999 1.94995 L  -0.51999 -1.94995 C  1.03998 -1.03998 3.29324 -0.26 4.6799 0.0  " style="stroke:none"/>
 </g>
  </g>
 </g>
 </g>
 </g>
 </g>
 <g>
 <g stroke-width="0.8pt">
 <g>
 <path d=" M  -68.87207 -217.18768 L  -68.87207 -260.23691  " style="fill:none"/>
 <g>
 <g transform="matrix(0.0,-1.0,1.0,0.0,-68.87207,-260.23691)">
 <g>
 <path d=" M  4.6799 0.0 C  3.29324 0.26 1.03998 1.03998 -0.51999 1.94995 L  -0.51999 -1.94995 C  1.03998 -1.03998 3.29324 -0.26 4.6799 0.0  " style="stroke:none"/>
 </g>
  </g>
 </g>
 </g>
 </g>
 </g>
 <g>
 <g stroke-width="0.8pt">
 <g>
 <path d=" M  -59.16068 -216.32774 L  -13.02046 -262.46764  " style="fill:none"/>
 <g>
 <g transform="matrix(0.7071,-0.70709,0.70709,0.7071,-13.02048,-262.46764)">
 <g>
 <path d=" M  4.6799 0.0 C  3.29324 0.26 1.03998 1.03998 -0.51999 1.94995 L  -0.51999 -1.94995 C  1.03998 -1.03998 3.29324 -0.26 4.6799 0.0  " style="stroke:none"/>
 </g>
  </g>
 </g>
 </g>
 </g>
 </g>
 <g>
 <g stroke-width="0.8pt">
 <g>
 <path d=" M  -52.92134 -214.59175 L  48.63866 -265.37193  " style="fill:none"/>
 <g>
 <g transform="matrix(0.898,-0.449,0.449,0.898,48.63864,-265.37193)">
 <g>
 <path d=" M  4.6799 0.0 C  3.29324 0.26 1.03998 1.03998 -0.51999 1.94995 L  -0.51999 -1.94995 C  1.03998 -1.03998 3.29324 -0.26 4.6799 0.0  " style="stroke:none"/>
 </g>
  </g>
 </g>
 </g>
 </g>
 </g>
 <g>
 <g stroke-width="0.8pt">
 <g>
 <path d=" M  -9.71172 -216.32774 L  -55.81621 -262.43239  " style="fill:none"/>
 <g>
 <g transform="matrix(-0.7071,-0.7071,0.7071,-0.7071,-55.8162,-262.43237)">
 <g>
 <path d=" M  4.6799 0.0 C  3.29324 0.26 1.03998 1.03998 -0.51999 1.94995 L  -0.51999 -1.94995 C  1.03998 -1.03998 3.29324 -0.26 4.6799 0.0  " style="stroke:none"/>
 </g>
  </g>
 </g>
 </g>
 </g>
 </g>
 <g>
 <g stroke-width="0.8pt">
 <g>
 <path d=" M  0.0 -217.18768 L  0.0 -260.23691  " style="fill:none"/>
 <g>
 <g transform="matrix(0.0,-1.0,1.0,0.0,0.0,-260.23691)">
 <g>
 <path d=" M  4.6799 0.0 C  3.29324 0.26 1.03998 1.03998 -0.51999 1.94995 L  -0.51999 -1.94995 C  1.03998 -1.03998 3.29324 -0.26 4.6799 0.0  " style="stroke:none"/>
 </g>
  </g>
 </g>
 </g>
 </g>
 </g>
 <g>
 <g stroke-width="0.8pt">
 <g>
 <path d=" M  9.71135 -216.32774 L  55.8512 -262.46764  " style="fill:none"/>
 <g>
 <g transform="matrix(0.7071,-0.70709,0.70709,0.7071,55.85118,-262.46764)">
 <g>
 <path d=" M  4.6799 0.0 C  3.29324 0.26 1.03998 1.03998 -0.51999 1.94995 L  -0.51999 -1.94995 C  1.03998 -1.03998 3.29324 -0.26 4.6799 0.0  " style="stroke:none"/>
 </g>
  </g>
 </g>
 </g>
 </g>
 </g>
 <g>
 <g stroke-width="0.8pt">
 <g>
 <path d=" M  52.68121 -214.7108 L  -48.57625 -265.34055  " style="fill:none"/>
 <g>
 <g transform="matrix(-0.89442,-0.44724,0.44724,-0.89442,-48.57625,-265.34053)">
 <g>
 <path d=" M  4.6799 0.0 C  3.29324 0.26 1.03998 1.03998 -0.51999 1.94995 L  -0.51999 -1.94995 C  1.03998 -1.03998 3.29324 -0.26 4.6799 0.0  " style="stroke:none"/>
 </g>
  </g>
 </g>
 </g>
 </g>
 </g>
 <g>
 <g stroke-width="0.8pt">
 <g>
 <path d=" M  59.12483 -216.36292 L  13.02046 -262.46756  " style="fill:none"/>
 <g>
 <g transform="matrix(-0.7071,-0.7071,0.7071,-0.7071,13.02048,-262.46754)">
 <g>
 <path d=" M  4.6799 0.0 C  3.29324 0.26 1.03998 1.03998 -0.51999 1.94995 L  -0.51999 -1.94995 C  1.03998 -1.03998 3.29324 -0.26 4.6799 0.0  " style="stroke:none"/>
 </g>
  </g>
 </g>
 </g>
 </g>
 </g>
 <g>
 <g stroke-width="0.8pt">
 <g>
 <path d=" M  68.87207 -217.18768 L  68.87207 -260.23691  " style="fill:none"/>
 <g>
 <g transform="matrix(0.0,-1.0,1.0,0.0,68.87207,-260.23691)">
 <g>
 <path d=" M  4.6799 0.0 C  3.29324 0.26 1.03998 1.03998 -0.51999 1.94995 L  -0.51999 -1.94995 C  1.03998 -1.03998 3.29324 -0.26 4.6799 0.0  " style="stroke:none"/>
 </g>
  </g>
 </g>
 </g>
 </g>
 </g>
 <g>
 <g stroke-width="0.8pt">
 <g>
 <path d=" M  -59.12502 -285.23499 L  -13.05548 -331.30446  " style="fill:none"/>
 <g>
 <g transform="matrix(0.7071,-0.7071,0.7071,0.7071,-13.0555,-331.30444)">
 <g>
 <path d=" M  4.6799 0.0 C  3.29324 0.26 1.03998 1.03998 -0.51999 1.94995 L  -0.51999 -1.94995 C  1.03998 -1.03998 3.29324 -0.26 4.6799 0.0  " style="stroke:none"/>
 </g>
  </g>
 </g>
 </g>
 </g>
 </g>
 <g>
 <g stroke-width="0.8pt">
 <g>
 <path d=" M  0.0 -286.05975 L  0.0 -329.10898  " style="fill:none"/>
 <g>
 <g transform="matrix(0.0,-1.0,1.0,0.0,0.0,-329.10898)">
 <g>
 <path d=" M  4.6799 0.0 C  3.29324 0.26 1.03998 1.03998 -0.51999 1.94995 L  -0.51999 -1.94995 C  1.03998 -1.03998 3.29324 -0.26 4.6799 0.0  " style="stroke:none"/>
 </g>
  </g>
 </g>
 </g>
 </g>
 </g>
 <g>
 <g stroke-width="0.8pt">
 <g>
 <path d=" M  59.15964 -285.19981 L  13.0554 -331.30446  " style="fill:none"/>
 <g>
 <g transform="matrix(-0.70709,-0.7071,0.7071,-0.70709,13.0554,-331.30444)">
 <g>
 <path d=" M  4.6799 0.0 C  3.29324 0.26 1.03998 1.03998 -0.51999 1.94995 L  -0.51999 -1.94995 C  1.03998 -1.03998 3.29324 -0.26 4.6799 0.0  " style="stroke:none"/>
 </g>
  </g>
 </g>
 </g>
 </g>
 </g>
 <g>
 <g stroke-width="0.8pt">
 <g>
 <path d=" M  -9.74667 -354.10706 L  -55.85185 -400.2117  " style="fill:none"/>
 <g>
 <g transform="matrix(-0.7071,-0.7071,0.7071,-0.7071,-55.85184,-400.21169)">
 <g>
 <path d=" M  4.6799 0.0 C  3.29324 0.26 1.03998 1.03998 -0.51999 1.94995 L  -0.51999 -1.94995 C  1.03998 -1.03998 3.29324 -0.26 4.6799 0.0  " style="stroke:none"/>
 </g>
  </g>
 </g>
 </g>
 </g>
 </g>
 <g>
 <g stroke-width="0.8pt">
 <g>
 <path d=" M  -59.16068 -422.94395 L  -12.0192 -470.08572  " style="fill:none"/>
 <g>
 <g transform="matrix(0.70715,-0.7071,0.7071,0.70715,-12.0192,-470.08571)">
 <g>
 <path d=" M  4.6799 0.0 C  3.29324 0.26 1.03998 1.03998 -0.51999 1.94995 L  -0.51999 -1.94995 C  1.03998 -1.03998 3.29324 -0.26 4.6799 0.0  " style="stroke:none"/>
 </g>
  </g>
 </g>
 </g>
 </g>
 </g>
 <g>
 <g stroke-width="0.8pt">
 <g>
 <path d=" M  0.0 -354.93182 L  0.0 -397.98105  " style="fill:none"/>
 <g>
 <g transform="matrix(0.0,-1.0,1.0,0.0,0.0,-397.98105)">
 <g>
 <path d=" M  4.6799 0.0 C  3.29324 0.26 1.03998 1.03998 -0.51999 1.94995 L  -0.51999 -1.94995 C  1.03998 -1.03998 3.29324 -0.26 4.6799 0.0  " style="stroke:none"/>
 </g>
  </g>
 </g>
 </g>
 </g>
 </g>
 <g>
 <g stroke-width="0.8pt">
 <g>
 <path d=" M  0.0 -423.8039 L  0.0 -467.44223  " style="fill:none"/>
 <g>
 <g transform="matrix(0.0,-1.0,1.0,0.0,0.0,-467.44223)">
 <g>
 <path d=" M  4.6799 0.0 C  3.29324 0.26 1.03998 1.03998 -0.51999 1.94995 L  -0.51999 -1.94995 C  1.03998 -1.03998 3.29324 -0.26 4.6799 0.0  " style="stroke:none"/>
 </g>
  </g>
 </g>
 </g>
 </g>
 </g>
 <g>
 <g stroke-width="0.8pt">
 <g>
 <path d=" M  9.74706 -354.10706 L  55.81602 -400.17653  " style="fill:none"/>
 <g>
 <g transform="matrix(0.7071,-0.7071,0.7071,0.7071,55.81601,-400.17651)">
 <g>
 <path d=" M  4.6799 0.0 C  3.29324 0.26 1.03998 1.03998 -0.51999 1.94995 L  -0.51999 -1.94995 C  1.03998 -1.03998 3.29324 -0.26 4.6799 0.0  " style="stroke:none"/>
 </g>
  </g>
 </g>
 </g>
 </g>
 </g>
 <g>
 <g stroke-width="0.8pt">
 <g>
 <path d=" M  59.12521 -422.97913 L  12.0189 -470.08572  " style="fill:none"/>
 <g>
 <g transform="matrix(-0.70709,-0.7071,0.7071,-0.70709,12.0189,-470.08571)">
 <g>
 <path d=" M  4.6799 0.0 C  3.29324 0.26 1.03998 1.03998 -0.51999 1.94995 L  -0.51999 -1.94995 C  1.03998 -1.03998 3.29324 -0.26 4.6799 0.0  " style="stroke:none"/>
 </g>
  </g>
 </g>
 </g>
 </g>
 </g>
 </g>
 </g>
 </g>
 </g>
 </g>
 
                                                        </g> 
</svg> 
