<?xml version="1.0" encoding="iso-8859-1" standalone="no"?> 
<?xml-stylesheet href="ref.css" type="text/css"?> 
<svg xmlns="http://www.w3.org/2000/svg" xmlns:xlink="http://www.w3.org/1999/xlink" width="211.38313pt" height="407.95923pt" viewBox="-105.56883 -397.97687 211.38313 407.95923 "> 
<g transform="translate(0, 9.98236 ) scale(1,-1) translate(0,397.97687 )"> 
                    <g>
 <g stroke="rgb(0.0%,0.0%,0.0%)">
 <g fill="rgb(0.0%,0.0%,0.0%)">
 <g stroke-width="0.4pt">
 <g>
 <g>
 <g stroke-width="0.8pt">
 <g>
 <g stroke-width="0.8pt">
 <path d=" M  17.21802 0.0 C  17.21802 5.29225 9.50937 9.58237 0.0 9.58237 C  -9.50937 9.58237 -17.21802 5.29225 -17.21802 0.0 C  -17.21802 -5.29225 -9.50937 -9.58237 0.0 -9.58237 C  9.50937 -9.58237 17.21802 -5.29225 17.21802 0.0 Z M  0.0 0.0  " style="fill:none"/>
 </g>
 </g>
 <g>
 <g transform="matrix(1.0,0.0,0.0,1.0,-3.74908,-3.4436)">
 <g fill="rgb(0.0%,0.0%,0.0%)">
 <text style="stroke:none" transform="scale(1,-1) translate(3.74908,0)" text-anchor="middle"  font-size="10"> 
A</text> 
</g>
 </g>
 </g>
 </g>
 </g>
 <g>
 <g>
 <g transform="matrix(1.0,0.0,0.0,1.0,0.0,-77.48108)">
 <g fill="rgb(0.0%,0.0%,0.0%)">
 <text style="stroke:none" transform="scale(1,-1) translate(0.0,0)" text-anchor="middle"  font-size="10"> 
</text> 
</g>
 </g>
 </g>
 </g>
 <g>
 <g stroke-width="0.8pt">
 <g>
 <g stroke-width="0.8pt">
 <path d=" M  -60.26306 -77.48108 C  -60.26306 -72.18883 -67.97171 -67.89871 -77.48108 -67.89871 C  -86.99045 -67.89871 -94.6991 -72.18883 -94.6991 -77.48108 C  -94.6991 -82.77333 -86.99045 -87.06345 -77.48108 -87.06345 C  -67.97171 -87.06345 -60.26306 -82.77333 -60.26306 -77.48108 Z M  -77.48108 -77.48108  " style="fill:none"/>
 </g>
 </g>
 <g>
 <g transform="matrix(1.0,0.0,0.0,1.0,-81.02188,-80.92468)">
 <g fill="rgb(0.0%,0.0%,0.0%)">
 <text style="stroke:none" transform="scale(1,-1) translate(3.5408,0)" text-anchor="middle"  font-size="10"> 
B</text> 
</g>
 </g>
 </g>
 </g>
 </g>
 <g>
 <g stroke-width="0.8pt">
 <g>
 <g stroke-width="0.8pt">
 <path d=" M  94.6991 -77.48108 C  94.6991 -72.18883 86.99045 -67.89871 77.48108 -67.89871 C  67.97171 -67.89871 60.26306 -72.18883 60.26306 -77.48108 C  60.26306 -82.77333 67.97171 -87.06345 77.48108 -87.06345 C  86.99045 -87.06345 94.6991 -82.77333 94.6991 -77.48108 Z M  77.48108 -77.48108  " style="fill:none"/>
 </g>
 </g>
 <g>
 <g transform="matrix(1.0,0.0,0.0,1.0,73.87085,-80.92468)">
 <g fill="rgb(0.0%,0.0%,0.0%)">
 <text style="stroke:none" transform="scale(1,-1) translate(3.61023,0)" text-anchor="middle"  font-size="10"> 
C</text> 
</g>
 </g>
 </g>
 </g>
 </g>
 <g>
 <g stroke-width="0.8pt">
 <g>
 <g stroke-width="0.8pt">
 <path d=" M  17.21802 -154.96216 C  17.21802 -149.6699 9.50937 -145.37979 0.0 -145.37979 C  -9.50937 -145.37979 -17.21802 -149.6699 -17.21802 -154.96216 C  -17.21802 -160.25441 -9.50937 -164.54453 0.0 -164.54453 C  9.50937 -164.54453 17.21802 -160.25441 17.21802 -154.96216 Z M  0.0 -154.96216  " style="fill:none"/>
 </g>
 </g>
 <g>
 <g transform="matrix(1.0,0.0,0.0,1.0,-3.81851,-158.40576)">
 <g fill="rgb(0.0%,0.0%,0.0%)">
 <text style="stroke:none" transform="scale(1,-1) translate(3.81851,0)" text-anchor="middle"  font-size="10"> 
D</text> 
</g>
 </g>
 </g>
 </g>
 </g>
 <g>
 <g stroke-width="0.8pt">
 <g>
 <g stroke-width="0.8pt">
 <path d=" M  27.3932 -232.44324 C  27.3932 -226.82562 15.12904 -222.27176 0.0 -222.27176 C  -15.12904 -222.27176 -27.3932 -226.82562 -27.3932 -232.44324 C  -27.3932 -238.06085 -15.12904 -242.61472 0.0 -242.61472 C  15.12904 -242.61472 27.3932 -238.06085 27.3932 -232.44324 Z M  0.0 -232.44324  " style="fill:none"/>
 </g>
 </g>
 <g>
 <g transform="matrix(1.0,0.0,0.0,1.0,-16.03775,-235.47028)">
 <g fill="rgb(0.0%,0.0%,0.0%)">
 <text style="stroke:none" transform="scale(1,-1) translate(16.03775,0)" text-anchor="middle"  font-size="10"> 
S2 + B</text> 
</g>
 </g>
 </g>
 </g>
 </g>
 <g>
 <g stroke-width="0.8pt">
 <g>
 <g stroke-width="0.8pt">
 <path d=" M  -49.79332 -232.44324 C  -49.79332 -226.82562 -62.18936 -222.27176 -77.48108 -222.27176 C  -92.7728 -222.27176 -105.16884 -226.82562 -105.16884 -232.44324 C  -105.16884 -238.06085 -92.7728 -242.61472 -77.48108 -242.61472 C  -62.18936 -242.61472 -49.79332 -238.06085 -49.79332 -232.44324 Z M  -77.48108 -232.44324  " style="fill:none"/>
 </g>
 </g>
 <g>
 <g transform="matrix(1.0,0.0,0.0,1.0,-93.72711,-235.47028)">
 <g fill="rgb(0.0%,0.0%,0.0%)">
 <text style="stroke:none" transform="scale(1,-1) translate(16.24603,0)" text-anchor="middle"  font-size="10"> 
S2 + A</text> 
</g>
 </g>
 </g>
 </g>
 </g>
 <g>
 <g stroke-width="0.8pt">
 <g>
 <g stroke-width="0.8pt">
 <path d=" M  104.97247 -232.44324 C  104.97247 -226.82562 92.66435 -222.27176 77.48108 -222.27176 C  62.2978 -222.27176 49.98969 -226.82562 49.98969 -232.44324 C  49.98969 -238.06085 62.2978 -242.61472 77.48108 -242.61472 C  92.66435 -242.61472 104.97247 -238.06085 104.97247 -232.44324 Z M  77.48108 -232.44324  " style="fill:none"/>
 </g>
 </g>
 <g>
 <g transform="matrix(1.0,0.0,0.0,1.0,61.3739,-235.47028)">
 <g fill="rgb(0.0%,0.0%,0.0%)">
 <text style="stroke:none" transform="scale(1,-1) translate(16.10718,0)" text-anchor="middle"  font-size="10"> 
S2 + C</text> 
</g>
 </g>
 </g>
 </g>
 </g>
 <g>
 <g stroke-width="0.8pt">
 <g>
 <g stroke-width="0.8pt">
 <path d=" M  27.78595 -309.92432 C  27.78595 -304.3067 15.34595 -299.75284 0.0 -299.75284 C  -15.34595 -299.75284 -27.78595 -304.3067 -27.78595 -309.92432 C  -27.78595 -315.54193 -15.34595 -320.0958 0.0 -320.0958 C  15.34595 -320.0958 27.78595 -315.54193 27.78595 -309.92432 Z M  0.0 -309.92432  " style="fill:none"/>
 </g>
 </g>
 <g>
 <g transform="matrix(1.0,0.0,0.0,1.0,-16.31546,-312.95135)">
 <g fill="rgb(0.0%,0.0%,0.0%)">
 <text style="stroke:none" transform="scale(1,-1) translate(16.31546,0)" text-anchor="middle"  font-size="10"> 
S2 + D</text> 
</g>
 </g>
 </g>
 </g>
 </g>
 <g>
 <g stroke-width="0.8pt">
 <g>
 <g stroke-width="0.8pt">
 <path d=" M  27.00046 -387.4054 C  27.00046 -381.78778 14.91212 -377.23392 0.0 -377.23392 C  -14.91212 -377.23392 -27.00046 -381.78778 -27.00046 -387.4054 C  -27.00046 -393.02301 -14.91212 -397.57687 0.0 -397.57687 C  14.91212 -397.57687 27.00046 -393.02301 27.00046 -387.4054 Z M  0.0 -387.4054  " style="fill:none"/>
 </g>
 </g>
 <g>
 <g transform="matrix(1.0,0.0,0.0,1.0,-15.76004,-390.43243)">
 <g fill="rgb(0.0%,0.0%,0.0%)">
 <text style="stroke:none" transform="scale(1,-1) translate(15.76004,0)" text-anchor="middle"  font-size="10"> 
S2 + F</text> 
</g>
 </g>
 </g>
 </g>
 </g>
 <g>
 <g stroke-width="0.8pt">
 <g>
 <g stroke-width="0.8pt">
 <path d=" M  -50.28424 -387.4054 C  -50.28424 -381.78778 -62.4605 -377.23392 -77.48108 -377.23392 C  -92.50166 -377.23392 -104.67792 -381.78778 -104.67792 -387.4054 C  -104.67792 -393.02301 -92.50166 -397.57687 -77.48108 -397.57687 C  -62.4605 -397.57687 -50.28424 -393.02301 -50.28424 -387.4054 Z M  -77.48108 -387.4054  " style="fill:none"/>
 </g>
 </g>
 <g>
 <g transform="matrix(1.0,0.0,0.0,1.0,-93.37997,-390.43243)">
 <g fill="rgb(0.0%,0.0%,0.0%)">
 <text style="stroke:none" transform="scale(1,-1) translate(15.8989,0)" text-anchor="middle"  font-size="10"> 
S2 + E</text> 
</g>
 </g>
 </g>
 </g>
 </g>
 <g>
 <g stroke-width="0.8pt">
 <g>
 <g stroke-width="0.8pt">
 <path d=" M  105.4143 -387.4054 C  105.4143 -381.78778 92.90837 -377.23392 77.48108 -377.23392 C  62.05379 -377.23392 49.54785 -381.78778 49.54785 -387.4054 C  49.54785 -393.02301 62.05379 -397.57687 77.48108 -397.57687 C  92.90837 -397.57687 105.4143 -393.02301 105.4143 -387.4054 Z M  77.48108 -387.4054  " style="fill:none"/>
 </g>
 </g>
 <g>
 <g transform="matrix(1.0,0.0,0.0,1.0,61.06148,-390.43243)">
 <g fill="rgb(0.0%,0.0%,0.0%)">
 <text style="stroke:none" transform="scale(1,-1) translate(16.4196,0)" text-anchor="middle"  font-size="10"> 
S2 + G</text> 
</g>
 </g>
 </g>
 </g>
 </g>
 <g>
 <g stroke-width="0.8pt">
 <g>
 <path d=" M  -8.7106 -8.70958 L  -65.46182 -65.46231  " style="fill:none"/>
 <g>
 <g transform="matrix(-0.7071,-0.7071,0.7071,-0.7071,-65.4618,-65.4623)">
 <g>
 <path d=" M  4.6799 0.0 C  3.29324 0.26 1.03998 1.03998 -0.51999 1.94995 L  -0.51999 -1.94995 C  1.03998 -1.03998 3.29324 -0.26 4.6799 0.0  " style="stroke:none"/>
 </g>
  </g>
 </g>
 </g>
 </g>
 </g>
 <g>
 <g stroke-width="0.8pt">
 <g>
 <path d=" M  8.7106 -8.70958 L  65.46182 -65.46231  " style="fill:none"/>
 <g>
 <g transform="matrix(0.7071,-0.7071,0.7071,0.7071,65.4618,-65.4623)">
 <g>
 <path d=" M  4.6799 0.0 C  3.29324 0.26 1.03998 1.03998 -0.51999 1.94995 L  -0.51999 -1.94995 C  1.03998 -1.03998 3.29324 -0.26 4.6799 0.0  " style="stroke:none"/>
 </g>
  </g>
 </g>
 </g>
 </g>
 </g>
 <g>
 <g stroke-width="0.8pt">
 <g>
 <path d=" M  -68.77048 -86.19066 L  -12.01926 -142.94339  " style="fill:none"/>
 <g>
 <g transform="matrix(0.7071,-0.7071,0.7071,0.7071,-12.01927,-142.94337)">
 <g>
 <path d=" M  4.6799 0.0 C  3.29324 0.26 1.03998 1.03998 -0.51999 1.94995 L  -0.51999 -1.94995 C  1.03998 -1.03998 3.29324 -0.26 4.6799 0.0  " style="stroke:none"/>
 </g>
  </g>
 </g>
 </g>
 </g>
 </g>
 <g>
 <g stroke-width="0.8pt">
 <g>
 <path d=" M  68.77048 -86.19066 L  12.01926 -142.94339  " style="fill:none"/>
 <g>
 <g transform="matrix(-0.7071,-0.7071,0.7071,-0.7071,12.01927,-142.94337)">
 <g>
 <path d=" M  4.6799 0.0 C  3.29324 0.26 1.03998 1.03998 -0.51999 1.94995 L  -0.51999 -1.94995 C  1.03998 -1.03998 3.29324 -0.26 4.6799 0.0  " style="stroke:none"/>
 </g>
  </g>
 </g>
 </g>
 </g>
 </g>
 <g>
 <g stroke-width="0.8pt">
 <g>
 <path d=" M  -8.71007 -163.67174 L  -64.24059 -219.20287  " style="fill:none"/>
 <g>
 <g transform="matrix(-0.71062,-0.71065,0.71065,-0.71062,-64.24057,-219.20287)">
 <g>
 <path d=" M  4.6799 0.0 C  3.29324 0.26 1.03998 1.03998 -0.51999 1.94995 L  -0.51999 -1.94995 C  1.03998 -1.03998 3.29324 -0.26 4.6799 0.0  " style="stroke:none"/>
 </g>
  </g>
 </g>
 </g>
 </g>
 </g>
 <g>
 <g stroke-width="0.8pt">
 <g>
 <path d=" M  -67.5662 -242.35785 L  -13.22346 -296.70038  " style="fill:none"/>
 <g>
 <g transform="matrix(0.7071,-0.70714,0.70714,0.7071,-13.22348,-296.70036)">
 <g>
 <path d=" M  4.6799 0.0 C  3.29324 0.26 1.03998 1.03998 -0.51999 1.94995 L  -0.51999 -1.94995 C  1.03998 -1.03998 3.29324 -0.26 4.6799 0.0  " style="stroke:none"/>
 </g>
  </g>
 </g>
 </g>
 </g>
 </g>
 <g>
 <g stroke-width="0.8pt">
 <g>
 <path d=" M  0.0 -164.94452 L  0.0 -217.19186  " style="fill:none"/>
 <g>
 <g transform="matrix(0.0,-1.0,1.0,0.0,0.0,-217.19186)">
 <g>
 <path d=" M  4.6799 0.0 C  3.29324 0.26 1.03998 1.03998 -0.51999 1.94995 L  -0.51999 -1.94995 C  1.03998 -1.03998 3.29324 -0.26 4.6799 0.0  " style="stroke:none"/>
 </g>
  </g>
 </g>
 </g>
 </g>
 </g>
 <g>
 <g stroke-width="0.8pt">
 <g>
 <path d=" M  0.0 -243.01471 L  0.0 -294.67294  " style="fill:none"/>
 <g>
 <g transform="matrix(0.0,-1.0,1.0,0.0,0.0,-294.67294)">
 <g>
 <path d=" M  4.6799 0.0 C  3.29324 0.26 1.03998 1.03998 -0.51999 1.94995 L  -0.51999 -1.94995 C  1.03998 -1.03998 3.29324 -0.26 4.6799 0.0  " style="stroke:none"/>
 </g>
  </g>
 </g>
 </g>
 </g>
 </g>
 <g>
 <g stroke-width="0.8pt">
 <g>
 <path d=" M  8.71007 -163.67174 L  64.24097 -219.20287  " style="fill:none"/>
 <g>
 <g transform="matrix(0.71062,-0.71065,0.71065,0.71062,64.24095,-219.20287)">
 <g>
 <path d=" M  4.6799 0.0 C  3.29324 0.26 1.03998 1.03998 -0.51999 1.94995 L  -0.51999 -1.94995 C  1.03998 -1.03998 3.29324 -0.26 4.6799 0.0  " style="stroke:none"/>
 </g>
  </g>
 </g>
 </g>
 </g>
 </g>
 <g>
 <g stroke-width="0.8pt">
 <g>
 <path d=" M  67.56657 -242.35785 L  13.22346 -296.70038  " style="fill:none"/>
 <g>
 <g transform="matrix(-0.7071,-0.70714,0.70714,-0.7071,13.22348,-296.70036)">
 <g>
 <path d=" M  4.6799 0.0 C  3.29324 0.26 1.03998 1.03998 -0.51999 1.94995 L  -0.51999 -1.94995 C  1.03998 -1.03998 3.29324 -0.26 4.6799 0.0  " style="stroke:none"/>
 </g>
  </g>
 </g>
 </g>
 </g>
 </g>
 <g>
 <g stroke-width="0.8pt">
 <g>
 <path d=" M  -9.91428 -319.83893 L  -64.2905 -374.21417  " style="fill:none"/>
 <g>
 <g transform="matrix(-0.7071,-0.7071,0.7071,-0.7071,-64.29048,-374.21416)">
 <g>
 <path d=" M  4.6799 0.0 C  3.29324 0.26 1.03998 1.03998 -0.51999 1.94995 L  -0.51999 -1.94995 C  1.03998 -1.03998 3.29324 -0.26 4.6799 0.0  " style="stroke:none"/>
 </g>
  </g>
 </g>
 </g>
 </g>
 </g>
 <g>
 <g stroke-width="0.8pt">
 <g>
 <path d=" M  0.0 -320.49579 L  0.0 -372.15402  " style="fill:none"/>
 <g>
 <g transform="matrix(0.0,-1.0,1.0,0.0,0.0,-372.15402)">
 <g>
 <path d=" M  4.6799 0.0 C  3.29324 0.26 1.03998 1.03998 -0.51999 1.94995 L  -0.51999 -1.94995 C  1.03998 -1.03998 3.29324 -0.26 4.6799 0.0  " style="stroke:none"/>
 </g>
  </g>
 </g>
 </g>
 </g>
 </g>
 <g>
 <g stroke-width="0.8pt">
 <g>
 <path d=" M  9.91428 -319.83893 L  64.25726 -374.18146  " style="fill:none"/>
 <g>
 <g transform="matrix(0.7071,-0.70714,0.70714,0.7071,64.25725,-374.18144)">
 <g>
 <path d=" M  4.6799 0.0 C  3.29324 0.26 1.03998 1.03998 -0.51999 1.94995 L  -0.51999 -1.94995 C  1.03998 -1.03998 3.29324 -0.26 4.6799 0.0  " style="stroke:none"/>
 </g>
  </g>
 </g>
 </g>
 </g>
 </g>
 </g>
 </g>
 </g>
 </g>
 </g>
 
                                                               </g> 
</svg> 
