<?xml version="1.0" encoding="iso-8859-1" standalone="no"?> 
<?xml-stylesheet href="ref.css" type="text/css"?> 
<svg xmlns="http://www.w3.org/2000/svg" xmlns:xlink="http://www.w3.org/1999/xlink" width="364.45921pt" height="205.66235pt" viewBox="-84.66783 -92.08899 364.45921 205.66235 "> 
<g transform="translate(0, 113.57336 ) scale(1,-1) translate(0,92.08899 )"> 
                         <g>
 <g stroke="rgb(0.0%,0.0%,0.0%)">
 <g fill="rgb(0.0%,0.0%,0.0%)">
 <g stroke-width="0.4pt">
 <g>
 <g>
 <g stroke-width="1.6pt">
 <g>
 <g stroke-width="1.6pt">
 <path d=" M  17.88336 8.0476 L  -17.88336 8.0476 C  -19.54024 8.0476 -20.88336 6.70448 -20.88336 5.0476 L  -20.88336 -5.0476 C  -20.88336 -6.70448 -19.54024 -8.0476 -17.88336 -8.0476 L  17.88336 -8.0476 C  19.54024 -8.0476 20.88336 -6.70448 20.88336 -5.0476 L  20.88336 5.0476 C  20.88336 6.70448 19.54024 8.0476 17.88336 8.0476 Z M  -20.88336 -8.0476  " style="fill:none"/>
 </g>
 </g>
 <g>
 <g transform="matrix(1.0,0.0,0.0,1.0,-16.96808,-4.13232)">
 <g fill="rgb(0.0%,0.0%,0.0%)">
 <text style="stroke:none" transform="scale(1,-1) translate(16.96808,0)" text-anchor="middle"  font-size="12"> 
Owner</text> 
</g>
 </g>
 </g>
 </g>
 </g>
 <g>
 <g stroke-width="1.6pt">
 <g>
 <g stroke-width="1.6pt">
 <path d=" M  121.1373 8.0476 L  64.81729 8.0476 C  63.16042 8.0476 61.81729 6.70448 61.81729 5.0476 L  61.81729 -5.0476 C  61.81729 -6.70448 63.16042 -8.0476 64.81729 -8.0476 L  121.1373 -8.0476 C  122.79417 -8.0476 124.1373 -6.70448 124.1373 -5.0476 L  124.1373 5.0476 C  124.1373 6.70448 122.79417 8.0476 121.1373 8.0476 Z M  61.81729 -8.0476  " style="fill:none"/>
 </g>
 </g>
 <g>
 <g transform="matrix(1.0,0.0,0.0,1.0,65.73257,-4.13232)">
 <g fill="rgb(0.0%,0.0%,0.0%)">
 <text style="stroke:none" transform="scale(1,-1) translate(27.24472,0)" text-anchor="middle"  font-size="12"> 
Unclaimed</text> 
</g>
 </g>
 </g>
 </g>
 </g>
 <g>
 <g stroke-width="1.6pt">
 <g>
 <g stroke-width="1.6pt">
 <path d=" M  209.05681 8.0476 L  162.85237 8.0476 C  161.1955 8.0476 159.85237 6.70448 159.85237 5.0476 L  159.85237 -5.0476 C  159.85237 -6.70448 161.1955 -8.0476 162.85237 -8.0476 L  209.05681 -8.0476 C  210.71368 -8.0476 212.05681 -6.70448 212.05681 -5.0476 L  212.05681 5.0476 C  212.05681 6.70448 210.71368 8.0476 209.05681 8.0476 Z M  159.85237 -8.0476  " style="fill:none"/>
 </g>
 </g>
 <g>
 <g transform="matrix(1.0,0.0,0.0,1.0,163.76765,-4.13232)">
 <g fill="rgb(0.0%,0.0%,0.0%)">
 <text style="stroke:none" transform="scale(1,-1) translate(22.18694,0)" text-anchor="middle"  font-size="12"> 
Matched</text> 
</g>
 </g>
 </g>
 </g>
 </g>
 <g>
 <g stroke-width="1.6pt">
 <g>
 <g stroke-width="1.6pt">
 <path d=" M  48.6225 -57.69733 L  5.84222 -57.69733 C  4.18535 -57.69733 2.84222 -59.04045 2.84222 -60.69733 L  2.84222 -70.79254 C  2.84222 -72.44942 4.18535 -73.79254 5.84222 -73.79254 L  48.6225 -73.79254 C  50.27937 -73.79254 51.6225 -72.44942 51.6225 -70.79254 L  51.6225 -60.69733 C  51.6225 -59.04045 50.27937 -57.69733 48.6225 -57.69733 Z M  2.84222 -73.79254  " style="fill:none"/>
 </g>
 </g>
 <g>
 <g transform="matrix(1.0,0.0,0.0,1.0,6.7575,-69.87726)">
 <g fill="rgb(0.0%,0.0%,0.0%)">
 <text style="stroke:none" transform="scale(1,-1) translate(20.47485,0)" text-anchor="middle"  font-size="12"> 
Drained</text> 
</g>
 </g>
 </g>
 </g>
 </g>
 <g>
 <g stroke-width="1.6pt">
 <g>
 <g stroke-width="1.6pt">
 <path d=" M  271.7844 -57.69733 L  231.61465 -57.69733 C  229.95778 -57.69733 228.61465 -59.04045 228.61465 -60.69733 L  228.61465 -70.79254 C  228.61465 -72.44942 229.95778 -73.79254 231.61465 -73.79254 L  271.7844 -73.79254 C  273.44127 -73.79254 274.7844 -72.44942 274.7844 -70.79254 L  274.7844 -60.69733 C  274.7844 -59.04045 273.44127 -57.69733 271.7844 -57.69733 Z M  228.61465 -73.79254  " style="fill:none"/>
 </g>
 </g>
 <g>
 <g transform="matrix(1.0,0.0,0.0,1.0,232.52994,-69.87726)">
 <g fill="rgb(0.0%,0.0%,0.0%)">
 <text style="stroke:none" transform="scale(1,-1) translate(19.16959,0)" text-anchor="middle"  font-size="12"> 
Backfill</text> 
</g>
 </g>
 </g>
 </g>
 </g>
 <g>
 <g stroke-width="1.6pt">
 <g>
 <g stroke-width="1.6pt">
 <path d=" M  273.82489 73.79254 L  229.57416 73.79254 C  227.91728 73.79254 226.57416 72.44942 226.57416 70.79254 L  226.57416 60.69733 C  226.57416 59.04045 227.91728 57.69733 229.57416 57.69733 L  273.82489 57.69733 C  275.48177 57.69733 276.82489 59.04045 276.82489 60.69733 L  276.82489 70.79254 C  276.82489 72.44942 275.48177 73.79254 273.82489 73.79254 Z M  226.57416 57.69733  " style="fill:none"/>
 </g>
 </g>
 <g>
 <g transform="matrix(1.0,0.0,0.0,1.0,230.48944,61.61261)">
 <g fill="rgb(0.0%,0.0%,0.0%)">
 <text style="stroke:none" transform="scale(1,-1) translate(21.21008,0)" text-anchor="middle"  font-size="12"> 
Claimed</text> 
</g>
 </g>
 </g>
 </g>
 </g>
 <g>
 <g stroke-width="1.6pt">
 <g>
 <g stroke-width="1.6pt">
 <path d=" M  57.92232 74.95892 L  -3.4576 74.95892 C  -5.11447 74.95892 -6.4576 73.6158 -6.4576 71.95892 L  -6.4576 59.53094 C  -6.4576 57.87407 -5.11447 56.53094 -3.4576 56.53094 L  57.92232 56.53094 C  59.5792 56.53094 60.92232 57.87407 60.92232 59.53094 L  60.92232 71.95892 C  60.92232 73.6158 59.5792 74.95892 57.92232 74.95892 Z M  -6.4576 56.53094  " style="fill:none"/>
 </g>
 </g>
 <g>
 <g transform="matrix(1.0,0.0,0.0,1.0,-2.54231,62.77899)">
 <g fill="rgb(0.0%,0.0%,0.0%)">
 <text style="stroke:none" transform="scale(1,-1) translate(29.77467,0)" text-anchor="middle"  font-size="12"> 
Preempting</text> 
</g>
 </g>
 </g>
 </g>
 </g>
 <g>
 <g stroke-dasharray="3.0pt,3.0pt" stroke-dashoffset="0.0pt">
 <g>
 <g stroke-dasharray="3.0pt,3.0pt" stroke-dashoffset="0.0pt">
 <path d=" M  -47.02203 65.74493 C  -47.02203 76.08543 -55.40443 84.46783 -65.74493 84.46783 C  -76.08543 84.46783 -84.46783 76.08543 -84.46783 65.74493 C  -84.46783 55.40443 -76.08543 47.02203 -65.74493 47.02203 C  -55.40443 47.02203 -47.02203 55.40443 -47.02203 65.74493 Z M  -65.74493 65.74493  " style="fill:none"/>
 </g>
 </g>
 <g>
 <g transform="matrix(1.0,0.0,0.0,1.0,-78.7973,61.61261)">
 <g fill="rgb(0.0%,0.0%,0.0%)">
 <text style="stroke:none" transform="scale(1,-1) translate(13.05237,0)" text-anchor="middle"  font-size="12"> 
Start</text> 
</g>
 </g>
 </g>
 </g>
 </g>
 <g>
 <g stroke-width="1.6pt">
 <g>
 <path d=" M  -52.29742 52.29887 L  -9.70006 9.70734  " style="fill:none"/>
 <g>
 <g transform="matrix(0.71065,-0.71053,0.71053,0.71065,-9.70006,9.70735)">
 <g>
 <g stroke-width="1.28pt">
 <g stroke-dasharray="none" stroke-dashoffset="0.0pt">
 <g stroke-linecap="round">
 <g stroke-linejoin="round">
 <path d=" M  -2.27998 3.03998 C  -2.08998 1.89998 0.0 0.18999 0.56999 0.0 C  0.0 -0.18999 -2.08998 -1.89998 -2.27998 -3.03998  " style="fill:none"/>
 </g>
 </g>
 </g>
 </g>
 </g>
  </g>
 </g>
 </g>
 </g>
 </g>
 <g>
 <g stroke-width="1.6pt">
 <g>
 <path d=" M  21.68336 -8.84761 C  36.6921 -13.52943 49.45833 -10.65701 60.12682 -0.82098  " style="fill:none"/>
 <g>
 <g transform="matrix(0.73593,0.6785,-0.6785,0.73593,60.1268,-0.82098)">
 <g>
 <g stroke-width="1.28pt">
 <g stroke-dasharray="none" stroke-dashoffset="0.0pt">
 <g stroke-linecap="round">
 <g stroke-linejoin="round">
 <path d=" M  -2.27998 3.03998 C  -2.08998 1.89998 0.0 0.18999 0.56999 0.0 C  0.0 -0.18999 -2.08998 -1.89998 -2.27998 -3.03998  " style="fill:none"/>
 </g>
 </g>
 </g>
 </g>
 </g>
  </g>
 </g>
 </g>
 </g>
 </g>
 <g>
 <g stroke-width="1.6pt">
 <g>
 <path d=" M  61.01729 0.0 C  47.73328 7.66951 34.96738 7.66951 22.73457 0.60695  " style="fill:none"/>
 <g>
 <g transform="matrix(-0.86877,-0.50162,0.50162,-0.86877,22.73457,0.60695)">
 <g>
 <g stroke-width="1.28pt">
 <g stroke-dasharray="none" stroke-dashoffset="0.0pt">
 <g stroke-linecap="round">
 <g stroke-linejoin="round">
 <path d=" M  -2.27998 3.03998 C  -2.08998 1.89998 0.0 0.18999 0.56999 0.0 C  0.0 -0.18999 -2.08998 -1.89998 -2.27998 -3.03998  " style="fill:none"/>
 </g>
 </g>
 </g>
 </g>
 </g>
  </g>
 </g>
 </g>
 </g>
 </g>
 <g>
 <g>
 <g transform="matrix(1.0,0.0,0.0,1.0,32.58556,-9.82278)">
 <g fill="rgb(0.0%,0.0%,0.0%)">
 <text style="stroke:none" transform="scale(1,-1) translate(4.40309,0)" text-anchor="middle"  font-size="12"> 
A</text> 
</g>
 </g>
 </g>
 </g>
 <g>
 <g>
 <g transform="matrix(1.0,0.0,0.0,1.0,46.1388,10.09404)">
 <g fill="rgb(0.0%,0.0%,0.0%)">
 <text style="stroke:none" transform="scale(1,-1) translate(4.1594,0)" text-anchor="middle"  font-size="12"> 
B</text> 
</g>
 </g>
 </g>
 </g>
 <g>
 <g stroke-width="1.6pt">
 <g>
 <path d=" M  124.9373 0.0 L  157.84236 0.0  " style="fill:none"/>
 <g>
 <g transform="matrix(1.0,0.0,0.0,1.0,157.84236,0.0)">
 <g>
 <g stroke-width="1.28pt">
 <g stroke-dasharray="none" stroke-dashoffset="0.0pt">
 <g stroke-linecap="round">
 <g stroke-linejoin="round">
 <path d=" M  -2.27998 3.03998 C  -2.08998 1.89998 0.0 0.18999 0.56999 0.0 C  0.0 -0.18999 -2.08998 -1.89998 -2.27998 -3.03998  " style="fill:none"/>
 </g>
 </g>
 </g>
 </g>
 </g>
  </g>
 </g>
 <g>
 <g>
 <g transform="matrix(1.0,0.0,0.0,1.0,137.7528,4.71529)">
 <g fill="rgb(0.0%,0.0%,0.0%)">
 <text style="stroke:none" transform="scale(1,-1) translate(4.24202,0)" text-anchor="middle"  font-size="12"> 
C</text> 
</g>
 </g>
 </g>
 </g>
 </g>
 </g>
 </g>
 <g>
 <g stroke-width="1.6pt">
 <g>
 <path d=" M  113.61249 8.84761 L  224.65855 56.41939  " style="fill:none"/>
 <g>
 <g transform="matrix(0.92198,0.39499,-0.39499,0.92198,224.65855,56.41939)">
 <g>
 <g stroke-width="1.28pt">
 <g stroke-dasharray="none" stroke-dashoffset="0.0pt">
 <g stroke-linecap="round">
 <g stroke-linejoin="round">
 <path d=" M  -2.27998 3.03998 C  -2.08998 1.89998 0.0 0.18999 0.56999 0.0 C  0.0 -0.18999 -2.08998 -1.89998 -2.27998 -3.03998  " style="fill:none"/>
 </g>
 </g>
 </g>
 </g>
 </g>
  </g>
 </g>
 <g>
 <g>
 <g transform="matrix(1.0,0.0,0.0,1.0,156.00662,37.58775)">
 <g fill="rgb(0.0%,0.0%,0.0%)">
 <text style="stroke:none" transform="scale(1,-1) translate(4.4857,0)" text-anchor="middle"  font-size="12"> 
D</text> 
</g>
 </g>
 </g>
 </g>
 </g>
 </g>
 </g>
 <g>
 <g stroke-width="1.6pt">
 <g>
 <path d=" M  114.32463 -8.84761 L  229.23763 -56.43372  " style="fill:none"/>
 <g>
 <g transform="matrix(0.92525,-0.38315,0.38315,0.92525,229.23761,-56.43372)">
 <g>
 <g stroke-width="1.28pt">
 <g stroke-dasharray="none" stroke-dashoffset="0.0pt">
 <g stroke-linecap="round">
 <g stroke-linejoin="round">
 <path d=" M  -2.27998 3.03998 C  -2.08998 1.89998 0.0 0.18999 0.56999 0.0 C  0.0 -0.18999 -2.08998 -1.89998 -2.27998 -3.03998  " style="fill:none"/>
 </g>
 </g>
 </g>
 </g>
 </g>
  </g>
 </g>
 <g>
 <g>
 <g transform="matrix(1.0,0.0,0.0,1.0,177.05618,-28.15718)">
 <g fill="rgb(0.0%,0.0%,0.0%)">
 <text style="stroke:none" transform="scale(1,-1) translate(3.99625,0)" text-anchor="middle"  font-size="12"> 
E</text> 
</g>
 </g>
 </g>
 </g>
 </g>
 </g>
 </g>
 <g>
 <g stroke-width="1.6pt">
 <g>
 <path d=" M  84.13496 -8.84761 L  36.93242 -56.03763  " style="fill:none"/>
 <g>
 <g transform="matrix(-0.71065,-0.7105,0.7105,-0.71065,36.93242,-56.03761)">
 <g>
 <g stroke-width="1.28pt">
 <g stroke-dasharray="none" stroke-dashoffset="0.0pt">
 <g stroke-linecap="round">
 <g stroke-linejoin="round">
 <path d=" M  -2.27998 3.03998 C  -2.08998 1.89998 0.0 0.18999 0.56999 0.0 C  0.0 -0.18999 -2.08998 -1.89998 -2.27998 -3.03998  " style="fill:none"/>
 </g>
 </g>
 </g>
 </g>
 </g>
  </g>
 </g>
 <g>
 <g>
 <g transform="matrix(1.0,0.0,0.0,1.0,64.81905,-45.8524)">
 <g fill="rgb(0.0%,0.0%,0.0%)">
 <text style="stroke:none" transform="scale(1,-1) translate(3.99625,0)" text-anchor="middle"  font-size="12"> 
P</text> 
</g>
 </g>
 </g>
 </g>
 </g>
 </g>
 </g>
 <g>
 <g stroke-width="1.6pt">
 <g>
 <path d=" M  170.6488 8.84761 C  118.18544 39.13727 67.76915 39.13727 16.357 9.45457  " style="fill:none"/>
 <g>
 <g transform="matrix(-0.86877,-0.50163,0.50163,-0.86877,16.357,9.45459)">
 <g>
 <g stroke-width="1.28pt">
 <g stroke-dasharray="none" stroke-dashoffset="0.0pt">
 <g stroke-linecap="round">
 <g stroke-linejoin="round">
 <path d=" M  -2.27998 3.03998 C  -2.08998 1.89998 0.0 0.18999 0.56999 0.0 C  0.0 -0.18999 -2.08998 -1.89998 -2.27998 -3.03998  " style="fill:none"/>
 </g>
 </g>
 </g>
 </g>
 </g>
  </g>
 </g>
 <g>
 <g>
 <g transform="matrix(1.0,0.0,0.0,1.0,89.14418,18.58492)">
 <g fill="rgb(0.0%,0.0%,0.0%)">
 <text style="stroke:none" transform="scale(1,-1) translate(3.83308,0)" text-anchor="middle"  font-size="12"> 
F</text> 
</g>
 </g>
 </g>
 </g>
 </g>
 </g>
 </g>
 <g>
 <g stroke-width="1.6pt">
 <g>
 <path d=" M  194.79692 8.84761 L  241.99947 56.03763  " style="fill:none"/>
 <g>
 <g transform="matrix(0.71065,0.7105,-0.7105,0.71065,241.99947,56.03761)">
 <g>
 <g stroke-width="1.28pt">
 <g stroke-dasharray="none" stroke-dashoffset="0.0pt">
 <g stroke-linecap="round">
 <g stroke-linejoin="round">
 <path d=" M  -2.27998 3.03998 C  -2.08998 1.89998 0.0 0.18999 0.56999 0.0 C  0.0 -0.18999 -2.08998 -1.89998 -2.27998 -3.03998  " style="fill:none"/>
 </g>
 </g>
 </g>
 </g>
 </g>
  </g>
 </g>
 <g>
 <g>
 <g transform="matrix(1.0,0.0,0.0,1.0,204.89565,37.58775)">
 <g fill="rgb(0.0%,0.0%,0.0%)">
 <text style="stroke:none" transform="scale(1,-1) translate(4.6086,0)" text-anchor="middle"  font-size="12"> 
G</text> 
</g>
 </g>
 </g>
 </g>
 </g>
 </g>
 </g>
 <g>
 <g stroke-width="1.6pt">
 <g>
 <path d=" M  236.39928 74.59254 C  171.83386 112.39394 109.5694 112.77336 45.60538 76.35994  " style="fill:none"/>
 <g>
 <g transform="matrix(-0.87251,-0.4967,0.4967,-0.87251,45.60538,76.35994)">
 <g>
 <g stroke-width="1.28pt">
 <g stroke-dasharray="none" stroke-dashoffset="0.0pt">
 <g stroke-linecap="round">
 <g stroke-linejoin="round">
 <path d=" M  -2.27998 3.03998 C  -2.08998 1.89998 0.0 0.18999 0.56999 0.0 C  0.0 -0.18999 -2.08998 -1.89998 -2.27998 -3.03998  " style="fill:none"/>
 </g>
 </g>
 </g>
 </g>
 </g>
  </g>
 </g>
 <g>
 <g>
 <g transform="matrix(1.0,0.0,0.0,1.0,136.24173,90.25171)">
 <g fill="rgb(0.0%,0.0%,0.0%)">
 <text style="stroke:none" transform="scale(1,-1) translate(4.40309,0)" text-anchor="middle"  font-size="12"> 
H</text> 
</g>
 </g>
 </g>
 </g>
 </g>
 </g>
 </g>
 <g>
 <g stroke-width="1.6pt">
 <g>
 <path d=" M  61.72232 65.74493 L  224.56415 65.74493  " style="fill:none"/>
 <g>
 <g transform="matrix(1.0,0.0,0.0,1.0,224.56415,65.74493)">
 <g>
 <g stroke-width="1.28pt">
 <g stroke-dasharray="none" stroke-dashoffset="0.0pt">
 <g stroke-linecap="round">
 <g stroke-linejoin="round">
 <path d=" M  -2.27998 3.03998 C  -2.08998 1.89998 0.0 0.18999 0.56999 0.0 C  0.0 -0.18999 -2.08998 -1.89998 -2.27998 -3.03998  " style="fill:none"/>
 </g>
 </g>
 </g>
 </g>
 </g>
  </g>
 </g>
 <g>
 <g>
 <g transform="matrix(1.0,0.0,0.0,1.0,141.62932,70.46022)">
 <g fill="rgb(0.0%,0.0%,0.0%)">
 <text style="stroke:none" transform="scale(1,-1) translate(2.11891,0)" text-anchor="middle"  font-size="12"> 
I</text> 
</g>
 </g>
 </g>
 </g>
 </g>
 </g>
 </g>
 <g>
 <g stroke-width="1.6pt">
 <g>
 <path d=" M  14.18893 55.73094 C  -0.18253 42.84988 -5.13313 27.73419 -1.41245 10.03178  " style="fill:none"/>
 <g>
 <g transform="matrix(0.20567,-0.97865,0.97865,0.20567,-1.41246,10.0318)">
 <g>
 <g stroke-width="1.28pt">
 <g stroke-dasharray="none" stroke-dashoffset="0.0pt">
 <g stroke-linecap="round">
 <g stroke-linejoin="round">
 <path d=" M  -2.27998 3.03998 C  -2.08998 1.89998 0.0 0.18999 0.56999 0.0 C  0.0 -0.18999 -2.08998 -1.89998 -2.27998 -3.03998  " style="fill:none"/>
 </g>
 </g>
 </g>
 </g>
 </g>
  </g>
 </g>
 <g>
 <g>
 <g transform="matrix(1.0,0.0,0.0,1.0,4.3501,21.56139)">
 <g fill="rgb(0.0%,0.0%,0.0%)">
 <text style="stroke:none" transform="scale(1,-1) translate(3.01732,0)" text-anchor="middle"  font-size="12"> 
J</text> 
</g>
 </g>
 </g>
 </g>
 </g>
 </g>
 </g>
 <g>
 <g stroke-width="1.6pt">
 <g>
 <path d=" M  227.81465 -72.62036 C  145.71123 -91.28899 78.90276 -70.61682 22.50826 -9.73808  " style="fill:none"/>
 <g>
 <g transform="matrix(-0.68173,0.73593,-0.73593,-0.68173,22.50827,-9.7381)">
 <g>
 <g stroke-width="1.28pt">
 <g stroke-dasharray="none" stroke-dashoffset="0.0pt">
 <g stroke-linecap="round">
 <g stroke-linejoin="round">
 <path d=" M  -2.27998 3.03998 C  -2.08998 1.89998 0.0 0.18999 0.56999 0.0 C  0.0 -0.18999 -2.08998 -1.89998 -2.27998 -3.03998  " style="fill:none"/>
 </g>
 </g>
 </g>
 </g>
 </g>
  </g>
 </g>
 <g>
 <g>
 <g transform="matrix(1.0,0.0,0.0,1.0,101.5697,-83.87808)">
 <g fill="rgb(0.0%,0.0%,0.0%)">
 <text style="stroke:none" transform="scale(1,-1) translate(4.56624,0)" text-anchor="middle"  font-size="12"> 
K</text> 
</g>
 </g>
 </g>
 </g>
 </g>
 </g>
 </g>
 <g>
 <g stroke-width="1.6pt">
 <g>
 <path d=" M  249.33116 -56.89732 C  246.69536 -32.93529 234.92642 -16.89929 213.9684 -7.68939  " style="fill:none"/>
 <g>
 <g transform="matrix(-0.91867,0.40372,-0.40372,-0.91867,213.96841,-7.68939)">
 <g>
 <g stroke-width="1.28pt">
 <g stroke-dasharray="none" stroke-dashoffset="0.0pt">
 <g stroke-linecap="round">
 <g stroke-linejoin="round">
 <path d=" M  -2.27998 3.03998 C  -2.08998 1.89998 0.0 0.18999 0.56999 0.0 C  0.0 -0.18999 -2.08998 -1.89998 -2.27998 -3.03998  " style="fill:none"/>
 </g>
 </g>
 </g>
 </g>
 </g>
  </g>
 </g>
 <g>
 <g>
 <g transform="matrix(1.0,0.0,0.0,1.0,226.32648,-39.68016)">
 <g fill="rgb(0.0%,0.0%,0.0%)">
 <text style="stroke:none" transform="scale(1,-1) translate(3.66994,0)" text-anchor="middle"  font-size="12"> 
L</text> 
</g>
 </g>
 </g>
 </g>
 </g>
 </g>
 </g>
 <g>
 <g stroke-width="1.6pt">
 <g>
 <path d=" M  256.80307 -56.89732 C  278.99138 -18.46593 278.99138 18.46593 257.40994 55.84612  " style="fill:none"/>
 <g>
 <g transform="matrix(-0.50156,0.86877,-0.86877,-0.50156,257.40996,55.84612)">
 <g>
 <g stroke-width="1.28pt">
 <g stroke-dasharray="none" stroke-dashoffset="0.0pt">
 <g stroke-linecap="round">
 <g stroke-linejoin="round">
 <path d=" M  -2.27998 3.03998 C  -2.08998 1.89998 0.0 0.18999 0.56999 0.0 C  0.0 -0.18999 -2.08998 -1.89998 -2.27998 -3.03998  " style="fill:none"/>
 </g>
 </g>
 </g>
 </g>
 </g>
  </g>
 </g>
 <g>
 <g>
 <g transform="matrix(1.0,0.0,0.0,1.0,257.96495,-4.13232)">
 <g fill="rgb(0.0%,0.0%,0.0%)">
 <text style="stroke:none" transform="scale(1,-1) translate(5.38202,0)" text-anchor="middle"  font-size="12"> 
M</text> 
</g>
 </g>
 </g>
 </g>
 </g>
 </g>
 </g>
 <g>
 <g stroke-width="1.6pt">
 <g>
 <path d=" M  -4.74496 -8.84761 C  -13.56326 -29.42332 -11.36766 -47.82016 1.31456 -64.7723  " style="fill:none"/>
 <g>
 <g transform="matrix(0.60138,-0.80383,0.80383,0.60138,1.31454,-64.7723)">
 <g>
 <g stroke-width="1.28pt">
 <g stroke-dasharray="none" stroke-dashoffset="0.0pt">
 <g stroke-linecap="round">
 <g stroke-linejoin="round">
 <path d=" M  -2.27998 3.03998 C  -2.08998 1.89998 0.0 0.18999 0.56999 0.0 C  0.0 -0.18999 -2.08998 -1.89998 -2.27998 -3.03998  " style="fill:none"/>
 </g>
 </g>
 </g>
 </g>
 </g>
  </g>
 </g>
 <g>
 <g>
 <g transform="matrix(1.0,0.0,0.0,1.0,-4.97165,-33.57506)">
 <g fill="rgb(0.0%,0.0%,0.0%)">
 <text style="stroke:none" transform="scale(1,-1) translate(4.40309,0)" text-anchor="middle"  font-size="12"> 
N</text> 
</g>
 </g>
 </g>
 </g>
 </g>
 </g>
 </g>
 <g>
 <g stroke-width="1.6pt">
 <g>
 <path d=" M  28.39595 -56.89732 C  32.0757 -37.33421 26.62645 -21.81596 12.44612 -9.63933  " style="fill:none"/>
 <g>
 <g transform="matrix(-0.76193,0.65431,-0.65431,-0.76193,12.44612,-9.63933)">
 <g>
 <g stroke-width="1.28pt">
 <g stroke-dasharray="none" stroke-dashoffset="0.0pt">
 <g stroke-linecap="round">
 <g stroke-linejoin="round">
 <path d=" M  -2.27998 3.03998 C  -2.08998 1.89998 0.0 0.18999 0.56999 0.0 C  0.0 -0.18999 -2.08998 -1.89998 -2.27998 -3.03998  " style="fill:none"/>
 </g>
 </g>
 </g>
 </g>
 </g>
  </g>
 </g>
 <g>
 <g>
 <g transform="matrix(1.0,0.0,0.0,1.0,13.15138,-43.37933)">
 <g fill="rgb(0.0%,0.0%,0.0%)">
 <text style="stroke:none" transform="scale(1,-1) translate(4.56831,0)" text-anchor="middle"  font-size="12"> 
O</text> 
</g>
 </g>
 </g>
 </g>
 </g>
 </g>
 </g>
 </g>
 </g>
 </g>
 </g>
 </g>
 
                                                                                             </g> 
</svg> 
