<?xml version="1.0" encoding="iso-8859-1" standalone="no"?> 
<?xml-stylesheet href="ref.css" type="text/css"?> 
<svg xmlns="http://www.w3.org/2000/svg" xmlns:xlink="http://www.w3.org/1999/xlink" width="92.14151pt" height="76.87021pt" viewBox="-46.07076 -9.98236 92.14151 76.87021 "> 
<g transform="translate(0, 66.88785 ) scale(1,-1) translate(0,9.98236 )"> 
              <g>
 <g stroke="rgb(0.0%,0.0%,0.0%)">
 <g fill="rgb(0.0%,0.0%,0.0%)">
 <g stroke-width="0.4pt">
 <g>
 <g stroke-width="0.8pt">
 <g>
 <path d=" M  17.21802 56.90549 C  17.21802 62.19774 9.50937 66.48785 0.0 66.48785 C  -9.50937 66.48785 -17.21802 62.19774 -17.21802 56.90549 C  -17.21802 51.61324 -9.50937 47.32312 0.0 47.32312 C  9.50937 47.32312 17.21802 51.61324 17.21802 56.90549 Z M  0.0 56.90549  " style="fill:none"/>
 <g>
 <g transform="matrix(1.0,0.0,0.0,1.0,-3.74908,53.46188)">
 <g fill="rgb(0.0%,0.0%,0.0%)">
 <text style="stroke:none" transform="scale(1,-1) translate(3.74908,0)" text-anchor="middle"  font-size="10"> 
A</text> 
</g>
 </g>
 </g>
 </g>
 <g>
 <path d=" M  45.67076 28.45274 C  45.67076 33.745 37.96211 38.03511 28.45274 38.03511 C  18.94337 38.03511 11.23473 33.745 11.23473 28.45274 C  11.23473 23.16049 18.94337 18.87038 28.45274 18.87038 C  37.96211 18.87038 45.67076 23.16049 45.67076 28.45274 Z M  28.45274 28.45274  " style="fill:none"/>
 <g>
 <g transform="matrix(1.0,0.0,0.0,1.0,24.91194,25.00914)">
 <g fill="rgb(0.0%,0.0%,0.0%)">
 <text style="stroke:none" transform="scale(1,-1) translate(3.5408,0)" text-anchor="middle"  font-size="10"> 
B</text> 
</g>
 </g>
 </g>
 </g>
 <g>
 <path d=" M  -11.23473 28.45274 C  -11.23473 33.745 -18.94337 38.03511 -28.45274 38.03511 C  -37.96211 38.03511 -45.67076 33.745 -45.67076 28.45274 C  -45.67076 23.16049 -37.96211 18.87038 -28.45274 18.87038 C  -18.94337 18.87038 -11.23473 23.16049 -11.23473 28.45274 Z M  -28.45274 28.45274  " style="fill:none"/>
 <g>
 <g transform="matrix(1.0,0.0,0.0,1.0,-32.06297,25.00914)">
 <g fill="rgb(0.0%,0.0%,0.0%)">
 <text style="stroke:none" transform="scale(1,-1) translate(3.61023,0)" text-anchor="middle"  font-size="10"> 
C</text> 
</g>
 </g>
 </g>
 </g>
 <g>
 <path d=" M  17.21802 0.0 C  17.21802 5.29225 9.50937 9.58237 0.0 9.58237 C  -9.50937 9.58237 -17.21802 5.29225 -17.21802 0.0 C  -17.21802 -5.29225 -9.50937 -9.58237 0.0 -9.58237 C  9.50937 -9.58237 17.21802 -5.29225 17.21802 0.0 Z M  0.0 0.0  " style="fill:none"/>
 <g>
 <g transform="matrix(1.0,0.0,0.0,1.0,-3.81851,-3.4436)">
 <g fill="rgb(0.0%,0.0%,0.0%)">
 <text style="stroke:none" transform="scale(1,-1) translate(3.81851,0)" text-anchor="middle"  font-size="10"> 
D</text> 
</g>
 </g>
 </g>
 </g>
 <g>
 <path d=" M  8.71007 48.1959 L  19.23792 37.66689  " style="fill:none"/>
 <g>
 <g transform="matrix(0.71054,-0.71065,0.71065,0.71054,19.23792,37.66689)">
 <g>
 <g stroke-width="0.64pt">
 <g stroke-dasharray="none" stroke-dashoffset="0.0pt">
 <g stroke-linecap="round">
 <g stroke-linejoin="round">
 <path d=" M  -1.55997 2.07996 C  -1.42996 1.29997 0.0 0.12999 0.38998 0.0 C  0.0 -0.12999 -1.42996 -1.29997 -1.55997 -2.07996  " style="fill:none"/>
 </g>
 </g>
 </g>
 </g>
 </g>
  </g>
 </g>
 </g>
 <g>
 <path d=" M  -8.71007 48.1959 L  -19.23792 37.66689  " style="fill:none"/>
 <g>
 <g transform="matrix(-0.71054,-0.71065,0.71065,-0.71054,-19.23792,37.66689)">
 <g>
 <g stroke-width="0.64pt">
 <g stroke-dasharray="none" stroke-dashoffset="0.0pt">
 <g stroke-linecap="round">
 <g stroke-linejoin="round">
 <path d=" M  -1.55997 2.07996 C  -1.42996 1.29997 0.0 0.12999 0.38998 0.0 C  0.0 -0.12999 -1.42996 -1.29997 -1.55997 -2.07996  " style="fill:none"/>
 </g>
 </g>
 </g>
 </g>
 </g>
  </g>
 </g>
 </g>
 <g>
 <path d=" M  19.74268 19.74316 L  9.21483 9.21414  " style="fill:none"/>
 <g>
 <g transform="matrix(-0.71054,-0.71065,0.71065,-0.71054,9.21483,9.21414)">
 <g>
 <g stroke-width="0.64pt">
 <g stroke-dasharray="none" stroke-dashoffset="0.0pt">
 <g stroke-linecap="round">
 <g stroke-linejoin="round">
 <path d=" M  -1.55997 2.07996 C  -1.42996 1.29997 0.0 0.12999 0.38998 0.0 C  0.0 -0.12999 -1.42996 -1.29997 -1.55997 -2.07996  " style="fill:none"/>
 </g>
 </g>
 </g>
 </g>
 </g>
  </g>
 </g>
 </g>
 <g>
 <path d=" M  -19.74268 19.74316 L  -9.21483 9.21414  " style="fill:none"/>
 <g>
 <g transform="matrix(0.71054,-0.71065,0.71065,0.71054,-9.21483,9.21414)">
 <g>
 <g stroke-width="0.64pt">
 <g stroke-dasharray="none" stroke-dashoffset="0.0pt">
 <g stroke-linecap="round">
 <g stroke-linejoin="round">
 <path d=" M  -1.55997 2.07996 C  -1.42996 1.29997 0.0 0.12999 0.38998 0.0 C  0.0 -0.12999 -1.42996 -1.29997 -1.55997 -2.07996  " style="fill:none"/>
 </g>
 </g>
 </g>
 </g>
 </g>
  </g>
 </g>
 </g>
 </g>
 </g>
 </g>
 </g>
 </g>
 </g>
 
                            </g> 
</svg> 
