<?xml version="1.0" encoding="iso-8859-1" standalone="no"?> 
<?xml-stylesheet href="ref.css" type="text/css"?> 
<svg xmlns="http://www.w3.org/2000/svg" xmlns:xlink="http://www.w3.org/1999/xlink" width="172.98016pt" height="172.98016pt" viewBox="-86.49008 -86.49008 172.98016 172.98016 "> 
<g transform="translate(0, 86.49008 ) scale(1,-1) translate(0,86.49008 )"> 
                          <g>
 <g stroke="rgb(0.0%,0.0%,0.0%)">
 <g fill="rgb(0.0%,0.0%,0.0%)">
 <g stroke-width="0.4pt">
 <g>
 <g>
 <path d=" M  -50.76501 20.12181 h  101.53003 v  16.66187 h  -101.53003 Z  " style="fill:none"/>
 <g>
 <g transform="matrix(1.0,0.0,0.0,1.0,-47.43286,25.95335)">
 <g fill="rgb(0.0%,0.0%,0.0%)">
 <text style="stroke:none" transform="scale(1,-1) translate(47.43286,0)" text-anchor="middle"  font-size="10"> 
[optional] PRE Script</text> 
</g>
 </g>
 </g>
 </g>
 <g>
 <path d=" M  -35.28268 -7.74774 h  70.56537 v  15.49548 h  -70.56537 Z  " style="fill:none"/>
 <g>
 <g transform="matrix(1.0,0.0,0.0,1.0,-31.95053,-2.47162)">
 <g fill="rgb(0.0%,0.0%,0.0%)">
 <text style="stroke:none" transform="scale(1,-1) translate(31.95053,0)" text-anchor="middle"  font-size="10"> 
HTCondor job</text> 
</g>
 </g>
 </g>
 </g>
 <g>
 <path d=" M  -53.15332 -36.78368 h  106.30664 v  16.66187 h  -106.30664 Z  " style="fill:none"/>
 <g>
 <g transform="matrix(1.0,0.0,0.0,1.0,-49.82117,-30.95213)">
 <g fill="rgb(0.0%,0.0%,0.0%)">
 <text style="stroke:none" transform="scale(1,-1) translate(49.82117,0)" text-anchor="middle"  font-size="10"> 
[optional] POST script</text> 
</g>
 </g>
 </g>
 </g>
 <g>
 <g stroke-width="0.8pt">
 <g>
 <g stroke-width="0.8pt">
 <path d=" M  86.09009 0.0 C  86.09009 47.54684 47.54684 86.09009 0.0 86.09009 C  -47.54684 86.09009 -86.09009 47.54684 -86.09009 0.0 C  -86.09009 -47.54684 -47.54684 -86.09009 0.0 -86.09009 C  47.54684 -86.09009 86.09009 -47.54684 86.09009 0.0 Z M  0.0 0.0  " style="fill:none"/>
 </g>
 </g>
 <g>
 <g transform="matrix(1.0,0.0,0.0,1.0,0.0,0.0)">
 <g fill="rgb(0.0%,0.0%,0.0%)">
 <text style="stroke:none" transform="scale(1,-1) translate(0.0,0)" text-anchor="middle"  font-size="10"> 
</text> 
</g>
 </g>
 </g>
 </g>
 </g>
 <g>
 <path d=" M  0.0 19.92181 L  0.0 8.40773  " style="fill:none"/>
 <g>
 <g transform="matrix(0.0,-1.0,1.0,0.0,0.0,8.40773)">
 <g>
 <g stroke-width="0.31999pt">
 <g stroke-dasharray="none" stroke-dashoffset="0.0pt">
 <g stroke-linecap="round">
 <g stroke-linejoin="round">
 <path d=" M  -1.19998 1.59998 C  -1.09998 0.99998 0.0 0.09999 0.29999 0.0 C  0.0 -0.09999 -1.09998 -0.99998 -1.19998 -1.59998  " style="fill:none"/>
 </g>
 </g>
 </g>
 </g>
 </g>
  </g>
 </g>
 </g>
 <g>
 <path d=" M  0.0 -7.94774 L  0.0 -19.46182  " style="fill:none"/>
 <g>
 <g transform="matrix(0.0,-1.0,1.0,0.0,0.0,-19.46182)">
 <g>
 <g stroke-width="0.31999pt">
 <g stroke-dasharray="none" stroke-dashoffset="0.0pt">
 <g stroke-linecap="round">
 <g stroke-linejoin="round">
 <path d=" M  -1.19998 1.59998 C  -1.09998 0.99998 0.0 0.09999 0.29999 0.0 C  0.0 -0.09999 -1.09998 -0.99998 -1.19998 -1.59998  " style="fill:none"/>
 </g>
 </g>
 </g>
 </g>
 </g>
  </g>
 </g>
 </g>
 </g>
 </g>
 </g>
 </g>
 </g>
 
                                                    </g> 
</svg> 
