<?xml version="1.0" encoding="iso-8859-1" standalone="no"?> 
<?xml-stylesheet href="ref.css" type="text/css"?> 
<svg xmlns="http://www.w3.org/2000/svg" xmlns:xlink="http://www.w3.org/1999/xlink" width="202.78082pt" height="285.30179pt" viewBox="-103.69777 -274.91942 202.78082 285.30179 "> 
<g transform="translate(0, 10.38237 ) scale(1,-1) translate(0,274.91942 )"> 
                               <g>
 <g stroke="rgb(0.0%,0.0%,0.0%)">
 <g fill="rgb(0.0%,0.0%,0.0%)">
 <g stroke-width="0.4pt">
 <g>
 <g>
 <g stroke-width="1.6pt">
 <g>
 <g stroke-width="1.6pt">
 <path d=" M  25.82703 0.0 C  25.82703 5.29225 14.26405 9.58237 0.0 9.58237 C  -14.26405 9.58237 -25.82703 5.29225 -25.82703 0.0 C  -25.82703 -5.29225 -14.26405 -9.58237 0.0 -9.58237 C  14.26405 -9.58237 25.82703 -5.29225 25.82703 0.0 Z M  0.0 0.0  " style="fill:none"/>
 </g>
 </g>
 <g>
 <g transform="matrix(1.0,0.0,0.0,1.0,-3.74908,-3.4436)">
 <g fill="rgb(0.0%,0.0%,0.0%)">
 <text style="stroke:none" transform="scale(1,-1) translate(3.74908,0)" text-anchor="middle"  font-size="10"> 
X</text> 
</g>
 </g>
 </g>
 </g>
 </g>
 <g>
 <g stroke-width="1.6pt">
 <g>
 <g stroke-width="1.6pt">
 <path d=" M  43.69199 -77.48108 C  43.69199 -71.86346 24.13072 -67.3096 0.0 -67.3096 C  -24.13072 -67.3096 -43.69199 -71.86346 -43.69199 -77.48108 C  -43.69199 -83.0987 -24.13072 -87.65256 0.0 -87.65256 C  24.13072 -87.65256 43.69199 -83.0987 43.69199 -77.48108 Z M  0.0 -77.48108  " style="fill:none"/>
 </g>
 </g>
 <g>
 <g transform="matrix(1.0,0.0,0.0,1.0,-27.56271,-80.50812)">
 <g fill="rgb(0.0%,0.0%,0.0%)">
 <text style="stroke:none" transform="scale(1,-1) translate(27.56271,0)" text-anchor="middle"  font-size="10"> 
Diamond+A</text> 
</g>
 </g>
 </g>
 </g>
 </g>
 <g>
 <g stroke-width="1.6pt">
 <g>
 <g stroke-width="1.6pt">
 <path d=" M  -6.67712 -132.26852 C  -6.67712 -126.65091 -28.2165 -122.09705 -54.78745 -122.09705 C  -81.35838 -122.09705 -102.89777 -126.65091 -102.89777 -132.26852 C  -102.89777 -137.88614 -81.35838 -142.44 -54.78745 -142.44 C  -28.2165 -142.44 -6.67712 -137.88614 -6.67712 -132.26852 Z M  -54.78745 -132.26852  " style="fill:none"/>
 </g>
 </g>
 <g>
 <g transform="matrix(1.0,0.0,0.0,1.0,-85.4744,-135.29556)">
 <g fill="rgb(0.0%,0.0%,0.0%)">
 <text style="stroke:none" transform="scale(1,-1) translate(30.68695,0)" text-anchor="middle"  font-size="10"> 
Diamond + B</text> 
</g>
 </g>
 </g>
 </g>
 </g>
 <g>
 <g stroke-width="1.6pt">
 <g>
 <g stroke-width="1.6pt">
 <path d=" M  98.28305 -132.26852 C  98.28305 -126.65091 78.80971 -122.09705 54.78745 -122.09705 C  30.76518 -122.09705 11.29184 -126.65091 11.29184 -132.26852 C  11.29184 -137.88614 30.76518 -142.44 54.78745 -142.44 C  78.80971 -142.44 98.28305 -137.88614 98.28305 -132.26852 Z M  54.78745 -132.26852  " style="fill:none"/>
 </g>
 </g>
 <g>
 <g transform="matrix(1.0,0.0,0.0,1.0,27.36359,-135.29556)">
 <g fill="rgb(0.0%,0.0%,0.0%)">
 <text style="stroke:none" transform="scale(1,-1) translate(27.42386,0)" text-anchor="middle"  font-size="10"> 
Diamond+C</text> 
</g>
 </g>
 </g>
 </g>
 </g>
 <g>
 <g stroke-width="1.6pt">
 <g>
 <g stroke-width="1.6pt">
 <path d=" M  43.79016 -187.05597 C  43.79016 -181.43835 24.18494 -176.88449 0.0 -176.88449 C  -24.18494 -176.88449 -43.79016 -181.43835 -43.79016 -187.05597 C  -43.79016 -192.67358 -24.18494 -197.22745 0.0 -197.22745 C  24.18494 -197.22745 43.79016 -192.67358 43.79016 -187.05597 Z M  0.0 -187.05597  " style="fill:none"/>
 </g>
 </g>
 <g>
 <g transform="matrix(1.0,0.0,0.0,1.0,-27.63214,-190.08301)">
 <g fill="rgb(0.0%,0.0%,0.0%)">
 <text style="stroke:none" transform="scale(1,-1) translate(27.63214,0)" text-anchor="middle"  font-size="10"> 
Diamond+D</text> 
</g>
 </g>
 </g>
 </g>
 </g>
 <g>
 <g stroke-width="1.6pt">
 <g>
 <g stroke-width="1.6pt">
 <path d=" M  25.82703 -264.53705 C  25.82703 -259.2448 14.26405 -254.95468 0.0 -254.95468 C  -14.26405 -254.95468 -25.82703 -259.2448 -25.82703 -264.53705 C  -25.82703 -269.8293 -14.26405 -274.11942 0.0 -274.11942 C  14.26405 -274.11942 25.82703 -269.8293 25.82703 -264.53705 Z M  0.0 -264.53705  " style="fill:none"/>
 </g>
 </g>
 <g>
 <g transform="matrix(1.0,0.0,0.0,1.0,-3.74908,-267.98065)">
 <g fill="rgb(0.0%,0.0%,0.0%)">
 <text style="stroke:none" transform="scale(1,-1) translate(3.74908,0)" text-anchor="middle"  font-size="10"> 
Y</text> 
</g>
 </g>
 </g>
 </g>
 </g>
 <g>
 <g stroke-width="1.6pt">
 <g>
 <path d=" M  0.0 -10.38237 L  0.0 -59.66965  " style="fill:none"/>
 <g>
 <g transform="matrix(0.0,-1.0,1.0,0.0,0.0,-59.66965)">
 <g>
 <path d=" M  6.83995 0.0 C  4.81326 0.37999 1.51999 1.51999 -0.76 2.84998 L  -0.76 -2.84998 C  1.51999 -1.51999 4.81326 -0.37999 6.83995 0.0  " style="stroke:none"/>
 </g>
  </g>
 </g>
 </g>
 </g>
 </g>
 <g>
 <g stroke-width="1.6pt">
 <g>
 <path d=" M  -10.66814 -88.14954 L  -39.23607 -116.71678  " style="fill:none"/>
 <g>
 <g transform="matrix(-0.7071,-0.7071,0.7071,-0.7071,-39.23605,-116.71677)">
 <g>
 <path d=" M  6.83995 0.0 C  4.81326 0.37999 1.51999 1.51999 -0.76 2.84998 L  -0.76 -2.84998 C  1.51999 -1.51999 4.81326 -0.37999 6.83995 0.0  " style="stroke:none"/>
 </g>
  </g>
 </g>
 </g>
 </g>
 </g>
 <g>
 <g stroke-width="1.6pt">
 <g>
 <path d=" M  10.66814 -88.14954 L  39.25897 -116.7396  " style="fill:none"/>
 <g>
 <g transform="matrix(0.71065,-0.7106,0.7106,0.71065,39.25897,-116.73958)">
 <g>
 <path d=" M  6.83995 0.0 C  4.81326 0.37999 1.51999 1.51999 -0.76 2.84998 L  -0.76 -2.84998 C  1.51999 -1.51999 4.81326 -0.37999 6.83995 0.0  " style="stroke:none"/>
 </g>
  </g>
 </g>
 </g>
 </g>
 </g>
 <g>
 <g stroke-width="1.6pt">
 <g>
 <path d=" M  -44.0734 -142.98369 L  -15.50511 -171.55093  " style="fill:none"/>
 <g>
 <g transform="matrix(0.7071,-0.7071,0.7071,0.7071,-15.50513,-171.55092)">
 <g>
 <path d=" M  6.83995 0.0 C  4.81326 0.37999 1.51999 1.51999 -0.76 2.84998 L  -0.76 -2.84998 C  1.51999 -1.51999 4.81326 -0.37999 6.83995 0.0  " style="stroke:none"/>
 </g>
  </g>
 </g>
 </g>
 </g>
 </g>
 <g>
 <g stroke-width="1.6pt">
 <g>
 <path d=" M  44.12044 -142.93698 L  15.52933 -171.52704  " style="fill:none"/>
 <g>
 <g transform="matrix(-0.71065,-0.7106,0.7106,-0.71065,15.52933,-171.52702)">
 <g>
 <path d=" M  6.83995 0.0 C  4.81326 0.37999 1.51999 1.51999 -0.76 2.84998 L  -0.76 -2.84998 C  1.51999 -1.51999 4.81326 -0.37999 6.83995 0.0  " style="stroke:none"/>
 </g>
  </g>
 </g>
 </g>
 </g>
 </g>
 <g>
 <g stroke-width="1.6pt">
 <g>
 <path d=" M  0.0 -198.02745 L  0.0 -247.31473  " style="fill:none"/>
 <g>
 <g transform="matrix(0.0,-1.0,1.0,0.0,0.0,-247.31473)">
 <g>
 <path d=" M  6.83995 0.0 C  4.81326 0.37999 1.51999 1.51999 -0.76 2.84998 L  -0.76 -2.84998 C  1.51999 -1.51999 4.81326 -0.37999 6.83995 0.0  " style="stroke:none"/>
 </g>
  </g>
 </g>
 </g>
 </g>
 </g>
 </g>
 </g>
 </g>
 </g>
 </g>
 
                                                             </g> 
</svg> 
