<?xml version="1.0" encoding="iso-8859-1" standalone="no"?> 
<?xml-stylesheet href="ref.css" type="text/css"?> 
<svg xmlns="http://www.w3.org/2000/svg" xmlns:xlink="http://www.w3.org/1999/xlink" width="398.7384pt" height="549.53802pt" viewBox="-114.01097 -492.43254 398.7384 549.53802 "> 
<g transform="translate(0, 57.10548 ) scale(1,-1) translate(0,492.43254 )"> 
                                  <g>
 <g stroke="rgb(0.0%,0.0%,0.0%)">
 <g fill="rgb(0.0%,0.0%,0.0%)">
 <g stroke-width="0.4pt">
 <g>
 <g>
 <g stroke-width="0.8pt">
 <g>
 <g stroke-width="0.8pt">
 <path d=" M  17.21802 0.0 C  17.21802 9.50937 9.50937 17.21802 0.0 17.21802 C  -9.50937 17.21802 -17.21802 9.50937 -17.21802 0.0 C  -17.21802 -9.50937 -9.50937 -17.21802 0.0 -17.21802 C  9.50937 -17.21802 17.21802 -9.50937 17.21802 0.0 Z M  0.0 0.0  " style="fill:none"/>
 </g>
 </g>
 <g>
 <g transform="matrix(1.0,0.0,0.0,1.0,-6.24847,-3.4436)">
 <g fill="rgb(0.0%,0.0%,0.0%)">
 <text style="stroke:none" transform="scale(1,-1) translate(6.24847,0)" text-anchor="middle"  font-size="10"> 
A1</text> 
</g>
 </g>
 </g>
 </g>
 </g>
 <g>
 <g>
 <g transform="matrix(1.0,0.0,0.0,1.0,-103.54823,-59.3771)">
 <g fill="rgb(0.0%,0.0%,0.0%)">
 <text style="stroke:none" transform="scale(1,-1) translate(18.19,0)" text-anchor="middle"  font-size="10"> 
Splice A</text> 
</g>
 </g>
 </g>
 </g>
 <g>
 <g>
 <g transform="matrix(1.0,0.0,0.0,1.0,77.48108,0.0)">
 <g fill="rgb(0.0%,0.0%,0.0%)">
 <text style="stroke:none" transform="scale(1,-1) translate(0.0,0)" text-anchor="middle"  font-size="10"> 
</text> 
</g>
 </g>
 </g>
 </g>
 <g>
 <g stroke-width="0.8pt">
 <g>
 <g stroke-width="0.8pt">
 <path d=" M  172.18018 0.0 C  172.18018 9.50937 164.47153 17.21802 154.96216 17.21802 C  145.45279 17.21802 137.74414 9.50937 137.74414 0.0 C  137.74414 -9.50937 145.45279 -17.21802 154.96216 -17.21802 C  164.47153 -17.21802 172.18018 -9.50937 172.18018 0.0 Z M  154.96216 0.0  " style="fill:none"/>
 </g>
 </g>
 <g>
 <g transform="matrix(1.0,0.0,0.0,1.0,148.71368,-3.4436)">
 <g fill="rgb(0.0%,0.0%,0.0%)">
 <text style="stroke:none" transform="scale(1,-1) translate(6.24847,0)" text-anchor="middle"  font-size="10"> 
A2</text> 
</g>
 </g>
 </g>
 </g>
 </g>
 <g>
 <g stroke-width="0.8pt">
 <g>
 <g stroke-width="0.8pt">
 <path d=" M  -3.33215 -86.09009 h  6.6643 v  17.21802 h  -6.6643 Z  " />
 </g>
 </g>
 <g>
 <g transform="matrix(1.0,0.0,0.0,1.0,0.0,-77.48108)">
 <g fill="rgb(0.0%,0.0%,0.0%)">
 <text style="stroke:none" transform="scale(1,-1) translate(0.0,0)" text-anchor="middle"  font-size="10"> 
</text> 
</g>
 </g>
 </g>
 </g>
 </g>
 <g>
 <g>
 <g transform="matrix(1.0,0.0,0.0,1.0,13.42482,-74.02618)">
 <g fill="rgb(0.0%,0.0%,0.0%)">
 <text style="stroke:none" transform="scale(1,-1) translate(7.91473,0)" text-anchor="middle"  font-size="10"> 
po1</text> 
</g>
 </g>
 </g>
 </g>
 <g>
 <g stroke-width="0.8pt">
 <g>
 <g stroke-width="0.8pt">
 <path d=" M  151.63 -86.09009 h  6.6643 v  17.21802 h  -6.6643 Z  " />
 </g>
 </g>
 <g>
 <g transform="matrix(1.0,0.0,0.0,1.0,154.96216,-77.48108)">
 <g fill="rgb(0.0%,0.0%,0.0%)">
 <text style="stroke:none" transform="scale(1,-1) translate(0.0,0)" text-anchor="middle"  font-size="10"> 
</text> 
</g>
 </g>
 </g>
 </g>
 </g>
 <g>
 <g>
 <g transform="matrix(1.0,0.0,0.0,1.0,168.38698,-74.02618)">
 <g fill="rgb(0.0%,0.0%,0.0%)">
 <text style="stroke:none" transform="scale(1,-1) translate(7.91473,0)" text-anchor="middle"  font-size="10"> 
po2</text> 
</g>
 </g>
 </g>
 </g>
 <g>
 <g stroke-width="0.8pt">
 <g>
 <path d=" M  0.0 -17.61801 L  0.0 -63.79218  " style="fill:none"/>
 <g>
 <g transform="matrix(0.0,-1.0,1.0,0.0,0.0,-63.79218)">
 <g>
 <path d=" M  4.6799 0.0 C  3.29324 0.26 1.03998 1.03998 -0.51999 1.94995 L  -0.51999 -1.94995 C  1.03998 -1.03998 3.29324 -0.26 4.6799 0.0  " style="stroke:none"/>
 </g>
  </g>
 </g>
 </g>
 </g>
 </g>
 <g>
 <g stroke-width="0.8pt">
 <g>
 <path d=" M  154.96216 -17.61801 L  154.96216 -63.79218  " style="fill:none"/>
 <g>
 <g transform="matrix(0.0,-1.0,1.0,0.0,154.96216,-63.79218)">
 <g>
 <path d=" M  4.6799 0.0 C  3.29324 0.26 1.03998 1.03998 -0.51999 1.94995 L  -0.51999 -1.94995 C  1.03998 -1.03998 3.29324 -0.26 4.6799 0.0  " style="stroke:none"/>
 </g>
  </g>
 </g>
 </g>
 </g>
 </g>
 <path d=" M  -113.81097 -79.66776 M  -113.81097 -79.66776 L  -113.81097 56.90549 L  284.52744 56.90549 L  284.52744 -79.66776 Z M  284.52744 56.90549  " style="fill:none"/>
 <g>
 <g stroke-width="0.8pt">
 <g>
 <g stroke-width="0.8pt">
 <path d=" M  -3.33215 -163.57117 h  6.6643 v  17.21802 h  -6.6643 Z  " />
 </g>
 </g>
 <g>
 <g transform="matrix(1.0,0.0,0.0,1.0,0.0,-154.96216)">
 <g fill="rgb(0.0%,0.0%,0.0%)">
 <text style="stroke:none" transform="scale(1,-1) translate(0.0,0)" text-anchor="middle"  font-size="10"> 
</text> 
</g>
 </g>
 </g>
 </g>
 </g>
 <g>
 <g>
 <g transform="matrix(1.0,0.0,0.0,1.0,14.67451,-162.99728)">
 <g fill="rgb(0.0%,0.0%,0.0%)">
 <text style="stroke:none" transform="scale(1,-1) translate(6.66504,0)" text-anchor="middle"  font-size="10"> 
pi1</text> 
</g>
 </g>
 </g>
 </g>
 <g>
 <g stroke-width="0.8pt">
 <g>
 <g stroke-width="0.8pt">
 <path d=" M  151.63 -163.57117 h  6.6643 v  17.21802 h  -6.6643 Z  " />
 </g>
 </g>
 <g>
 <g transform="matrix(1.0,0.0,0.0,1.0,154.96216,-154.96216)">
 <g fill="rgb(0.0%,0.0%,0.0%)">
 <text style="stroke:none" transform="scale(1,-1) translate(0.0,0)" text-anchor="middle"  font-size="10"> 
</text> 
</g>
 </g>
 </g>
 </g>
 </g>
 <g>
 <g>
 <g transform="matrix(1.0,0.0,0.0,1.0,169.63667,-162.99728)">
 <g fill="rgb(0.0%,0.0%,0.0%)">
 <text style="stroke:none" transform="scale(1,-1) translate(6.66504,0)" text-anchor="middle"  font-size="10"> 
pi2</text> 
</g>
 </g>
 </g>
 </g>
 <g>
 <g stroke-width="0.8pt">
 <g>
 <path d=" M  0.0 -86.49008 L  0.0 -141.27325  " style="fill:none"/>
 <g>
 <g transform="matrix(0.0,-1.0,1.0,0.0,0.0,-141.27325)">
 <g>
 <path d=" M  4.6799 0.0 C  3.29324 0.26 1.03998 1.03998 -0.51999 1.94995 L  -0.51999 -1.94995 C  1.03998 -1.03998 3.29324 -0.26 4.6799 0.0  " style="stroke:none"/>
 </g>
  </g>
 </g>
 </g>
 </g>
 </g>
 <g>
 <g stroke-width="0.8pt">
 <g>
 <path d=" M  154.96216 -86.49008 L  154.96216 -141.27325  " style="fill:none"/>
 <g>
 <g transform="matrix(0.0,-1.0,1.0,0.0,154.96216,-141.27325)">
 <g>
 <path d=" M  4.6799 0.0 C  3.29324 0.26 1.03998 1.03998 -0.51999 1.94995 L  -0.51999 -1.94995 C  1.03998 -1.03998 3.29324 -0.26 4.6799 0.0  " style="stroke:none"/>
 </g>
  </g>
 </g>
 </g>
 </g>
 </g>
 <g>
 <g stroke-width="0.8pt">
 <g>
 <g stroke-width="0.8pt">
 <path d=" M  -37.56943 -209.7496 C  -37.56943 -200.24023 -45.27808 -192.53159 -54.78745 -192.53159 C  -64.29681 -192.53159 -72.00546 -200.24023 -72.00546 -209.7496 C  -72.00546 -219.25897 -64.29681 -226.96762 -54.78745 -226.96762 C  -45.27808 -226.96762 -37.56943 -219.25897 -37.56943 -209.7496 Z M  -54.78745 -209.7496  " style="fill:none"/>
 </g>
 </g>
 <g>
 <g transform="matrix(1.0,0.0,0.0,1.0,-60.82764,-213.1932)">
 <g fill="rgb(0.0%,0.0%,0.0%)">
 <text style="stroke:none" transform="scale(1,-1) translate(6.04019,0)" text-anchor="middle"  font-size="10"> 
B1</text> 
</g>
 </g>
 </g>
 </g>
 </g>
 <g>
 <g>
 <g transform="matrix(1.0,0.0,0.0,1.0,-101.22191,-269.12671)">
 <g fill="rgb(0.0%,0.0%,0.0%)">
 <text style="stroke:none" transform="scale(1,-1) translate(17.98172,0)" text-anchor="middle"  font-size="10"> 
Splice B</text> 
</g>
 </g>
 </g>
 </g>
 <g>
 <g stroke-width="0.8pt">
 <g>
 <g stroke-width="0.8pt">
 <path d=" M  72.00546 -209.7496 C  72.00546 -200.24023 64.29681 -192.53159 54.78745 -192.53159 C  45.27808 -192.53159 37.56943 -200.24023 37.56943 -209.7496 C  37.56943 -219.25897 45.27808 -226.96762 54.78745 -226.96762 C  64.29681 -226.96762 72.00546 -219.25897 72.00546 -209.7496 Z M  54.78745 -209.7496  " style="fill:none"/>
 </g>
 </g>
 <g>
 <g transform="matrix(1.0,0.0,0.0,1.0,48.74725,-213.1932)">
 <g fill="rgb(0.0%,0.0%,0.0%)">
 <text style="stroke:none" transform="scale(1,-1) translate(6.04019,0)" text-anchor="middle"  font-size="10"> 
B2</text> 
</g>
 </g>
 </g>
 </g>
 </g>
 <g>
 <g stroke-width="0.8pt">
 <g>
 <g stroke-width="0.8pt">
 <path d=" M  117.39273 -209.7496 C  117.39273 -200.24023 109.68408 -192.53159 100.17471 -192.53159 C  90.66534 -192.53159 82.9567 -200.24023 82.9567 -209.7496 C  82.9567 -219.25897 90.66534 -226.96762 100.17471 -226.96762 C  109.68408 -226.96762 117.39273 -219.25897 117.39273 -209.7496 Z M  100.17471 -209.7496  " style="fill:none"/>
 </g>
 </g>
 <g>
 <g transform="matrix(1.0,0.0,0.0,1.0,94.13452,-213.1932)">
 <g fill="rgb(0.0%,0.0%,0.0%)">
 <text style="stroke:none" transform="scale(1,-1) translate(6.04019,0)" text-anchor="middle"  font-size="10"> 
B3</text> 
</g>
 </g>
 </g>
 </g>
 </g>
 <g>
 <g stroke-width="0.8pt">
 <g>
 <g stroke-width="0.8pt">
 <path d=" M  226.96762 -209.7496 C  226.96762 -200.24023 219.25897 -192.53159 209.7496 -192.53159 C  200.24023 -192.53159 192.53159 -200.24023 192.53159 -209.7496 C  192.53159 -219.25897 200.24023 -226.96762 209.7496 -226.96762 C  219.25897 -226.96762 226.96762 -219.25897 226.96762 -209.7496 Z M  209.7496 -209.7496  " style="fill:none"/>
 </g>
 </g>
 <g>
 <g transform="matrix(1.0,0.0,0.0,1.0,203.70941,-213.1932)">
 <g fill="rgb(0.0%,0.0%,0.0%)">
 <text style="stroke:none" transform="scale(1,-1) translate(6.04019,0)" text-anchor="middle"  font-size="10"> 
B4</text> 
</g>
 </g>
 </g>
 </g>
 </g>
 <g>
 <g stroke-width="0.8pt">
 <g>
 <path d=" M  -3.73215 -158.69373 L  -39.02003 -193.98259  " style="fill:none"/>
 <g>
 <g transform="matrix(-0.70714,-0.7071,0.7071,-0.70714,-39.02002,-193.98257)">
 <g>
 <path d=" M  4.6799 0.0 C  3.29324 0.26 1.03998 1.03998 -0.51999 1.94995 L  -0.51999 -1.94995 C  1.03998 -1.03998 3.29324 -0.26 4.6799 0.0  " style="stroke:none"/>
 </g>
  </g>
 </g>
 </g>
 </g>
 </g>
 <g>
 <g stroke-width="0.8pt">
 <g>
 <path d=" M  3.73215 -158.69373 L  39.02003 -193.98259  " style="fill:none"/>
 <g>
 <g transform="matrix(0.70714,-0.7071,0.7071,0.70714,39.02002,-193.98257)">
 <g>
 <path d=" M  4.6799 0.0 C  3.29324 0.26 1.03998 1.03998 -0.51999 1.94995 L  -0.51999 -1.94995 C  1.03998 -1.03998 3.29324 -0.26 4.6799 0.0  " style="stroke:none"/>
 </g>
  </g>
 </g>
 </g>
 </g>
 </g>
 <g>
 <g stroke-width="0.8pt">
 <g>
 <path d=" M  151.23001 -158.69373 L  115.94212 -193.98259  " style="fill:none"/>
 <g>
 <g transform="matrix(-0.70714,-0.7071,0.7071,-0.70714,115.94214,-193.98257)">
 <g>
 <path d=" M  4.6799 0.0 C  3.29324 0.26 1.03998 1.03998 -0.51999 1.94995 L  -0.51999 -1.94995 C  1.03998 -1.03998 3.29324 -0.26 4.6799 0.0  " style="stroke:none"/>
 </g>
  </g>
 </g>
 </g>
 </g>
 </g>
 <g>
 <g stroke-width="0.8pt">
 <g>
 <path d=" M  158.6943 -158.69373 L  193.9822 -193.98259  " style="fill:none"/>
 <g>
 <g transform="matrix(0.70714,-0.7071,0.7071,0.70714,193.98218,-193.98257)">
 <g>
 <path d=" M  4.6799 0.0 C  3.29324 0.26 1.03998 1.03998 -0.51999 1.94995 L  -0.51999 -1.94995 C  1.03998 -1.03998 3.29324 -0.26 4.6799 0.0  " style="stroke:none"/>
 </g>
  </g>
 </g>
 </g>
 </g>
 </g>
 <g>
 <g stroke-width="0.8pt">
 <g>
 <g stroke-width="0.8pt">
 <path d=" M  -58.1196 -295.83969 h  6.6643 v  17.21802 h  -6.6643 Z  " />
 </g>
 </g>
 <g>
 <g transform="matrix(1.0,0.0,0.0,1.0,-54.78745,-287.23068)">
 <g fill="rgb(0.0%,0.0%,0.0%)">
 <text style="stroke:none" transform="scale(1,-1) translate(0.0,0)" text-anchor="middle"  font-size="10"> 
</text> 
</g>
 </g>
 </g>
 </g>
 </g>
 <g>
 <g>
 <g transform="matrix(1.0,0.0,0.0,1.0,-41.36263,-283.77579)">
 <g fill="rgb(0.0%,0.0%,0.0%)">
 <text style="stroke:none" transform="scale(1,-1) translate(7.91473,0)" text-anchor="middle"  font-size="10"> 
po1</text> 
</g>
 </g>
 </g>
 </g>
 <g>
 <g stroke-width="0.8pt">
 <g>
 <g stroke-width="0.8pt">
 <path d=" M  51.45529 -295.83969 h  6.6643 v  17.21802 h  -6.6643 Z  " />
 </g>
 </g>
 <g>
 <g transform="matrix(1.0,0.0,0.0,1.0,54.78745,-287.23068)">
 <g fill="rgb(0.0%,0.0%,0.0%)">
 <text style="stroke:none" transform="scale(1,-1) translate(0.0,0)" text-anchor="middle"  font-size="10"> 
</text> 
</g>
 </g>
 </g>
 </g>
 </g>
 <g>
 <g>
 <g transform="matrix(1.0,0.0,0.0,1.0,68.21227,-283.77579)">
 <g fill="rgb(0.0%,0.0%,0.0%)">
 <text style="stroke:none" transform="scale(1,-1) translate(7.91473,0)" text-anchor="middle"  font-size="10"> 
po2</text> 
</g>
 </g>
 </g>
 </g>
 <g>
 <g stroke-width="0.8pt">
 <g>
 <g stroke-width="0.8pt">
 <path d=" M  96.84256 -295.83969 h  6.6643 v  17.21802 h  -6.6643 Z  " />
 </g>
 </g>
 <g>
 <g transform="matrix(1.0,0.0,0.0,1.0,100.17471,-287.23068)">
 <g fill="rgb(0.0%,0.0%,0.0%)">
 <text style="stroke:none" transform="scale(1,-1) translate(0.0,0)" text-anchor="middle"  font-size="10"> 
</text> 
</g>
 </g>
 </g>
 </g>
 </g>
 <g>
 <g>
 <g transform="matrix(1.0,0.0,0.0,1.0,113.59953,-283.77579)">
 <g fill="rgb(0.0%,0.0%,0.0%)">
 <text style="stroke:none" transform="scale(1,-1) translate(7.91473,0)" text-anchor="middle"  font-size="10"> 
po3</text> 
</g>
 </g>
 </g>
 </g>
 <g>
 <g stroke-width="0.8pt">
 <g>
 <g stroke-width="0.8pt">
 <path d=" M  206.41745 -295.83969 h  6.6643 v  17.21802 h  -6.6643 Z  " />
 </g>
 </g>
 <g>
 <g transform="matrix(1.0,0.0,0.0,1.0,209.7496,-287.23068)">
 <g fill="rgb(0.0%,0.0%,0.0%)">
 <text style="stroke:none" transform="scale(1,-1) translate(0.0,0)" text-anchor="middle"  font-size="10"> 
</text> 
</g>
 </g>
 </g>
 </g>
 </g>
 <g>
 <g>
 <g transform="matrix(1.0,0.0,0.0,1.0,223.17442,-283.77579)">
 <g fill="rgb(0.0%,0.0%,0.0%)">
 <text style="stroke:none" transform="scale(1,-1) translate(7.91473,0)" text-anchor="middle"  font-size="10"> 
po4</text> 
</g>
 </g>
 </g>
 </g>
 <path d=" M  -113.81097 -298.7538 M  -113.81097 -298.7538 L  -113.81097 -156.49008 L  284.52744 -156.49008 L  284.52744 -298.7538 Z M  284.52744 -156.49008  " style="fill:none"/>
 <g>
 <g stroke-width="0.8pt">
 <g>
 <path d=" M  -54.78745 -227.36761 L  -54.78745 -273.54178  " style="fill:none"/>
 <g>
 <g transform="matrix(0.0,-1.0,1.0,0.0,-54.78745,-273.54178)">
 <g>
 <path d=" M  4.6799 0.0 C  3.29324 0.26 1.03998 1.03998 -0.51999 1.94995 L  -0.51999 -1.94995 C  1.03998 -1.03998 3.29324 -0.26 4.6799 0.0  " style="stroke:none"/>
 </g>
  </g>
 </g>
 </g>
 </g>
 </g>
 <g>
 <g stroke-width="0.8pt">
 <g>
 <path d=" M  54.78745 -227.36761 L  54.78745 -273.54178  " style="fill:none"/>
 <g>
 <g transform="matrix(0.0,-1.0,1.0,0.0,54.78745,-273.54178)">
 <g>
 <path d=" M  4.6799 0.0 C  3.29324 0.26 1.03998 1.03998 -0.51999 1.94995 L  -0.51999 -1.94995 C  1.03998 -1.03998 3.29324 -0.26 4.6799 0.0  " style="stroke:none"/>
 </g>
  </g>
 </g>
 </g>
 </g>
 </g>
 <g>
 <g stroke-width="0.8pt">
 <g>
 <path d=" M  100.17471 -227.36761 L  100.17471 -273.54178  " style="fill:none"/>
 <g>
 <g transform="matrix(0.0,-1.0,1.0,0.0,100.17471,-273.54178)">
 <g>
 <path d=" M  4.6799 0.0 C  3.29324 0.26 1.03998 1.03998 -0.51999 1.94995 L  -0.51999 -1.94995 C  1.03998 -1.03998 3.29324 -0.26 4.6799 0.0  " style="stroke:none"/>
 </g>
  </g>
 </g>
 </g>
 </g>
 </g>
 <g>
 <g stroke-width="0.8pt">
 <g>
 <path d=" M  209.7496 -227.36761 L  209.7496 -273.54178  " style="fill:none"/>
 <g>
 <g transform="matrix(0.0,-1.0,1.0,0.0,209.7496,-273.54178)">
 <g>
 <path d=" M  4.6799 0.0 C  3.29324 0.26 1.03998 1.03998 -0.51999 1.94995 L  -0.51999 -1.94995 C  1.03998 -1.03998 3.29324 -0.26 4.6799 0.0  " style="stroke:none"/>
 </g>
  </g>
 </g>
 </g>
 </g>
 </g>
 <g>
 <g stroke-width="0.8pt">
 <g>
 <g stroke-width="0.8pt">
 <path d=" M  -58.1196 -373.32077 h  6.6643 v  17.21802 h  -6.6643 Z  " />
 </g>
 </g>
 <g>
 <g transform="matrix(1.0,0.0,0.0,1.0,-54.78745,-364.71176)">
 <g fill="rgb(0.0%,0.0%,0.0%)">
 <text style="stroke:none" transform="scale(1,-1) translate(0.0,0)" text-anchor="middle"  font-size="10"> 
</text> 
</g>
 </g>
 </g>
 </g>
 </g>
 <g>
 <g>
 <g transform="matrix(1.0,0.0,0.0,1.0,-82.79204,-372.74689)">
 <g fill="rgb(0.0%,0.0%,0.0%)">
 <text style="stroke:none" transform="scale(1,-1) translate(6.66504,0)" text-anchor="middle"  font-size="10"> 
pi1</text> 
</g>
 </g>
 </g>
 </g>
 <g>
 <g stroke-width="0.8pt">
 <g>
 <g stroke-width="0.8pt">
 <path d=" M  51.45529 -373.32077 h  6.6643 v  17.21802 h  -6.6643 Z  " />
 </g>
 </g>
 <g>
 <g transform="matrix(1.0,0.0,0.0,1.0,54.78745,-364.71176)">
 <g fill="rgb(0.0%,0.0%,0.0%)">
 <text style="stroke:none" transform="scale(1,-1) translate(0.0,0)" text-anchor="middle"  font-size="10"> 
</text> 
</g>
 </g>
 </g>
 </g>
 </g>
 <g>
 <g>
 <g transform="matrix(1.0,0.0,0.0,1.0,69.46196,-372.74689)">
 <g fill="rgb(0.0%,0.0%,0.0%)">
 <text style="stroke:none" transform="scale(1,-1) translate(6.66504,0)" text-anchor="middle"  font-size="10"> 
pi2</text> 
</g>
 </g>
 </g>
 </g>
 <g>
 <g stroke-width="0.8pt">
 <g>
 <g stroke-width="0.8pt">
 <path d=" M  96.84256 -373.32077 h  6.6643 v  17.21802 h  -6.6643 Z  " />
 </g>
 </g>
 <g>
 <g transform="matrix(1.0,0.0,0.0,1.0,100.17471,-364.71176)">
 <g fill="rgb(0.0%,0.0%,0.0%)">
 <text style="stroke:none" transform="scale(1,-1) translate(0.0,0)" text-anchor="middle"  font-size="10"> 
</text> 
</g>
 </g>
 </g>
 </g>
 </g>
 <g>
 <g>
 <g transform="matrix(1.0,0.0,0.0,1.0,114.84923,-372.74689)">
 <g fill="rgb(0.0%,0.0%,0.0%)">
 <text style="stroke:none" transform="scale(1,-1) translate(6.66504,0)" text-anchor="middle"  font-size="10"> 
pi3</text> 
</g>
 </g>
 </g>
 </g>
 <g>
 <g stroke-width="0.8pt">
 <g>
 <g stroke-width="0.8pt">
 <path d=" M  206.41745 -373.32077 h  6.6643 v  17.21802 h  -6.6643 Z  " />
 </g>
 </g>
 <g>
 <g transform="matrix(1.0,0.0,0.0,1.0,209.7496,-364.71176)">
 <g fill="rgb(0.0%,0.0%,0.0%)">
 <text style="stroke:none" transform="scale(1,-1) translate(0.0,0)" text-anchor="middle"  font-size="10"> 
</text> 
</g>
 </g>
 </g>
 </g>
 </g>
 <g>
 <g>
 <g transform="matrix(1.0,0.0,0.0,1.0,224.42412,-372.74689)">
 <g fill="rgb(0.0%,0.0%,0.0%)">
 <text style="stroke:none" transform="scale(1,-1) translate(6.66504,0)" text-anchor="middle"  font-size="10"> 
pi4</text> 
</g>
 </g>
 </g>
 </g>
 <g>
 <g stroke-width="0.8pt">
 <g>
 <path d=" M  -54.78745 -296.23969 L  -54.78745 -351.02286  " style="fill:none"/>
 <g>
 <g transform="matrix(0.0,-1.0,1.0,0.0,-54.78745,-351.02286)">
 <g>
 <path d=" M  4.6799 0.0 C  3.29324 0.26 1.03998 1.03998 -0.51999 1.94995 L  -0.51999 -1.94995 C  1.03998 -1.03998 3.29324 -0.26 4.6799 0.0  " style="stroke:none"/>
 </g>
  </g>
 </g>
 </g>
 </g>
 </g>
 <g>
 <g stroke-width="0.8pt">
 <g>
 <path d=" M  54.78745 -296.23969 L  54.78745 -351.02286  " style="fill:none"/>
 <g>
 <g transform="matrix(0.0,-1.0,1.0,0.0,54.78745,-351.02286)">
 <g>
 <path d=" M  4.6799 0.0 C  3.29324 0.26 1.03998 1.03998 -0.51999 1.94995 L  -0.51999 -1.94995 C  1.03998 -1.03998 3.29324 -0.26 4.6799 0.0  " style="stroke:none"/>
 </g>
  </g>
 </g>
 </g>
 </g>
 </g>
 <g>
 <g stroke-width="0.8pt">
 <g>
 <path d=" M  100.17471 -296.23969 L  100.17471 -351.02286  " style="fill:none"/>
 <g>
 <g transform="matrix(0.0,-1.0,1.0,0.0,100.17471,-351.02286)">
 <g>
 <path d=" M  4.6799 0.0 C  3.29324 0.26 1.03998 1.03998 -0.51999 1.94995 L  -0.51999 -1.94995 C  1.03998 -1.03998 3.29324 -0.26 4.6799 0.0  " style="stroke:none"/>
 </g>
  </g>
 </g>
 </g>
 </g>
 </g>
 <g>
 <g stroke-width="0.8pt">
 <g>
 <path d=" M  209.7496 -296.23969 L  209.7496 -351.02286  " style="fill:none"/>
 <g>
 <g transform="matrix(0.0,-1.0,1.0,0.0,209.7496,-351.02286)">
 <g>
 <path d=" M  4.6799 0.0 C  3.29324 0.26 1.03998 1.03998 -0.51999 1.94995 L  -0.51999 -1.94995 C  1.03998 -1.03998 3.29324 -0.26 4.6799 0.0  " style="stroke:none"/>
 </g>
  </g>
 </g>
 </g>
 </g>
 </g>
 <path d=" M  -113.81097 -492.23254 M  -113.81097 -492.23254 L  -113.81097 -378.42157 L  284.52744 -378.42157 L  284.52744 -492.23254 Z M  284.52744 -378.42157  " style="fill:none"/>
 <g>
 <g stroke-width="0.8pt">
 <g>
 <g stroke-width="0.8pt">
 <path d=" M  98.34016 -419.4992 C  98.34016 -409.98984 90.63152 -402.28119 81.12215 -402.28119 C  71.61278 -402.28119 63.90413 -409.98984 63.90413 -419.4992 C  63.90413 -429.00858 71.61278 -436.71722 81.12215 -436.71722 C  90.63152 -436.71722 98.34016 -429.00858 98.34016 -419.4992 Z M  81.12215 -419.4992  " style="fill:none"/>
 </g>
 </g>
 <g>
 <g transform="matrix(1.0,0.0,0.0,1.0,77.51192,-422.94281)">
 <g fill="rgb(0.0%,0.0%,0.0%)">
 <text style="stroke:none" transform="scale(1,-1) translate(3.61023,0)" text-anchor="middle"  font-size="10"> 
C</text> 
</g>
 </g>
 </g>
 </g>
 </g>
 <g>
 <g>
 <g transform="matrix(1.0,0.0,0.0,1.0,-107.64546,-450.42357)">
 <g fill="rgb(0.0%,0.0%,0.0%)">
 <text style="stroke:none" transform="scale(1,-1) translate(18.05115,0)" text-anchor="middle"  font-size="10"> 
Splice C</text> 
</g>
 </g>
 </g>
 </g>
 <g>
 <g stroke-width="0.8pt">
 <g>
 <path d=" M  -51.0553 -366.21576 L  60.41895 -411.15376  " style="fill:none"/>
 <g>
 <g transform="matrix(0.92848,-0.37428,0.37428,0.92848,60.41893,-411.15375)">
 <g>
 <path d=" M  4.6799 0.0 C  3.29324 0.26 1.03998 1.03998 -0.51999 1.94995 L  -0.51999 -1.94995 C  1.03998 -1.03998 3.29324 -0.26 4.6799 0.0  " style="stroke:none"/>
 </g>
  </g>
 </g>
 </g>
 </g>
 </g>
 <g>
 <g stroke-width="0.8pt">
 <g>
 <path d=" M  58.51959 -372.47498 L  71.45985 -399.39722  " style="fill:none"/>
 <g>
 <g transform="matrix(0.4333,-0.90152,0.90152,0.4333,71.45985,-399.3972)">
 <g>
 <path d=" M  4.6799 0.0 C  3.29324 0.26 1.03998 1.03998 -0.51999 1.94995 L  -0.51999 -1.94995 C  1.03998 -1.03998 3.29324 -0.26 4.6799 0.0  " style="stroke:none"/>
 </g>
  </g>
 </g>
 </g>
 </g>
 </g>
 <g>
 <g stroke-width="0.8pt">
 <g>
 <path d=" M  97.04323 -373.72076 L  88.46375 -398.38806  " style="fill:none"/>
 <g>
 <g transform="matrix(-0.3293,-0.94678,0.94678,-0.3293,88.46376,-398.38806)">
 <g>
 <path d=" M  4.6799 0.0 C  3.29324 0.26 1.03998 1.03998 -0.51999 1.94995 L  -0.51999 -1.94995 C  1.03998 -1.03998 3.29324 -0.26 4.6799 0.0  " style="stroke:none"/>
 </g>
  </g>
 </g>
 </g>
 </g>
 </g>
 <g>
 <g stroke-width="0.8pt">
 <g>
 <path d=" M  206.01746 -366.30101 L  101.6804 -410.74275  " style="fill:none"/>
 <g>
 <g transform="matrix(-0.92198,-0.39272,0.39272,-0.92198,101.6804,-410.74274)">
 <g>
 <path d=" M  4.6799 0.0 C  3.29324 0.26 1.03998 1.03998 -0.51999 1.94995 L  -0.51999 -1.94995 C  1.03998 -1.03998 3.29324 -0.26 4.6799 0.0  " style="stroke:none"/>
 </g>
  </g>
 </g>
 </g>
 </g>
 </g>
 </g>
 </g>
 </g>
 </g>
 </g>
 
                                                                                                                        </g> 
</svg> 
