<?xml version="1.0" encoding="iso-8859-1" standalone="no"?> 
<?xml-stylesheet href="ref.css" type="text/css"?> 
<svg xmlns="http://www.w3.org/2000/svg" xmlns:xlink="http://www.w3.org/1999/xlink" width="230.62746pt" height="563.5105pt" viewBox="-115.191 -552.93903 230.62746 563.5105 "> 
<g transform="translate(0, 10.57147 ) scale(1,-1) translate(0,552.93903 )"> 
                                   <g>
 <g stroke="rgb(0.0%,0.0%,0.0%)">
 <g fill="rgb(0.0%,0.0%,0.0%)">
 <g stroke-width="0.4pt">
 <g>
 <g>
 <g stroke-width="0.8pt">
 <g>
 <g stroke-width="0.8pt">
 <path d=" M  22.97485 0.0 C  22.97485 5.61761 12.68881 10.17148 0.0 10.17148 C  -12.68881 10.17148 -22.97485 5.61761 -22.97485 0.0 C  -22.97485 -5.61761 -12.68881 -10.17148 0.0 -10.17148 C  12.68881 -10.17148 22.97485 -5.61761 22.97485 0.0 Z M  0.0 0.0  " style="fill:none"/>
 </g>
 </g>
 <g>
 <g transform="matrix(1.0,0.0,0.0,1.0,-12.91351,-3.02704)">
 <g fill="rgb(0.0%,0.0%,0.0%)">
 <text style="stroke:none" transform="scale(1,-1) translate(12.91351,0)" text-anchor="middle"  font-size="10"> 
S3+A</text> 
</g>
 </g>
 </g>
 </g>
 </g>
 <g>
 <g stroke-width="0.8pt">
 <g>
 <g stroke-width="0.8pt">
 <path d=" M  37.01537 -77.48108 C  37.01537 -71.86346 20.44328 -67.3096 0.0 -67.3096 C  -20.44328 -67.3096 -37.01537 -71.86346 -37.01537 -77.48108 C  -37.01537 -83.0987 -20.44328 -87.65256 0.0 -87.65256 C  20.44328 -87.65256 37.01537 -83.0987 37.01537 -77.48108 Z M  0.0 -77.48108  " style="fill:none"/>
 </g>
 </g>
 <g>
 <g transform="matrix(1.0,0.0,0.0,1.0,-22.84164,-80.50812)">
 <g fill="rgb(0.0%,0.0%,0.0%)">
 <text style="stroke:none" transform="scale(1,-1) translate(22.84164,0)" text-anchor="middle"  font-size="10"> 
S3+X1+B</text> 
</g>
 </g>
 </g>
 </g>
 </g>
 <g>
 <g stroke-width="0.8pt">
 <g>
 <g stroke-width="0.8pt">
 <path d=" M  -40.17116 -77.48108 C  -40.17116 -71.86346 -56.87512 -67.3096 -77.48108 -67.3096 C  -98.08704 -67.3096 -114.791 -71.86346 -114.791 -77.48108 C  -114.791 -83.0987 -98.08704 -87.65256 -77.48108 -87.65256 C  -56.87512 -87.65256 -40.17116 -83.0987 -40.17116 -77.48108 Z M  -77.48108 -77.48108  " style="fill:none"/>
 </g>
 </g>
 <g>
 <g transform="matrix(1.0,0.0,0.0,1.0,-100.531,-80.50812)">
 <g fill="rgb(0.0%,0.0%,0.0%)">
 <text style="stroke:none" transform="scale(1,-1) translate(23.04993,0)" text-anchor="middle"  font-size="10"> 
S3+X1+A</text> 
</g>
 </g>
 </g>
 </g>
 </g>
 <g>
 <g stroke-width="0.8pt">
 <g>
 <g stroke-width="0.8pt">
 <path d=" M  114.59464 -77.48108 C  114.59464 -71.86346 97.97859 -67.3096 77.48108 -67.3096 C  56.98357 -67.3096 40.36752 -71.86346 40.36752 -77.48108 C  40.36752 -83.0987 56.98357 -87.65256 77.48108 -87.65256 C  97.97859 -87.65256 114.59464 -83.0987 114.59464 -77.48108 Z M  77.48108 -77.48108  " style="fill:none"/>
 </g>
 </g>
 <g>
 <g transform="matrix(1.0,0.0,0.0,1.0,54.57,-80.50812)">
 <g fill="rgb(0.0%,0.0%,0.0%)">
 <text style="stroke:none" transform="scale(1,-1) translate(22.91107,0)" text-anchor="middle"  font-size="10"> 
S3+X1+C</text> 
</g>
 </g>
 </g>
 </g>
 </g>
 <g>
 <g stroke-width="0.8pt">
 <g>
 <g stroke-width="0.8pt">
 <path d=" M  37.40811 -154.96216 C  37.40811 -149.34454 20.66019 -144.79068 0.0 -144.79068 C  -20.66019 -144.79068 -37.40811 -149.34454 -37.40811 -154.96216 C  -37.40811 -160.57977 -20.66019 -165.13364 0.0 -165.13364 C  20.66019 -165.13364 37.40811 -160.57977 37.40811 -154.96216 Z M  0.0 -154.96216  " style="fill:none"/>
 </g>
 </g>
 <g>
 <g transform="matrix(1.0,0.0,0.0,1.0,-23.11935,-157.9892)">
 <g fill="rgb(0.0%,0.0%,0.0%)">
 <text style="stroke:none" transform="scale(1,-1) translate(23.11935,0)" text-anchor="middle"  font-size="10"> 
S3+X1+D</text> 
</g>
 </g>
 </g>
 </g>
 </g>
 <g>
 <g stroke-width="0.8pt">
 <g>
 <g stroke-width="0.8pt">
 <path d=" M  36.62263 -232.44324 C  36.62263 -226.82562 20.22638 -222.27176 0.0 -222.27176 C  -20.22638 -222.27176 -36.62263 -226.82562 -36.62263 -232.44324 C  -36.62263 -238.06085 -20.22638 -242.61472 0.0 -242.61472 C  20.22638 -242.61472 36.62263 -238.06085 36.62263 -232.44324 Z M  0.0 -232.44324  " style="fill:none"/>
 </g>
 </g>
 <g>
 <g transform="matrix(1.0,0.0,0.0,1.0,-22.56393,-235.47028)">
 <g fill="rgb(0.0%,0.0%,0.0%)">
 <text style="stroke:none" transform="scale(1,-1) translate(22.56393,0)" text-anchor="middle"  font-size="10"> 
S3+X1+F</text> 
</g>
 </g>
 </g>
 </g>
 </g>
 <g>
 <g stroke-width="0.8pt">
 <g>
 <g stroke-width="0.8pt">
 <path d=" M  -40.66208 -232.44324 C  -40.66208 -226.82562 -57.14626 -222.27176 -77.48108 -222.27176 C  -97.8159 -222.27176 -114.30008 -226.82562 -114.30008 -232.44324 C  -114.30008 -238.06085 -97.8159 -242.61472 -77.48108 -242.61472 C  -57.14626 -242.61472 -40.66208 -238.06085 -40.66208 -232.44324 Z M  -77.48108 -232.44324  " style="fill:none"/>
 </g>
 </g>
 <g>
 <g transform="matrix(1.0,0.0,0.0,1.0,-100.18387,-235.47028)">
 <g fill="rgb(0.0%,0.0%,0.0%)">
 <text style="stroke:none" transform="scale(1,-1) translate(22.70279,0)" text-anchor="middle"  font-size="10"> 
S3+X1+E</text> 
</g>
 </g>
 </g>
 </g>
 </g>
 <g>
 <g stroke-width="0.8pt">
 <g>
 <g stroke-width="0.8pt">
 <path d=" M  115.03647 -232.44324 C  115.03647 -226.82562 98.22261 -222.27176 77.48108 -222.27176 C  56.73955 -222.27176 39.92569 -226.82562 39.92569 -232.44324 C  39.92569 -238.06085 56.73955 -242.61472 77.48108 -242.61472 C  98.22261 -242.61472 115.03647 -238.06085 115.03647 -232.44324 Z M  77.48108 -232.44324  " style="fill:none"/>
 </g>
 </g>
 <g>
 <g transform="matrix(1.0,0.0,0.0,1.0,54.25758,-235.47028)">
 <g fill="rgb(0.0%,0.0%,0.0%)">
 <text style="stroke:none" transform="scale(1,-1) translate(23.2235,0)" text-anchor="middle"  font-size="10"> 
S3+X1+G</text> 
</g>
 </g>
 </g>
 </g>
 </g>
 <g>
 <g stroke-width="0.8pt">
 <g>
 <g stroke-width="0.8pt">
 <path d=" M  -40.17116 -309.92432 C  -40.17116 -304.3067 -56.87512 -299.75284 -77.48108 -299.75284 C  -98.08704 -299.75284 -114.791 -304.3067 -114.791 -309.92432 C  -114.791 -315.54193 -98.08704 -320.0958 -77.48108 -320.0958 C  -56.87512 -320.0958 -40.17116 -315.54193 -40.17116 -309.92432 Z M  -77.48108 -309.92432  " style="fill:none"/>
 </g>
 </g>
 <g>
 <g transform="matrix(1.0,0.0,0.0,1.0,-100.531,-312.95135)">
 <g fill="rgb(0.0%,0.0%,0.0%)">
 <text style="stroke:none" transform="scale(1,-1) translate(23.04993,0)" text-anchor="middle"  font-size="10"> 
S3+X2+A</text> 
</g>
 </g>
 </g>
 </g>
 </g>
 <g>
 <g stroke-width="0.8pt">
 <g>
 <g stroke-width="0.8pt">
 <path d=" M  37.01537 -309.92432 C  37.01537 -304.3067 20.44328 -299.75284 0.0 -299.75284 C  -20.44328 -299.75284 -37.01537 -304.3067 -37.01537 -309.92432 C  -37.01537 -315.54193 -20.44328 -320.0958 0.0 -320.0958 C  20.44328 -320.0958 37.01537 -315.54193 37.01537 -309.92432 Z M  0.0 -309.92432  " style="fill:none"/>
 </g>
 </g>
 <g>
 <g transform="matrix(1.0,0.0,0.0,1.0,-22.84164,-312.95135)">
 <g fill="rgb(0.0%,0.0%,0.0%)">
 <text style="stroke:none" transform="scale(1,-1) translate(22.84164,0)" text-anchor="middle"  font-size="10"> 
S3+X2+B</text> 
</g>
 </g>
 </g>
 </g>
 </g>
 <g>
 <g stroke-width="0.8pt">
 <g>
 <g stroke-width="0.8pt">
 <path d=" M  114.59464 -309.92432 C  114.59464 -304.3067 97.97859 -299.75284 77.48108 -299.75284 C  56.98357 -299.75284 40.36752 -304.3067 40.36752 -309.92432 C  40.36752 -315.54193 56.98357 -320.0958 77.48108 -320.0958 C  97.97859 -320.0958 114.59464 -315.54193 114.59464 -309.92432 Z M  77.48108 -309.92432  " style="fill:none"/>
 </g>
 </g>
 <g>
 <g transform="matrix(1.0,0.0,0.0,1.0,54.57,-312.95135)">
 <g fill="rgb(0.0%,0.0%,0.0%)">
 <text style="stroke:none" transform="scale(1,-1) translate(22.91107,0)" text-anchor="middle"  font-size="10"> 
S3+X2+C</text> 
</g>
 </g>
 </g>
 </g>
 </g>
 <g>
 <g stroke-width="0.8pt">
 <g>
 <g stroke-width="0.8pt">
 <path d=" M  37.40811 -387.4054 C  37.40811 -381.78778 20.66019 -377.23392 0.0 -377.23392 C  -20.66019 -377.23392 -37.40811 -381.78778 -37.40811 -387.4054 C  -37.40811 -393.02301 -20.66019 -397.57687 0.0 -397.57687 C  20.66019 -397.57687 37.40811 -393.02301 37.40811 -387.4054 Z M  0.0 -387.4054  " style="fill:none"/>
 </g>
 </g>
 <g>
 <g transform="matrix(1.0,0.0,0.0,1.0,-23.11935,-390.43243)">
 <g fill="rgb(0.0%,0.0%,0.0%)">
 <text style="stroke:none" transform="scale(1,-1) translate(23.11935,0)" text-anchor="middle"  font-size="10"> 
S3+X2+D</text> 
</g>
 </g>
 </g>
 </g>
 </g>
 <g>
 <g stroke-width="0.8pt">
 <g>
 <g stroke-width="0.8pt">
 <path d=" M  36.62263 -464.88647 C  36.62263 -459.26886 20.22638 -454.715 0.0 -454.715 C  -20.22638 -454.715 -36.62263 -459.26886 -36.62263 -464.88647 C  -36.62263 -470.50409 -20.22638 -475.05795 0.0 -475.05795 C  20.22638 -475.05795 36.62263 -470.50409 36.62263 -464.88647 Z M  0.0 -464.88647  " style="fill:none"/>
 </g>
 </g>
 <g>
 <g transform="matrix(1.0,0.0,0.0,1.0,-22.56393,-467.91351)">
 <g fill="rgb(0.0%,0.0%,0.0%)">
 <text style="stroke:none" transform="scale(1,-1) translate(22.56393,0)" text-anchor="middle"  font-size="10"> 
S3+X2+F</text> 
</g>
 </g>
 </g>
 </g>
 </g>
 <g>
 <g stroke-width="0.8pt">
 <g>
 <g stroke-width="0.8pt">
 <path d=" M  -40.66208 -464.88647 C  -40.66208 -459.26886 -57.14626 -454.715 -77.48108 -454.715 C  -97.8159 -454.715 -114.30008 -459.26886 -114.30008 -464.88647 C  -114.30008 -470.50409 -97.8159 -475.05795 -77.48108 -475.05795 C  -57.14626 -475.05795 -40.66208 -470.50409 -40.66208 -464.88647 Z M  -77.48108 -464.88647  " style="fill:none"/>
 </g>
 </g>
 <g>
 <g transform="matrix(1.0,0.0,0.0,1.0,-100.18387,-467.91351)">
 <g fill="rgb(0.0%,0.0%,0.0%)">
 <text style="stroke:none" transform="scale(1,-1) translate(22.70279,0)" text-anchor="middle"  font-size="10"> 
S3+X2+E</text> 
</g>
 </g>
 </g>
 </g>
 </g>
 <g>
 <g stroke-width="0.8pt">
 <g>
 <g stroke-width="0.8pt">
 <path d=" M  115.03647 -464.88647 C  115.03647 -459.26886 98.22261 -454.715 77.48108 -454.715 C  56.73955 -454.715 39.92569 -459.26886 39.92569 -464.88647 C  39.92569 -470.50409 56.73955 -475.05795 77.48108 -475.05795 C  98.22261 -475.05795 115.03647 -470.50409 115.03647 -464.88647 Z M  77.48108 -464.88647  " style="fill:none"/>
 </g>
 </g>
 <g>
 <g transform="matrix(1.0,0.0,0.0,1.0,54.25758,-467.91351)">
 <g fill="rgb(0.0%,0.0%,0.0%)">
 <text style="stroke:none" transform="scale(1,-1) translate(23.2235,0)" text-anchor="middle"  font-size="10"> 
S3+X2+G</text> 
</g>
 </g>
 </g>
 </g>
 </g>
 <g>
 <g stroke-width="0.8pt">
 <g>
 <g stroke-width="0.8pt">
 <path d=" M  22.6803 -542.36755 C  22.6803 -536.74994 12.52614 -532.19608 0.0 -532.19608 C  -12.52614 -532.19608 -22.6803 -536.74994 -22.6803 -542.36755 C  -22.6803 -547.98517 -12.52614 -552.53903 0.0 -552.53903 C  12.52614 -552.53903 22.6803 -547.98517 22.6803 -542.36755 Z M  0.0 -542.36755  " style="fill:none"/>
 </g>
 </g>
 <g>
 <g transform="matrix(1.0,0.0,0.0,1.0,-12.70523,-545.39459)">
 <g fill="rgb(0.0%,0.0%,0.0%)">
 <text style="stroke:none" transform="scale(1,-1) translate(12.70523,0)" text-anchor="middle"  font-size="10"> 
S3+B</text> 
</g>
 </g>
 </g>
 </g>
 </g>
 <g>
 <g stroke-width="0.8pt">
 <g>
 <path d=" M  -9.64119 -9.6404 L  -63.99294 -63.99162  " style="fill:none"/>
 <g>
 <g transform="matrix(-0.7071,-0.70717,0.70717,-0.7071,-63.99292,-63.99162)">
 <g>
 <path d=" M  4.6799 0.0 C  3.29324 0.26 1.03998 1.03998 -0.51999 1.94995 L  -0.51999 -1.94995 C  1.03998 -1.03998 3.29324 -0.26 4.6799 0.0  " style="stroke:none"/>
 </g>
  </g>
 </g>
 </g>
 </g>
 </g>
 <g>
 <g stroke-width="0.8pt">
 <g>
 <path d=" M  -67.30154 -87.66106 L  -13.51523 -141.44688  " style="fill:none"/>
 <g>
 <g transform="matrix(0.7071,-0.70714,0.70714,0.7071,-13.51524,-141.44687)">
 <g>
 <path d=" M  4.6799 0.0 C  3.29324 0.26 1.03998 1.03998 -0.51999 1.94995 L  -0.51999 -1.94995 C  1.03998 -1.03998 3.29324 -0.26 4.6799 0.0  " style="stroke:none"/>
 </g>
  </g>
 </g>
 </g>
 </g>
 </g>
 <g>
 <g stroke-width="0.8pt">
 <g>
 <path d=" M  0.0 -10.57147 L  0.0 -62.2297  " style="fill:none"/>
 <g>
 <g transform="matrix(0.0,-1.0,1.0,0.0,0.0,-62.2297)">
 <g>
 <path d=" M  4.6799 0.0 C  3.29324 0.26 1.03998 1.03998 -0.51999 1.94995 L  -0.51999 -1.94995 C  1.03998 -1.03998 3.29324 -0.26 4.6799 0.0  " style="stroke:none"/>
 </g>
  </g>
 </g>
 </g>
 </g>
 </g>
 <g>
 <g stroke-width="0.8pt">
 <g>
 <path d=" M  0.0 -88.05255 L  0.0 -139.71078  " style="fill:none"/>
 <g>
 <g transform="matrix(0.0,-1.0,1.0,0.0,0.0,-139.71078)">
 <g>
 <path d=" M  4.6799 0.0 C  3.29324 0.26 1.03998 1.03998 -0.51999 1.94995 L  -0.51999 -1.94995 C  1.03998 -1.03998 3.29324 -0.26 4.6799 0.0  " style="stroke:none"/>
 </g>
  </g>
 </g>
 </g>
 </g>
 </g>
 <g>
 <g stroke-width="0.8pt">
 <g>
 <path d=" M  9.64119 -9.6404 L  63.99185 -63.99191  " style="fill:none"/>
 <g>
 <g transform="matrix(0.70717,-0.7071,0.7071,0.70717,63.99185,-63.9919)">
 <g>
 <path d=" M  4.6799 0.0 C  3.29324 0.26 1.03998 1.03998 -0.51999 1.94995 L  -0.51999 -1.94995 C  1.03998 -1.03998 3.29324 -0.26 4.6799 0.0  " style="stroke:none"/>
 </g>
  </g>
 </g>
 </g>
 </g>
 </g>
 <g>
 <g stroke-width="0.8pt">
 <g>
 <path d=" M  67.30075 -87.66106 L  13.51537 -141.44702  " style="fill:none"/>
 <g>
 <g transform="matrix(-0.70714,-0.7071,0.7071,-0.70714,13.51538,-141.447)">
 <g>
 <path d=" M  4.6799 0.0 C  3.29324 0.26 1.03998 1.03998 -0.51999 1.94995 L  -0.51999 -1.94995 C  1.03998 -1.03998 3.29324 -0.26 4.6799 0.0  " style="stroke:none"/>
 </g>
  </g>
 </g>
 </g>
 </g>
 </g>
 <g>
 <g stroke-width="0.8pt">
 <g>
 <path d=" M  -10.20718 -165.1681 L  -63.99242 -218.95407  " style="fill:none"/>
 <g>
 <g transform="matrix(-0.70714,-0.7071,0.7071,-0.70714,-63.9924,-218.95406)">
 <g>
 <path d=" M  4.6799 0.0 C  3.29324 0.26 1.03998 1.03998 -0.51999 1.94995 L  -0.51999 -1.94995 C  1.03998 -1.03998 3.29324 -0.26 4.6799 0.0  " style="stroke:none"/>
 </g>
  </g>
 </g>
 </g>
 </g>
 </g>
 <g>
 <g stroke-width="0.8pt">
 <g>
 <path d=" M  0.0 -165.53363 L  0.0 -217.19186  " style="fill:none"/>
 <g>
 <g transform="matrix(0.0,-1.0,1.0,0.0,0.0,-217.19186)">
 <g>
 <path d=" M  4.6799 0.0 C  3.29324 0.26 1.03998 1.03998 -0.51999 1.94995 L  -0.51999 -1.94995 C  1.03998 -1.03998 3.29324 -0.26 4.6799 0.0  " style="stroke:none"/>
 </g>
  </g>
 </g>
 </g>
 </g>
 </g>
 <g>
 <g stroke-width="0.8pt">
 <g>
 <path d=" M  10.20718 -165.1681 L  63.96643 -218.9281  " style="fill:none"/>
 <g>
 <g transform="matrix(0.70715,-0.7071,0.7071,0.70715,63.96643,-218.92809)">
 <g>
 <path d=" M  4.6799 0.0 C  3.29324 0.26 1.03998 1.03998 -0.51999 1.94995 L  -0.51999 -1.94995 C  1.03998 -1.03998 3.29324 -0.26 4.6799 0.0  " style="stroke:none"/>
 </g>
  </g>
 </g>
 </g>
 </g>
 </g>
 <g>
 <g stroke-width="0.8pt">
 <g>
 <path d=" M  -77.48108 -243.01471 L  -77.48108 -294.67294  " style="fill:none"/>
 <g>
 <g transform="matrix(0.0,-1.0,1.0,0.0,-77.48108,-294.67294)">
 <g>
 <path d=" M  4.6799 0.0 C  3.29324 0.26 1.03998 1.03998 -0.51999 1.94995 L  -0.51999 -1.94995 C  1.03998 -1.03998 3.29324 -0.26 4.6799 0.0  " style="stroke:none"/>
 </g>
  </g>
 </g>
 </g>
 </g>
 </g>
 <g>
 <g stroke-width="0.8pt">
 <g>
 <path d=" M  -67.30061 -242.62321 L  -13.48914 -296.43515  " style="fill:none"/>
 <g>
 <g transform="matrix(0.7071,-0.7071,0.7071,0.7071,-13.48915,-296.43513)">
 <g>
 <path d=" M  4.6799 0.0 C  3.29324 0.26 1.03998 1.03998 -0.51999 1.94995 L  -0.51999 -1.94995 C  1.03998 -1.03998 3.29324 -0.26 4.6799 0.0  " style="stroke:none"/>
 </g>
  </g>
 </g>
 </g>
 </g>
 </g>
 <g>
 <g stroke-width="0.8pt">
 <g>
 <path d=" M  -59.03458 -241.66681 L  54.84761 -298.6078  " style="fill:none"/>
 <g>
 <g transform="matrix(0.89442,-0.44722,0.44722,0.89442,54.84761,-298.6078)">
 <g>
 <path d=" M  4.6799 0.0 C  3.29324 0.26 1.03998 1.03998 -0.51999 1.94995 L  -0.51999 -1.94995 C  1.03998 -1.03998 3.29324 -0.26 4.6799 0.0  " style="stroke:none"/>
 </g>
  </g>
 </g>
 </g>
 </g>
 </g>
 <g>
 <g stroke-width="0.8pt">
 <g>
 <path d=" M  -10.17929 -242.62321 L  -63.99294 -296.43509  " style="fill:none"/>
 <g>
 <g transform="matrix(-0.7071,-0.70712,0.70712,-0.7071,-63.99292,-296.43507)">
 <g>
 <path d=" M  4.6799 0.0 C  3.29324 0.26 1.03998 1.03998 -0.51999 1.94995 L  -0.51999 -1.94995 C  1.03998 -1.03998 3.29324 -0.26 4.6799 0.0  " style="stroke:none"/>
 </g>
  </g>
 </g>
 </g>
 </g>
 </g>
 <g>
 <g stroke-width="0.8pt">
 <g>
 <path d=" M  0.0 -243.01471 L  0.0 -294.67294  " style="fill:none"/>
 <g>
 <g transform="matrix(0.0,-1.0,1.0,0.0,0.0,-294.67294)">
 <g>
 <path d=" M  4.6799 0.0 C  3.29324 0.26 1.03998 1.03998 -0.51999 1.94995 L  -0.51999 -1.94995 C  1.03998 -1.03998 3.29324 -0.26 4.6799 0.0  " style="stroke:none"/>
 </g>
  </g>
 </g>
 </g>
 </g>
 </g>
 <g>
 <g stroke-width="0.8pt">
 <g>
 <path d=" M  10.17929 -242.62321 L  63.99214 -296.43509  " style="fill:none"/>
 <g>
 <g transform="matrix(0.7071,-0.70712,0.70712,0.7071,63.99213,-296.43507)">
 <g>
 <path d=" M  4.6799 0.0 C  3.29324 0.26 1.03998 1.03998 -0.51999 1.94995 L  -0.51999 -1.94995 C  1.03998 -1.03998 3.29324 -0.26 4.6799 0.0  " style="stroke:none"/>
 </g>
  </g>
 </g>
 </g>
 </g>
 </g>
 <g>
 <g stroke-width="0.8pt">
 <g>
 <path d=" M  58.9563 -241.70601 L  -54.83215 -298.59952  " style="fill:none"/>
 <g>
 <g transform="matrix(-0.898,-0.44899,0.44899,-0.898,-54.83214,-298.59952)">
 <g>
 <path d=" M  4.6799 0.0 C  3.29324 0.26 1.03998 1.03998 -0.51999 1.94995 L  -0.51999 -1.94995 C  1.03998 -1.03998 3.29324 -0.26 4.6799 0.0  " style="stroke:none"/>
 </g>
  </g>
 </g>
 </g>
 </g>
 </g>
 <g>
 <g stroke-width="0.8pt">
 <g>
 <path d=" M  67.27525 -242.64919 L  13.48914 -296.43501  " style="fill:none"/>
 <g>
 <g transform="matrix(-0.7071,-0.70714,0.70714,-0.7071,13.48915,-296.435)">
 <g>
 <path d=" M  4.6799 0.0 C  3.29324 0.26 1.03998 1.03998 -0.51999 1.94995 L  -0.51999 -1.94995 C  1.03998 -1.03998 3.29324 -0.26 4.6799 0.0  " style="stroke:none"/>
 </g>
  </g>
 </g>
 </g>
 </g>
 </g>
 <g>
 <g stroke-width="0.8pt">
 <g>
 <path d=" M  77.48108 -243.01471 L  77.48108 -294.67294  " style="fill:none"/>
 <g>
 <g transform="matrix(0.0,-1.0,1.0,0.0,77.48108,-294.67294)">
 <g>
 <path d=" M  4.6799 0.0 C  3.29324 0.26 1.03998 1.03998 -0.51999 1.94995 L  -0.51999 -1.94995 C  1.03998 -1.03998 3.29324 -0.26 4.6799 0.0  " style="stroke:none"/>
 </g>
  </g>
 </g>
 </g>
 </g>
 </g>
 <g>
 <g stroke-width="0.8pt">
 <g>
 <path d=" M  -67.30154 -320.1043 L  -13.51523 -373.89012  " style="fill:none"/>
 <g>
 <g transform="matrix(0.7071,-0.70714,0.70714,0.7071,-13.51524,-373.8901)">
 <g>
 <path d=" M  4.6799 0.0 C  3.29324 0.26 1.03998 1.03998 -0.51999 1.94995 L  -0.51999 -1.94995 C  1.03998 -1.03998 3.29324 -0.26 4.6799 0.0  " style="stroke:none"/>
 </g>
  </g>
 </g>
 </g>
 </g>
 </g>
 <g>
 <g stroke-width="0.8pt">
 <g>
 <path d=" M  0.0 -320.49579 L  0.0 -372.15402  " style="fill:none"/>
 <g>
 <g transform="matrix(0.0,-1.0,1.0,0.0,0.0,-372.15402)">
 <g>
 <path d=" M  4.6799 0.0 C  3.29324 0.26 1.03998 1.03998 -0.51999 1.94995 L  -0.51999 -1.94995 C  1.03998 -1.03998 3.29324 -0.26 4.6799 0.0  " style="stroke:none"/>
 </g>
  </g>
 </g>
 </g>
 </g>
 </g>
 <g>
 <g stroke-width="0.8pt">
 <g>
 <path d=" M  67.30075 -320.1043 L  13.51537 -373.89026  " style="fill:none"/>
 <g>
 <g transform="matrix(-0.70714,-0.7071,0.7071,-0.70714,13.51538,-373.89024)">
 <g>
 <path d=" M  4.6799 0.0 C  3.29324 0.26 1.03998 1.03998 -0.51999 1.94995 L  -0.51999 -1.94995 C  1.03998 -1.03998 3.29324 -0.26 4.6799 0.0  " style="stroke:none"/>
 </g>
  </g>
 </g>
 </g>
 </g>
 </g>
 <g>
 <g stroke-width="0.8pt">
 <g>
 <path d=" M  -10.20718 -397.61134 L  -63.99242 -451.39731  " style="fill:none"/>
 <g>
 <g transform="matrix(-0.70714,-0.7071,0.7071,-0.70714,-63.9924,-451.3973)">
 <g>
 <path d=" M  4.6799 0.0 C  3.29324 0.26 1.03998 1.03998 -0.51999 1.94995 L  -0.51999 -1.94995 C  1.03998 -1.03998 3.29324 -0.26 4.6799 0.0  " style="stroke:none"/>
 </g>
  </g>
 </g>
 </g>
 </g>
 </g>
 <g>
 <g stroke-width="0.8pt">
 <g>
 <path d=" M  -67.30061 -475.06645 L  -12.94989 -529.41797  " style="fill:none"/>
 <g>
 <g transform="matrix(0.70715,-0.7071,0.7071,0.70715,-12.94989,-529.41795)">
 <g>
 <path d=" M  4.6799 0.0 C  3.29324 0.26 1.03998 1.03998 -0.51999 1.94995 L  -0.51999 -1.94995 C  1.03998 -1.03998 3.29324 -0.26 4.6799 0.0  " style="stroke:none"/>
 </g>
  </g>
 </g>
 </g>
 </g>
 </g>
 <g>
 <g stroke-width="0.8pt">
 <g>
 <path d=" M  0.0 -397.97687 L  0.0 -449.6351  " style="fill:none"/>
 <g>
 <g transform="matrix(0.0,-1.0,1.0,0.0,0.0,-449.6351)">
 <g>
 <path d=" M  4.6799 0.0 C  3.29324 0.26 1.03998 1.03998 -0.51999 1.94995 L  -0.51999 -1.94995 C  1.03998 -1.03998 3.29324 -0.26 4.6799 0.0  " style="stroke:none"/>
 </g>
  </g>
 </g>
 </g>
 </g>
 </g>
 <g>
 <g stroke-width="0.8pt">
 <g>
 <path d=" M  0.0 -475.45795 L  0.0 -527.11618  " style="fill:none"/>
 <g>
 <g transform="matrix(0.0,-1.0,1.0,0.0,0.0,-527.11618)">
 <g>
 <path d=" M  4.6799 0.0 C  3.29324 0.26 1.03998 1.03998 -0.51999 1.94995 L  -0.51999 -1.94995 C  1.03998 -1.03998 3.29324 -0.26 4.6799 0.0  " style="stroke:none"/>
 </g>
  </g>
 </g>
 </g>
 </g>
 </g>
 <g>
 <g stroke-width="0.8pt">
 <g>
 <path d=" M  10.20718 -397.61134 L  63.96643 -451.37134  " style="fill:none"/>
 <g>
 <g transform="matrix(0.70715,-0.7071,0.7071,0.70715,63.96643,-451.37132)">
 <g>
 <path d=" M  4.6799 0.0 C  3.29324 0.26 1.03998 1.03998 -0.51999 1.94995 L  -0.51999 -1.94995 C  1.03998 -1.03998 3.29324 -0.26 4.6799 0.0  " style="stroke:none"/>
 </g>
  </g>
 </g>
 </g>
 </g>
 </g>
 <g>
 <g stroke-width="0.8pt">
 <g>
 <path d=" M  67.27525 -475.09242 L  12.94968 -529.41805  " style="fill:none"/>
 <g>
 <g transform="matrix(-0.7071,-0.70709,0.70709,-0.7071,12.94969,-529.41805)">
 <g>
 <path d=" M  4.6799 0.0 C  3.29324 0.26 1.03998 1.03998 -0.51999 1.94995 L  -0.51999 -1.94995 C  1.03998 -1.03998 3.29324 -0.26 4.6799 0.0  " style="stroke:none"/>
 </g>
  </g>
 </g>
 </g>
 </g>
 </g>
 </g>
 </g>
 </g>
 </g>
 </g>
 
                                                                     </g> 
</svg> 
