<?xml version="1.0" encoding="UTF-8" standalone="no"?>
<!-- Created with Inkscape (http://www.inkscape.org/) -->

<svg
   xmlns:dc="http://purl.org/dc/elements/1.1/"
   xmlns:cc="http://creativecommons.org/ns#"
   xmlns:rdf="http://www.w3.org/1999/02/22-rdf-syntax-ns#"
   xmlns:svg="http://www.w3.org/2000/svg"
   xmlns="http://www.w3.org/2000/svg"
   xmlns:sodipodi="http://sodipodi.sourceforge.net/DTD/sodipodi-0.dtd"
   xmlns:inkscape="http://www.inkscape.org/namespaces/inkscape"
   width="51.07806mm"
   height="15.583288mm"
   viewBox="0 0 51.07806 15.583288"
   version="1.1"
   id="svg8"
   inkscape:version="0.92.3 (2405546, 2018-03-11)"
   sodipodi:docname="footer_logo.svg">
  <defs
     id="defs2" />
  <sodipodi:namedview
     id="base"
     pagecolor="#ffffff"
     bordercolor="#666666"
     borderopacity="1.0"
     inkscape:pageopacity="0.0"
     inkscape:pageshadow="2"
     inkscape:zoom="0.35"
     inkscape:cx="525.09691"
     inkscape:cy="-1096.2655"
     inkscape:document-units="mm"
     inkscape:current-layer="layer1"
     showgrid="false"
     inkscape:window-width="2256"
     inkscape:window-height="1410"
     inkscape:window-x="-11"
     inkscape:window-y="-11"
     inkscape:window-maximized="1" />
  <metadata
     id="metadata5">
    <rdf:RDF>
      <cc:Work
         rdf:about="">
        <dc:format>image/svg+xml</dc:format>
        <dc:type
           rdf:resource="http://purl.org/dc/dcmitype/StillImage" />
        <dc:title></dc:title>
      </cc:Work>
    </rdf:RDF>
  </metadata>
  <g
     inkscape:label="Layer 1"
     inkscape:groupmode="layer"
     id="layer1"
     transform="translate(162.36641,156.80355)">
    <g
       id="g927"
       transform="matrix(0.26458333,0,0,0.26458333,-217.61988,-251.09219)">
      <polygon
         id="polygon815"
         points="208.832,399.172 216.286,399.172 216.286,386.303 228.888,386.303 228.888,399.172 236.342,399.172 236.342,373.633 228.888,373.633 228.888,379.667 216.286,379.667 216.286,366.797 208.832,366.797 " />
      <path
         id="path817"
         d="m 276.251,378.059 c -0.448,-3.057 -3.492,-5.381 -6.984,-5.381 -6.312,0 -8.686,5.166 -8.686,10.547 0,5.123 2.373,10.287 8.686,10.287 4.297,0 6.715,-2.84 7.252,-6.887 h 6.805 c -0.716,7.662 -6.223,12.57 -14.057,12.57 -9.895,0 -15.714,-7.105 -15.714,-15.97 0,-9.127 5.819,-16.23 15.714,-16.23 7.028,0 12.938,3.961 13.789,11.064 z"
         inkscape:connector-curvature="0"
         style="stroke:#000000;stroke-width:0.40000001" />
      <path
         id="path819"
         d="m 308.091,387.233 c 0,6.66 -3.87,12.285 -10.979,12.285 -7.11,0 -10.979,-5.625 -10.979,-12.285 0,-6.66 3.869,-12.283 10.979,-12.283 7.109,0 10.979,5.623 10.979,12.283 z m -19.125,0 c 0,4.949 2.701,9.9 8.146,9.9 5.445,0 8.145,-4.951 8.145,-9.9 0,-4.949 -2.7,-9.898 -8.145,-9.898 -5.445,0 -8.146,4.949 -8.146,9.898 z"
         inkscape:connector-curvature="0" />
      <path
         id="path821"
         d="m 310.477,375.624 h 2.835 v 4.006 h 0.09 c 1.035,-2.791 4.14,-4.68 7.425,-4.68 6.525,0 8.505,3.418 8.505,8.953 v 14.939 h -2.835 v -14.488 c 0,-4.006 -1.305,-7.02 -5.895,-7.02 -4.5,0 -7.2,3.42 -7.29,7.963 v 13.544 h -2.835 z"
         inkscape:connector-curvature="0" />
      <path
         id="path823"
         d="m 381.835,375.624 h 2.609 v 5.445 h 0.09 c 1.44,-3.734 4.59,-5.939 8.775,-5.76 v 2.834 c -5.131,-0.27 -8.641,3.51 -8.641,8.326 v 12.373 h -2.834 v -23.218 z"
         inkscape:connector-curvature="0" />
      <polygon
         id="polygon825"
         points="259.649,366.797 261.524,369.67 268.582,366.797 " />
      <polyline
         id="polyline827"
         points="228.887,366.797 228.887,373.631 241.634,373.631 241.634,399.172 249.457,399.172   249.457,373.655 262.27,373.655 262.27,366.797 "
         style="fill:#d31245" />
      <g
         id="g831">
	<path
   id="path829"
   d="m 398.004,357.18 c -8.137,2.316 -20.34,5.173 -29.723,12.912 -9.695,-8.49 -25.277,-12.171 -28.957,-12.921 -3.27,-0.667 -8.57,-1.451 -3.965,0.216 11.227,3.583 29.123,18.654 32.217,23.406 0.406,0.623 0.805,0.623 1.287,0.019 3.727,-4.673 13.576,-13.427 31.746,-23.468 1.944,-1.007 2.086,-1.5 -2.605,-0.164 z"
   inkscape:connector-curvature="0"
   style="fill:#d31245" />

</g>
      <g
         id="g879">
	<path
   id="path833"
   d="m 208.838,405.384 h 1.254 v 3.146 h 2.311 v -3.146 h 1.254 v 7.854 h -1.254 v -3.652 h -2.311 v 3.652 h -1.254 z"
   inkscape:connector-curvature="0"
   style="fill:#d31245" />

	<path
   id="path835"
   d="m 217.407,405.295 h 1.188 v 1.189 h -1.188 z m 0,2.025 h 1.188 v 5.918 h -1.188 z"
   inkscape:connector-curvature="0"
   style="fill:#d31245" />

	<path
   id="path837"
   d="m 223.457,413.744 c 0,0.363 0.33,0.705 0.858,0.705 0.616,0 1.001,-0.43 1.001,-1.111 v -0.957 h -0.021 c -0.221,0.518 -0.77,0.814 -1.342,0.814 -1.387,0 -1.771,-1.365 -1.771,-2.982 0,-1.298 0.197,-3.047 1.881,-3.047 0.693,0 1.188,0.451 1.299,0.88 h 0.021 v -0.726 h 1.122 v 5.633 c 0,1.441 -0.616,2.311 -2.212,2.311 -1.76,0 -1.957,-1.035 -1.957,-1.52 z m 0.836,-1.496 c 0.925,0 1.023,-1.166 1.023,-2.101 0,-0.968 -0.121,-2.036 -0.945,-2.036 -0.858,0 -1.002,0.881 -1.002,1.98 0,1.013 0.045,2.157 0.924,2.157 z"
   inkscape:connector-curvature="0"
   style="fill:#d31245" />

	<path
   id="path839"
   d="m 230.035,405.384 h 1.188 v 2.574 l 0.033,0.022 c 0.33,-0.506 0.848,-0.814 1.453,-0.814 0.901,0 1.474,0.406 1.474,1.605 v 4.467 h -1.188 v -4.059 c 0,-0.771 -0.23,-1.068 -0.824,-1.068 -0.484,0 -0.947,0.386 -0.947,1.156 v 3.971 h -1.188 v -7.854 z"
   inkscape:connector-curvature="0"
   style="fill:#d31245" />

	<path
   id="path841"
   d="m 243.873,406.439 h -1.869 v -1.056 h 4.961 v 1.056 h -1.837 v 6.799 h -1.255 z"
   inkscape:connector-curvature="0"
   style="fill:#d31245" />

	<path
   id="path843"
   d="m 250.078,405.384 h 1.188 v 2.574 l 0.033,0.022 c 0.33,-0.506 0.848,-0.814 1.452,-0.814 0.901,0 1.474,0.406 1.474,1.605 v 4.467 h -1.188 v -4.059 c 0,-0.771 -0.231,-1.068 -0.825,-1.068 -0.484,0 -0.946,0.386 -0.946,1.156 v 3.971 h -1.188 z"
   inkscape:connector-curvature="0"
   style="fill:#d31245" />

	<path
   id="path845"
   d="m 257.844,407.32 h 1.188 v 0.924 h 0.022 c 0.265,-0.66 0.704,-1.078 1.375,-1.078 0.132,0 0.21,0.021 0.286,0.044 v 1.21 c -0.088,-0.021 -0.297,-0.066 -0.495,-0.066 -0.539,0 -1.188,0.242 -1.188,1.343 v 3.542 h -1.188 z"
   inkscape:connector-curvature="0"
   style="fill:#d31245" />

	<path
   id="path847"
   d="m 265.752,407.166 c 1.728,0 2.211,1.275 2.211,3.113 0,1.838 -0.561,3.113 -2.211,3.113 -1.639,0 -2.2,-1.275 -2.2,-3.113 0,-1.838 0.484,-3.113 2.2,-3.113 z m 0,5.347 c 0.869,0 1.023,-0.726 1.023,-2.233 0,-1.309 -0.154,-2.233 -1.023,-2.233 -0.857,0 -1.012,0.925 -1.012,2.233 0,1.507 0.155,2.233 1.012,2.233 z"
   inkscape:connector-curvature="0"
   style="fill:#d31245" />

	<path
   id="path849"
   d="m 274.377,412.546 h -0.033 c -0.297,0.528 -0.858,0.847 -1.519,0.847 -0.88,0 -1.474,-0.406 -1.474,-1.936 v -4.137 h 1.188 v 4.246 c 0,0.66 0.297,0.881 0.803,0.881 0.506,0 0.969,-0.33 0.969,-0.99 v -4.137 h 1.188 v 5.918 h -1.121 v -0.692 z"
   inkscape:connector-curvature="0"
   style="fill:#d31245" />

	<path
   id="path851"
   d="m 280.305,413.744 c 0,0.363 0.33,0.705 0.858,0.705 0.616,0 1.001,-0.43 1.001,-1.111 v -0.957 h -0.021 c -0.221,0.518 -0.77,0.814 -1.342,0.814 -1.387,0 -1.771,-1.365 -1.771,-2.982 0,-1.298 0.197,-3.047 1.881,-3.047 0.693,0 1.188,0.451 1.299,0.88 h 0.021 v -0.726 h 1.122 v 5.633 c 0,1.441 -0.616,2.311 -2.212,2.311 -1.76,0 -1.957,-1.035 -1.957,-1.52 z m 0.836,-1.496 c 0.925,0 1.023,-1.166 1.023,-2.101 0,-0.968 -0.121,-2.036 -0.945,-2.036 -0.858,0 -1.002,0.881 -1.002,1.98 0,1.013 0.045,2.157 0.924,2.157 z"
   inkscape:connector-curvature="0"
   style="fill:#d31245" />

	<path
   id="path853"
   d="m 286.883,405.384 h 1.188 v 2.574 l 0.033,0.022 c 0.33,-0.506 0.847,-0.814 1.452,-0.814 0.902,0 1.475,0.406 1.475,1.605 v 4.467 h -1.188 v -4.059 c 0,-0.771 -0.231,-1.068 -0.825,-1.068 -0.484,0 -0.946,0.386 -0.946,1.156 v 3.971 h -1.188 v -7.854 z"
   inkscape:connector-curvature="0"
   style="fill:#d31245" />

	<path
   id="path855"
   d="m 294.649,407.32 h 1.122 v 0.726 h 0.021 c 0.242,-0.528 0.683,-0.88 1.332,-0.88 1.354,0 1.902,1.155 1.902,3.19 0,2.486 -1.012,3.036 -1.826,3.036 -0.638,0 -1.121,-0.318 -1.342,-0.847 h -0.021 v 2.629 h -1.188 z m 2.134,5.127 c 0.683,0 0.99,-0.507 0.99,-2.146 0,-1.342 -0.176,-2.189 -1.001,-2.189 -0.813,0 -1.001,0.837 -1.001,2.102 0,1.419 0.176,2.233 1.012,2.233 z"
   inkscape:connector-curvature="0"
   style="fill:#d31245" />

	<path
   id="path857"
   d="m 305.44,412.546 h -0.033 c -0.297,0.528 -0.858,0.847 -1.519,0.847 -0.88,0 -1.474,-0.406 -1.474,-1.936 v -4.137 h 1.188 v 4.246 c 0,0.66 0.297,0.881 0.803,0.881 0.506,0 0.969,-0.33 0.969,-0.99 v -4.137 h 1.188 v 5.918 h -1.122 z"
   inkscape:connector-curvature="0"
   style="fill:#d31245" />

	<path
   id="path859"
   d="m 309.652,407.32 h 0.814 v -1.684 h 1.188 v 1.684 h 0.968 v 0.88 h -0.968 v 3.531 c 0,0.462 0.132,0.627 0.539,0.627 0.176,0 0.319,-0.011 0.429,-0.032 v 0.879 c -0.253,0.066 -0.583,0.1 -0.957,0.1 -0.803,0 -1.199,-0.22 -1.199,-1.43 V 408.2 h -0.814 z"
   inkscape:connector-curvature="0"
   style="fill:#d31245" />

	<path
   id="path861"
   d="m 325.736,410.422 v 0.166 c 0,1.419 -0.572,2.805 -2.42,2.805 -1.98,0 -2.598,-1.275 -2.598,-4.082 0,-2.805 0.617,-4.081 2.607,-4.081 2.234,0 2.365,1.65 2.365,2.464 v 0.144 h -1.254 v -0.132 c 0,-0.727 -0.219,-1.562 -1.121,-1.529 -0.924,0 -1.344,0.572 -1.344,3.103 0,2.531 0.42,3.169 1.344,3.169 1.045,0 1.166,-1.167 1.166,-1.893 v -0.133 h 1.255 z"
   inkscape:connector-curvature="0"
   style="fill:#d31245" />

	<path
   id="path863"
   d="m 330.982,407.166 c 1.727,0 2.211,1.275 2.211,3.113 0,1.838 -0.561,3.113 -2.211,3.113 -1.639,0 -2.201,-1.275 -2.201,-3.113 0,-1.838 0.485,-3.113 2.201,-3.113 z m 0,5.347 c 0.869,0 1.023,-0.726 1.023,-2.233 0,-1.309 -0.154,-2.233 -1.023,-2.233 -0.857,0 -1.012,0.925 -1.012,2.233 10e-4,1.507 0.155,2.233 1.012,2.233 z"
   inkscape:connector-curvature="0"
   style="fill:#d31245" />

	<path
   id="path865"
   d="m 336.637,407.32 h 1.121 v 0.693 h 0.033 c 0.297,-0.529 0.859,-0.848 1.42,-0.848 0.848,0 1.199,0.406 1.375,0.902 0.342,-0.572 0.781,-0.902 1.496,-0.902 0.836,0 1.441,0.429 1.441,1.573 v 4.499 h -1.188 v -4.059 c 0,-0.771 -0.232,-1.068 -0.717,-1.068 -0.482,0 -0.945,0.386 -0.945,1.156 v 3.971 h -1.188 v -4.059 c 0,-0.771 -0.232,-1.068 -0.727,-1.068 -0.473,0 -0.936,0.386 -0.936,1.156 v 3.971 h -1.188 v -5.917 z"
   inkscape:connector-curvature="0"
   style="fill:#d31245" />

	<path
   id="path867"
   d="m 347.195,407.32 h 1.123 v 0.726 h 0.021 c 0.242,-0.528 0.682,-0.88 1.332,-0.88 1.352,0 1.902,1.155 1.902,3.19 0,2.486 -1.012,3.036 -1.826,3.036 -0.639,0 -1.123,-0.318 -1.342,-0.847 h -0.021 v 2.629 h -1.189 z m 2.135,5.127 c 0.682,0 0.99,-0.507 0.99,-2.146 0,-1.342 -0.176,-2.189 -1.002,-2.189 -0.814,0 -1,0.837 -1,2.102 0,1.419 0.176,2.233 1.012,2.233 z"
   inkscape:connector-curvature="0"
   style="fill:#d31245" />

	<path
   id="path869"
   d="m 357.986,412.546 h -0.033 c -0.297,0.528 -0.857,0.847 -1.518,0.847 -0.881,0 -1.475,-0.406 -1.475,-1.936 v -4.137 h 1.189 v 4.246 c 0,0.66 0.297,0.881 0.803,0.881 0.506,0 0.967,-0.33 0.967,-0.99 v -4.137 h 1.189 v 5.918 h -1.123 v -0.692 z"
   inkscape:connector-curvature="0"
   style="fill:#d31245" />

	<path
   id="path871"
   d="m 362.199,407.32 h 0.814 v -1.684 h 1.188 v 1.684 h 0.969 v 0.88 h -0.969 v 3.531 c 0,0.462 0.133,0.627 0.539,0.627 0.178,0 0.32,-0.011 0.43,-0.032 v 0.879 c -0.252,0.066 -0.582,0.1 -0.957,0.1 -0.803,0 -1.199,-0.22 -1.199,-1.43 V 408.2 H 362.2 v -0.88 z"
   inkscape:connector-curvature="0"
   style="fill:#d31245" />

	<path
   id="path873"
   d="m 368.316,405.295 h 1.188 v 1.189 h -1.188 z m 0,2.025 h 1.188 v 5.918 h -1.188 z"
   inkscape:connector-curvature="0"
   style="fill:#d31245" />

	<path
   id="path875"
   d="m 373.178,407.32 h 1.123 v 0.693 h 0.033 c 0.297,-0.529 0.857,-0.848 1.518,-0.848 0.902,0 1.475,0.406 1.475,1.605 v 4.467 h -1.189 v -4.059 c 0,-0.771 -0.23,-1.068 -0.824,-1.068 -0.484,0 -0.945,0.386 -0.945,1.156 v 3.971 h -1.189 v -5.917 z"
   inkscape:connector-curvature="0"
   style="fill:#d31245" />

	<path
   id="path877"
   d="m 382.133,413.744 c 0,0.363 0.328,0.705 0.857,0.705 0.615,0 1,-0.43 1,-1.111 v -0.957 h -0.021 c -0.219,0.518 -0.77,0.814 -1.342,0.814 -1.387,0 -1.771,-1.365 -1.771,-2.982 0,-1.298 0.197,-3.047 1.881,-3.047 0.693,0 1.189,0.451 1.299,0.88 h 0.021 v -0.726 h 1.123 v 5.633 c 0,1.441 -0.617,2.311 -2.211,2.311 -1.762,0 -1.959,-1.035 -1.959,-1.52 z m 0.836,-1.496 c 0.924,0 1.021,-1.166 1.021,-2.101 0,-0.968 -0.121,-2.036 -0.945,-2.036 -0.857,0 -1.002,0.881 -1.002,1.98 0,1.013 0.045,2.157 0.926,2.157 z"
   inkscape:connector-curvature="0"
   style="fill:#d31245" />

</g>
      <path
         id="path881"
         d="m 374.978,377.653 -1.922,1.871 c 1.871,1.904 2.81,4.803 2.81,7.709 0,4.949 -2.699,9.9 -8.145,9.9 -5.446,0 -8.145,-4.951 -8.145,-9.9 0,-3.269 1.186,-6.527 3.553,-8.37 l -1.963,-1.812 c -2.897,2.229 -4.426,6 -4.426,10.183 0,6.66 3.871,12.285 10.98,12.285 7.109,0 10.98,-5.625 10.98,-12.285 0.001,-3.83 -1.285,-7.309 -3.722,-9.581 z"
         inkscape:connector-curvature="0" />
      <path
         id="path883"
         d="m 350.479,368.338 v 11.695 h -0.09 c -1.215,-3.33 -4.59,-5.084 -8.055,-5.084 -7.063,0 -10.438,5.713 -10.438,12.283 0,6.57 3.375,12.285 10.438,12.285 3.375,0 7.065,-2.07 8.28,-5.085 h 0.09 v 4.41 h 2.61 v -28.398 z m -8.144,28.795 c -5.399,0 -7.604,-5.085 -7.604,-9.9 0,-4.815 2.205,-9.898 7.604,-9.898 6.03,0 8.145,5.084 8.145,9.898 0,4.814 -2.115,9.9 -8.145,9.9 z"
         inkscape:connector-curvature="0" />
    </g>
  </g>
</svg>
