<?xml version="1.0" encoding="UTF-8" standalone="no"?>
<!-- Created with Inkscape (http://www.inkscape.org/) -->

<svg
   xmlns:dc="http://purl.org/dc/elements/1.1/"
   xmlns:cc="http://creativecommons.org/ns#"
   xmlns:rdf="http://www.w3.org/1999/02/22-rdf-syntax-ns#"
   xmlns:svg="http://www.w3.org/2000/svg"
   xmlns="http://www.w3.org/2000/svg"
   xmlns:sodipodi="http://sodipodi.sourceforge.net/DTD/sodipodi-0.dtd"
   xmlns:inkscape="http://www.inkscape.org/namespaces/inkscape"
   width="76.804115mm"
   height="14.168mm"
   viewBox="0 0 76.804115 14.168"
   version="1.1"
   id="svg8"
   sodipodi:docname="htcview-dark.svg"
   inkscape:version="0.92.3 (2405546, 2018-03-11)">
  <defs
     id="defs2" />
  <sodipodi:namedview
     id="base"
     pagecolor="#ffffff"
     bordercolor="#ed00ff"
     borderopacity="1"
     inkscape:pageopacity="0.0"
     inkscape:pageshadow="2"
     inkscape:zoom="6.1147169"
     inkscape:cx="230.18236"
     inkscape:cy="21.575692"
     inkscape:document-units="mm"
     inkscape:current-layer="g3774"
     showgrid="false"
     inkscape:window-width="2256"
     inkscape:window-height="1410"
     inkscape:window-x="-11"
     inkscape:window-y="1789"
     inkscape:window-maximized="1"
     units="mm"
     fit-margin-top="0"
     fit-margin-left="0"
     fit-margin-right="0"
     fit-margin-bottom="0"
     inkscape:pagecheckerboard="false"
     borderlayer="false"
     inkscape:showpageshadow="false" />
  <metadata
     id="metadata5">
    <rdf:RDF>
      <cc:Work
         rdf:about="">
        <dc:format>image/svg+xml</dc:format>
        <dc:type
           rdf:resource="http://purl.org/dc/dcmitype/StillImage" />
        <dc:title></dc:title>
      </cc:Work>
    </rdf:RDF>
  </metadata>
  <g
     inkscape:label="Layer 1"
     inkscape:groupmode="layer"
     id="layer1"
     transform="translate(-55.676814,-42.385335)">
    <g
       id="g3774"
       transform="matrix(0.26458333,0,0,0.26458333,53.030981,42.490363)">
      <g
         id="g891">
        <polygon
           style="fill:#c8c8c8;fill-opacity:1"
           transform="translate(-198.84,-375.76409)"
           id="polygon3"
           points="208.84,385.797 208.84,418.172 216.294,418.172 216.294,405.303 228.896,405.303 228.896,418.172 236.35,418.172 236.35,392.633 228.896,392.633 228.896,398.666 216.294,398.666 216.294,385.797 " />
        <path
           style="fill:#c8c8c8;fill-opacity:1;stroke:#c8c8c8;stroke-width:0.40000001;stroke-opacity:1"
           id="path5"
           d="m 77.411,21.294911 c -0.448,-3.056 -3.492,-5.38 -6.984,-5.38 -6.312,0 -8.686,5.166 -8.686,10.546 0,5.123 2.373,10.287 8.686,10.287 4.297,0 6.715,-2.84 7.252,-6.887 h 6.805 c -0.716,7.662 -6.223,12.57 -14.057,12.57 -9.895,0 -15.714,-7.105 -15.714,-15.971 0,-9.126 5.819,-16.23 15.714,-16.23 7.028,0 12.938,3.961 13.789,11.064 h -6.805 z"
           inkscape:connector-curvature="0" />
        <path
           style="fill:#c8c8c8;fill-opacity:1"
           id="path7"
           d="m 109.251,30.467911 c 0,6.66 -3.87,12.285 -10.979,12.285 -7.11,0 -10.979,-5.625 -10.979,-12.285 0,-6.66 3.869,-12.283 10.979,-12.283 7.109,0.001 10.979,5.623 10.979,12.283 z m -19.125,0 c 0,4.949 2.701,9.9 8.146,9.9 5.445,0 8.145,-4.951 8.145,-9.9 0,-4.949 -2.7,-9.898 -8.145,-9.898 -5.445,0 -8.146,4.949 -8.146,9.898 z"
           inkscape:connector-curvature="0" />
        <path
           style="fill:#c8c8c8;fill-opacity:1"
           id="path9"
           d="m 111.637,18.859911 h 2.835 v 4.005 h 0.09 c 1.035,-2.791 4.14,-4.679 7.425,-4.679 6.525,0 8.505,3.417 8.505,8.953 v 14.939 h -2.835 v -14.488 c 0,-4.006 -1.305,-7.019 -5.895,-7.019 -4.5,0 -7.2,3.419 -7.29,7.962 v 13.545 h -2.835 z"
           inkscape:connector-curvature="0" />
        <path
           style="fill:#c8c8c8;fill-opacity:1"
           id="path11"
           d="m 182.995,18.859911 h 2.609 v 5.445 h 0.09 c 1.44,-3.734 4.59,-5.939 8.775,-5.759 v 2.833 c -5.131,-0.269 -8.641,3.51 -8.641,8.326 v 12.373 h -2.834 v -23.218 z"
           inkscape:connector-curvature="0" />
        <polygon
           style="fill:#c8c8c8;fill-opacity:1"
           transform="translate(-198.84,-375.76409)"
           id="polygon13"
           points="268.582,385.797 259.649,385.797 261.524,388.67 " />
        <polyline
           transform="translate(-198.84,-375.76409)"
           style="fill:#d31245"
           points="228.895,385.797 228.895,392.631 241.636,392.631 241.636,418.172 249.459,418.172   249.459,392.655 262.27,392.655 262.27,385.797 "
           id="polyline15" />
        <g
           transform="translate(-198.84,-375.76409)"
           id="g17">
          <path
             style="fill:#d31245"
             id="path19"
             d="m 398.004,376.18 c -8.137,2.316 -20.34,5.173 -29.723,12.912 -9.695,-8.49 -25.277,-12.171 -28.957,-12.921 -3.27,-0.667 -8.57,-1.451 -3.965,0.216 11.227,3.583 29.123,18.654 32.217,23.406 0.406,0.623 0.805,0.623 1.287,0.02 3.727,-4.673 13.576,-13.427 31.746,-23.468 1.944,-1.008 2.086,-1.501 -2.605,-0.165 z"
             inkscape:connector-curvature="0" />
        </g>
        <path
           style="fill:#c8c8c8;fill-opacity:1"
           id="path21"
           d="m 176.138,20.888911 -1.922,1.87 c 1.871,1.904 2.81,4.803 2.81,7.709 0,4.949 -2.699,9.9 -8.145,9.9 -5.446,0 -8.145,-4.951 -8.145,-9.9 0,-3.268 1.186,-6.527 3.553,-8.369 l -1.963,-1.813 c -2.897,2.229 -4.426,6 -4.426,10.182 0,6.66 3.871,12.285 10.98,12.285 7.109,0 10.98,-5.625 10.98,-12.285 10e-4,-3.828 -1.285,-7.306 -3.722,-9.579 z"
           inkscape:connector-curvature="0" />
        <path
           style="fill:#c8c8c8;fill-opacity:1"
           id="path23"
           d="m 151.639,11.573911 v 11.695 h -0.09 c -1.215,-3.33 -4.59,-5.083 -8.055,-5.083 -7.063,0 -10.438,5.712 -10.438,12.283 0,6.571 3.375,12.285 10.438,12.285 3.375,0 7.065,-2.07 8.28,-5.086 h 0.09 v 4.41 h 2.61 v -28.398 z m -8.144,28.795 c -5.399,0 -7.604,-5.086 -7.604,-9.9 0,-4.814 2.205,-9.898 7.604,-9.898 6.03,0 8.145,5.083 8.145,9.898 0,4.815 -2.115,9.9 -8.145,9.9 z"
           inkscape:connector-curvature="0" />
      </g>
      <g
         style="font-style:normal;font-weight:normal;font-size:44.98878479px;line-height:125%;font-family:Sans;letter-spacing:0px;word-spacing:0px;fill:#c8c8c8;fill-opacity:1;stroke:none;stroke-opacity:1"
         id="text2993-2"
         transform="translate(0,-10.397479)">
        <path
           style="font-variant:normal;font-weight:300;font-stretch:normal;line-height:125%;font-family:'Helvetica Neue';-inkscape-font-specification:'Helvetica Neue Light';text-align:start;writing-mode:lr-tb;text-anchor:start;fill:#c8c8c8;fill-opacity:1;stroke:none;stroke-opacity:1"
           id="path3002"
           d="m 208.60383,20.353254 11.87704,32.121992 h 3.55411 l 11.92203,-32.121992 h -3.23919 L 222.3704,49.101088 h -0.09 L 211.843,20.353254 h -3.23919"
           inkscape:connector-curvature="0" />
        <path
           style="font-variant:normal;font-weight:300;font-stretch:normal;line-height:125%;font-family:'Helvetica Neue';-inkscape-font-specification:'Helvetica Neue Light';text-align:start;writing-mode:lr-tb;text-anchor:start;fill:#c8c8c8;fill-opacity:1;stroke:none;stroke-opacity:1"
           id="path3004"
           d="m 238.33017,20.353254 v 4.543867 h 2.83429 v -4.543867 h -2.83429 m 0,8.907779 v 23.214213 h 2.83429 V 29.261033 h -2.83429"
           inkscape:connector-curvature="0" />
        <path
           style="font-variant:normal;font-weight:300;font-stretch:normal;line-height:125%;font-family:'Helvetica Neue';-inkscape-font-specification:'Helvetica Neue Light';text-align:start;writing-mode:lr-tb;text-anchor:start;fill:#c8c8c8;fill-opacity:1;stroke:none;stroke-opacity:1"
           id="path3006"
           d="M 263.32355,39.248544 H 248.2973 c 0.11996,-1.049724 0.3599,-2.069469 0.71982,-3.059238 0.38989,-1.019728 0.89977,-1.904507 1.52962,-2.654338 0.62983,-0.779786 1.39464,-1.394632 2.29442,-1.84454 0.89977,-0.479859 1.93451,-0.719799 3.10423,-0.719821 1.1397,2.2e-5 2.15945,0.239962 3.05924,0.719821 0.89976,0.449908 1.66457,1.064754 2.29442,1.84454 0.62983,0.749831 1.10971,1.619614 1.43965,2.60935 0.35989,0.989768 0.55484,2.024509 0.58485,3.104226 m -15.02625,2.384405 h 17.86054 c 0.06,-1.619583 -0.09,-3.209186 -0.44988,-4.768811 -0.35994,-1.589586 -0.95979,-2.984237 -1.79956,-4.183957 -0.80981,-1.229672 -1.87455,-2.219425 -3.1942,-2.96926 -1.31969,-0.749789 -2.90929,-1.124695 -4.76881,-1.124719 -1.82955,2.4e-5 -3.41916,0.359934 -4.76881,1.079731 -1.31968,0.68985 -2.39941,1.619617 -3.23919,2.789304 -0.8398,1.139735 -1.46964,2.444408 -1.88953,3.914024 -0.38991,1.469649 -0.58486,2.969273 -0.58486,4.498879 0,1.649599 0.19495,3.224205 0.58486,4.723822 0.41989,1.469639 1.04973,2.774313 1.88953,3.914025 0.83978,1.109725 1.91951,1.994503 3.23919,2.654338 1.34965,0.629843 2.93926,0.944764 4.76881,0.944764 2.93925,0 5.20369,-0.71982 6.79331,-2.159461 1.61957,-1.439638 2.72929,-3.479128 3.32917,-6.118475 h -2.8343 c -0.4499,1.799557 -1.2597,3.239197 -2.42939,4.318923 -1.16973,1.079733 -2.78932,1.619598 -4.85879,1.619597 -1.34967,10e-7 -2.50439,-0.284927 -3.46414,-0.854787 -0.95977,-0.569855 -1.75457,-1.289675 -2.3844,-2.159462 -0.62985,-0.869778 -1.09473,-1.844534 -1.39465,-2.924271 -0.26994,-1.109715 -0.40491,-2.174448 -0.4049,-3.194204"
           inkscape:connector-curvature="0" />
        <path
           style="font-variant:normal;font-weight:300;font-stretch:normal;line-height:125%;font-family:'Helvetica Neue';-inkscape-font-specification:'Helvetica Neue Light';text-align:start;writing-mode:lr-tb;text-anchor:start;fill:#c8c8c8;fill-opacity:1;stroke:none;stroke-opacity:1"
           id="path3008"
           d="m 267.66638,29.261033 7.46813,23.214213 h 3.10423 l 5.66859,-19.525132 h 0.09 l 5.71358,19.525132 h 3.10423 l 7.46813,-23.214213 h -3.01424 l -5.93852,19.885043 h -0.09 l -5.66859,-19.885043 h -3.1942 l -5.66859,19.885043 h -0.09 l -5.93852,-19.885043 h -3.01424"
           inkscape:connector-curvature="0" />
      </g>
    </g>
  </g>
</svg>
